<svg xmlns="http://www.w3.org/2000/svg" width="524" height="295" viewBox="0 0 524 295">
  <g id="Grupo_1020317" data-name="Grupo 1020317" transform="translate(-1968.668 7500)">
    <rect id="Rectángulo_356551" data-name="Rectángulo 356551" width="524" height="295" rx="20" transform="translate(1968.668 -7500)" fill="#fff"/>
    <g id="iFood-OdTte1qsu_brandlogos.net" transform="translate(2068.549 -7439.872)">
      <path id="Trazado_748572" data-name="Trazado 748572" d="M399.25,541.99h24.692l13.777-69.3H413.07Z" transform="translate(-399.25 -441.844)" fill="#e9202e"/>
      <path id="Trazado_748573" data-name="Trazado 748573" d="M410.39,471.215h24.691l3.955-19.975H414.345Z" transform="translate(-394.37 -451.24)" fill="#e9202e"/>
      <path id="Trazado_748574" data-name="Trazado 748574" d="M423.23,570.88h24.691l14.956-75.009H480.91l2.876-13.82H465.581l.633-3.207c1.194-5.91,3.078-12.756,12.382-12.756a39.65,39.65,0,0,1,15.948,2.876l2.876-14.568a53.437,53.437,0,0,0-17.774-3.077c-19.845,0-33.478,12.065-38.511,30.846h-8.6l-2.7,13.82h8.413Z" transform="translate(-388.745 -451.205)" fill="#e9202e"/>
      <path id="Trazado_748575" data-name="Trazado 748575" d="M486.459,544.065c29.149,0,49.383-27.136,49.383-49.254,0-16.077-14.956-23.182-29.149-23.182-31.982,0-49.383,29.149-49.383,49.254,0,16.149,15.071,23.182,29.149,23.182" transform="translate(-373.816 -442.308)" fill="#e9202e"/>
      <path id="Trazado_748576" data-name="Trazado 748576" d="M540.629,544.065c29.149,0,49.383-27.136,49.383-49.254,0-16.077-14.956-23.182-29.149-23.182-31.982,0-49.383,29.149-49.383,49.254,0,16.149,15.071,23.182,29.149,23.182" transform="translate(-350.087 -442.308)" fill="#e9202e"/>
      <path id="Trazado_748577" data-name="Trazado 748577" d="M606.958,549.876H631.4l19.73-98.636H626.487l-5.91,29.279a51.771,51.771,0,0,0-9.98-1.136c-24.188,0-46.176,31.35-46.176,53.711,0,9.232,5.91,18.278,15.819,18.278,14.194,0,24-7.1,28.085-13.69h1.438Z" transform="translate(-326.896 -451.24)" fill="#e9202e"/>
      <path id="Trazado_748578" data-name="Trazado 748578" d="M580.4,567.177a94.38,94.38,0,0,1-68.408,22.045c-33.075-2.071-55.969-28.143-60.629-54.646h1.568a61.391,61.391,0,0,0,48.247,35.161c22.175,2.517,49.383-7.722,64.324-22.3l-16.71-12.943,49.685.129L587.789,588.2Z" transform="translate(-376.423 -414.772)" fill="#e9202e"/>
    </g>
  </g>
</svg>
