<svg xmlns="http://www.w3.org/2000/svg" width="361" height="333.221" viewBox="0 0 361 333.221">
  <g id="Grupo_1020316" data-name="Grupo 1020316" transform="translate(-180 -4836)">
    <path id="Trazado_622590" data-name="Trazado 622590" d="M36.151,17.708l69.577,1.61V99.272L27.717,56.862Z" transform="translate(223.001 5069.949)" fill="#0082ff"/>
    <path id="Trazado_622589" data-name="Trazado 622589" d="M0,0H147.161V56.772L0,14.7Z" transform="translate(397.836 5126.824) rotate(180)" fill="#0068cc"/>
    <path id="Trazado_622588" data-name="Trazado 622588" d="M7.044,18.779H214.3V98.734L7.044,39.476Z" transform="translate(183.538 5028.091)" fill="#0082ff"/>
    <path id="Trazado_749965" data-name="Trazado 749965" d="M10,0H351a10,10,0,0,1,10,10V223a10,10,0,0,1-10,10H10A10,10,0,0,1,0,223V10A10,10,0,0,1,10,0Z" transform="translate(180 4836)" fill="#0068cc"/>
    <path id="Trazado_749966" data-name="Trazado 749966" d="M83.848,30.8a9.74,9.74,0,0,1-1.865,5.047,10.548,10.548,0,0,1-4.268,3.4,13.213,13.213,0,0,1-5.724,1.132,8.9,8.9,0,0,1-6.661-2.728A10.964,10.964,0,0,1,62.677,30.5a23.265,23.265,0,0,1,.659-6.55,17.313,17.313,0,0,1,2.69-6.169,12.361,12.361,0,0,1,4.4-3.934,11.416,11.416,0,0,1,5.539-1.252,9.663,9.663,0,0,1,6.986,2.653,10.387,10.387,0,0,1,2.792,7.106l-6.327-.019a5.2,5.2,0,0,0-.891-3.525,3.91,3.91,0,0,0-2.932-1.132q-5.01-.167-6.1,7.793a42.821,42.821,0,0,0-.5,5.14q-.093,4.564,3.377,4.694a4.957,4.957,0,0,0,3.581-1.1,5.521,5.521,0,0,0,1.707-3.331ZM99.8,25.583a17.465,17.465,0,0,0-1.893-.186,4.713,4.713,0,0,0-4.193,1.893L91.455,40h-6.1l3.488-20.076,5.7-.019-.464,2.635Q96.038,19.5,98.71,19.5a8.748,8.748,0,0,1,1.893.26Zm10.706-6.03a8.431,8.431,0,0,1,4.657,1.345,7.578,7.578,0,0,1,2.885,3.646,11.251,11.251,0,0,1,.659,5.2l-.037.408a11.9,11.9,0,0,1-3.433,7.459,9.658,9.658,0,0,1-7.2,2.765,8.4,8.4,0,0,1-4.62-1.327,7.626,7.626,0,0,1-2.885-3.609,10.934,10.934,0,0,1-.677-5.158,12.377,12.377,0,0,1,3.386-7.867A9.6,9.6,0,0,1,110.511,19.553Zm-4.546,10.733-.056,1.093q-.26,4.131,2.523,4.2,3.6.111,4.175-5.835l.074-1.686a4.549,4.549,0,0,0-.622-2.658,2.265,2.265,0,0,0-1.939-1.028,3.192,3.192,0,0,0-2.774,1.38A9.031,9.031,0,0,0,105.965,30.286Zm31.914,1.457,4.026-11.819h5.975L139.809,40h-5.14l-1.15-11.838L128.23,40h-5.177L121.94,19.924h5.733l-.186,11.949,5.14-11.949h4.249Zm9.76-1.818a14.6,14.6,0,0,1,2.895-7.607,7.173,7.173,0,0,1,6.049-2.765,5.471,5.471,0,0,1,4.249,2.152L162.779,11.5H168.9L163.967,40H158.53l.26-2.171A6.266,6.266,0,0,1,153.8,40.39a5.53,5.53,0,0,1-4.537-2.143,9.45,9.45,0,0,1-1.753-5.65,17.378,17.378,0,0,1,.074-2.282Zm6.086.427a14.572,14.572,0,0,0-.13,2.078q0,3.08,2.078,3.136a3.893,3.893,0,0,0,3.21-1.726l1.373-7.7a2.472,2.472,0,0,0-2.449-1.763,3.121,3.121,0,0,0-2.755,1.475A9.514,9.514,0,0,0,153.725,30.352Zm36.738.445a9.741,9.741,0,0,1-1.865,5.047,10.547,10.547,0,0,1-4.268,3.4,13.213,13.213,0,0,1-5.724,1.132,8.9,8.9,0,0,1-6.661-2.728,10.964,10.964,0,0,1-2.653-7.144,23.265,23.265,0,0,1,.659-6.55,17.313,17.313,0,0,1,2.69-6.169,12.361,12.361,0,0,1,4.4-3.934,11.416,11.416,0,0,1,5.539-1.252,9.663,9.663,0,0,1,6.986,2.653,10.387,10.387,0,0,1,2.792,7.106l-6.327-.019a5.2,5.2,0,0,0-.891-3.525,3.91,3.91,0,0,0-2.932-1.132q-5.01-.167-6.1,7.793a42.821,42.821,0,0,0-.5,5.14q-.093,4.564,3.377,4.694a4.957,4.957,0,0,0,3.581-1.1,5.521,5.521,0,0,0,1.707-3.331ZM203.247,40a5.444,5.444,0,0,1-.26-1.818,6.193,6.193,0,0,1-4.917,2.189,6.05,6.05,0,0,1-4.342-1.744,5.243,5.243,0,0,1-1.614-4.138,5.889,5.889,0,0,1,2.728-5.019,12.859,12.859,0,0,1,7.2-1.753l2.041.037.223-1.132.074-.983a1.594,1.594,0,0,0-1.688-1.744,2.346,2.346,0,0,0-2.468,2.208l-6.123.019a5.815,5.815,0,0,1,1.317-3.516,7.808,7.808,0,0,1,3.331-2.3,11.637,11.637,0,0,1,4.481-.751,8.974,8.974,0,0,1,4,.956,5.953,5.953,0,0,1,2.57,2.5,6.4,6.4,0,0,1,.649,3.7l-1.5,9.444-.093,1.15a5.071,5.071,0,0,0,.353,2.338l-.019.353Zm-3.488-4.045a3.937,3.937,0,0,0,3.284-1.651l.612-3.229-1.577-.019a4.157,4.157,0,0,0-2.523.863,3.272,3.272,0,0,0-1.243,2.254,1.643,1.643,0,0,0,.288,1.252A1.469,1.469,0,0,0,199.759,35.955Zm23.23-1.707q.241-1.225-1.893-1.837l-1.317-.334a10.145,10.145,0,0,1-4.731-2.394,4.738,4.738,0,0,1-1.41-3.655,5.823,5.823,0,0,1,2.57-4.7,9.78,9.78,0,0,1,6.04-1.772,9.06,9.06,0,0,1,5.743,1.8,5.871,5.871,0,0,1,2.236,4.75l-6.086-.019q.074-2.375-2.1-2.375a2.991,2.991,0,0,0-1.726.547,2.126,2.126,0,0,0-.946,1.457q-.315,1.5,2.653,2.06a15.42,15.42,0,0,1,3.989,1.419,5.956,5.956,0,0,1,2.152,1.995,4.96,4.96,0,0,1,.687,2.857,5.365,5.365,0,0,1-1.187,3.247,7.689,7.689,0,0,1-3.275,2.282,11.731,11.731,0,0,1-4.648.8,9.434,9.434,0,0,1-4.036-.909,7.2,7.2,0,0,1-2.913-2.421,6.289,6.289,0,0,1-1.085-3.516l5.678.037a2.345,2.345,0,0,0,2.672,2.635,3.507,3.507,0,0,0,1.93-.51A2.207,2.207,0,0,0,222.989,34.248Zm19.2-19.315-.872,4.991h3.21l-.761,4.342h-3.21L239,33.487a2.458,2.458,0,0,0,.121,1.429q.25.482,1.252.52a14.509,14.509,0,0,0,1.6-.093l-.445,4.527a9.865,9.865,0,0,1-3.284.464,5.41,5.41,0,0,1-4.249-1.67,5.7,5.7,0,0,1-1.15-4.435l1.633-9.964h-2.486l.742-4.342h2.486l.872-4.991Z" transform="translate(208 4927)" fill="#fff"/>
  </g>
</svg>
