<svg xmlns="http://www.w3.org/2000/svg" width="361" height="333.221" viewBox="0 0 361 333.221">
  <g id="Grupo_1020316" data-name="Grupo 1020316" transform="translate(-180 -5103)">
    <path id="Trazado_622590" data-name="Trazado 622590" d="M36.151,17.708l69.577,1.61V99.272L27.717,56.862Z" transform="translate(223.001 5336.949)" fill="#0082ff"/>
    <path id="Trazado_622589" data-name="Trazado 622589" d="M0,0H147.161V56.772L0,14.7Z" transform="translate(397.836 5393.824) rotate(180)" fill="#0068cc"/>
    <path id="Trazado_622588" data-name="Trazado 622588" d="M7.044,18.779H214.3V98.734L7.044,39.476Z" transform="translate(183.538 5295.091)" fill="#0082ff"/>
    <path id="Trazado_749966" data-name="Trazado 749966" d="M10,0H351a10,10,0,0,1,10,10V223a10,10,0,0,1-10,10H10A10,10,0,0,1,0,223V10A10,10,0,0,1,10,0Z" transform="translate(180 5103)" fill="#0068cc"/>
    <path id="Trazado_749967" data-name="Trazado 749967" d="M82.874,27a9.56,9.56,0,0,1-3.219,6.865A11.306,11.306,0,0,1,72,36.371a10.166,10.166,0,0,1-8.173-3.5q-2.978-3.5-2.978-9.6V21.62a16.194,16.194,0,0,1,1.373-6.865A10.289,10.289,0,0,1,66.146,10.2a10.993,10.993,0,0,1,5.928-1.586,11.014,11.014,0,0,1,7.533,2.5,10.273,10.273,0,0,1,3.3,7.032H77.344a5.642,5.642,0,0,0-1.457-3.794,5.394,5.394,0,0,0-3.813-1.178,4.729,4.729,0,0,0-4.166,1.995q-1.382,1.995-1.419,6.188V23.4q0,4.379,1.327,6.4A4.642,4.642,0,0,0,72,31.825a5.5,5.5,0,0,0,3.85-1.178A5.322,5.322,0,0,0,77.307,27Zm14.584-6.049a14.568,14.568,0,0,0-1.93-.148q-3.043,0-3.989,2.06V36H86.176V15.924h5.065l.148,2.394a4.969,4.969,0,0,1,4.472-2.765,5.619,5.619,0,0,1,1.67.241Zm1.076,4.824a11.906,11.906,0,0,1,1.15-5.325A8.422,8.422,0,0,1,103,16.833a9.663,9.663,0,0,1,5.019-1.28,9.142,9.142,0,0,1,6.633,2.486,9.979,9.979,0,0,1,2.867,6.754l.037,1.373a10.493,10.493,0,0,1-2.579,7.413,10,10,0,0,1-13.851.009,10.678,10.678,0,0,1-2.588-7.57Zm5.362.381a7.5,7.5,0,0,0,1.076,4.376,3.866,3.866,0,0,0,6.123.019,8.211,8.211,0,0,0,1.095-4.785,7.429,7.429,0,0,0-1.095-4.348,3.559,3.559,0,0,0-3.08-1.542,3.5,3.5,0,0,0-3.043,1.533A8.35,8.35,0,0,0,103.9,26.157Zm34.419,2.551,2.635-12.784h5.177L141.005,36h-4.49l-3.8-12.636L128.908,36h-4.472l-5.121-20.076h5.177l2.616,12.766,3.674-12.766h3.878Zm9.63-2.895a12.1,12.1,0,0,1,2.106-7.478,6.833,6.833,0,0,1,5.761-2.783,6.149,6.149,0,0,1,4.843,2.189V7.5h5.381V36h-4.843l-.26-2.134a6.31,6.31,0,0,1-5.158,2.5,6.815,6.815,0,0,1-5.687-2.792Q147.945,30.786,147.945,25.813Zm5.362.382a7.969,7.969,0,0,0,.983,4.343,3.2,3.2,0,0,0,2.857,1.51,3.587,3.587,0,0,0,3.507-2.106V21.982a3.536,3.536,0,0,0-3.47-2.106Q153.307,19.876,153.307,26.2ZM191.752,27a9.56,9.56,0,0,1-3.219,6.865,11.306,11.306,0,0,1-7.654,2.5,10.166,10.166,0,0,1-8.173-3.5q-2.978-3.5-2.978-9.6V21.62a16.194,16.194,0,0,1,1.373-6.865,10.289,10.289,0,0,1,3.924-4.555,12.264,12.264,0,0,1,13.461.918,10.273,10.273,0,0,1,3.3,7.032h-5.566a5.642,5.642,0,0,0-1.457-3.794,5.394,5.394,0,0,0-3.813-1.178,4.73,4.73,0,0,0-4.166,1.995q-1.382,1.995-1.419,6.188V23.4q0,4.379,1.327,6.4a4.642,4.642,0,0,0,4.184,2.022,5.5,5.5,0,0,0,3.85-1.178A5.322,5.322,0,0,0,186.186,27Zm14.937,9a5.955,5.955,0,0,1-.538-1.8,6.488,6.488,0,0,1-5.065,2.171,7.128,7.128,0,0,1-4.889-1.707,5.49,5.49,0,0,1-1.939-4.3,5.673,5.673,0,0,1,2.366-4.9q2.366-1.707,6.837-1.726h2.468v-1.15a3.308,3.308,0,0,0-.714-2.227,2.81,2.81,0,0,0-2.254-.835,3.2,3.2,0,0,0-2.125.649,2.206,2.206,0,0,0-.77,1.781H194.7a5.386,5.386,0,0,1,1.076-3.229,7.114,7.114,0,0,1,3.043-2.329,11.09,11.09,0,0,1,4.416-.844,8.762,8.762,0,0,1,5.891,1.865,6.523,6.523,0,0,1,2.18,5.242v8.7a9.6,9.6,0,0,0,.8,4.323V36Zm-4.435-3.729a4.618,4.618,0,0,0,2.189-.529,3.473,3.473,0,0,0,1.484-1.419V26.871h-2q-4.026,0-4.286,2.783l-.019.315a2.147,2.147,0,0,0,.705,1.651A2.739,2.739,0,0,0,202.254,32.271ZM226.3,30.452a1.728,1.728,0,0,0-.974-1.549,11.065,11.065,0,0,0-3.126-1.011q-7.162-1.5-7.162-6.086a5.516,5.516,0,0,1,2.217-4.462,8.944,8.944,0,0,1,5.8-1.791,9.627,9.627,0,0,1,6.114,1.8,5.672,5.672,0,0,1,2.292,4.676H226.1a2.6,2.6,0,0,0-.742-1.9,3.141,3.141,0,0,0-2.319-.751,3.209,3.209,0,0,0-2.1.612,1.933,1.933,0,0,0-.742,1.559,1.652,1.652,0,0,0,.844,1.438,8.685,8.685,0,0,0,2.848.946,23.263,23.263,0,0,1,3.377.9q4.249,1.559,4.249,5.4a5.237,5.237,0,0,1-2.356,4.444,10.165,10.165,0,0,1-6.086,1.7,10.617,10.617,0,0,1-4.481-.9A7.518,7.518,0,0,1,215.521,33a5.734,5.734,0,0,1-1.113-3.386h5.084a2.8,2.8,0,0,0,1.058,2.189,4.2,4.2,0,0,0,2.635.761,3.883,3.883,0,0,0,2.329-.584A1.819,1.819,0,0,0,226.3,30.452Zm15.085-19.464v4.936h3.433v3.934h-3.433v10.02a2.392,2.392,0,0,0,.427,1.6,2.143,2.143,0,0,0,1.633.482,8.551,8.551,0,0,0,1.577-.13v4.063a11.039,11.039,0,0,1-3.247.482q-5.641,0-5.752-5.7V19.857h-2.932V15.924h2.932V10.988Z" transform="translate(208 5194)" fill="#fff"/>
  </g>
</svg>
