<svg xmlns="http://www.w3.org/2000/svg" width="361" height="333.221" viewBox="0 0 361 333.221">
  <g id="Grupo_1020317" data-name="Grupo 1020317" transform="translate(-619.5 -5103.001)">
    <path id="Trazado_622590" data-name="Trazado 622590" d="M36.151,17.708l69.577,1.61V99.272L27.717,56.862Z" transform="translate(662.501 5336.95)" fill="#ffb338"/>
    <path id="Trazado_622589" data-name="Trazado 622589" d="M0,0H147.161V56.772L0,14.7Z" transform="translate(837.336 5393.825) rotate(180)" fill="#cc8f2c"/>
    <path id="Trazado_622588" data-name="Trazado 622588" d="M7.044,18.779H214.3V98.734L7.044,39.476Z" transform="translate(623.038 5295.092)" fill="#ffb338"/>
    <path id="Trazado_749968" data-name="Trazado 749968" d="M10,0H351a10,10,0,0,1,10,10V223a10,10,0,0,1-10,10H10A10,10,0,0,1,0,223V10A10,10,0,0,1,10,0Z" transform="translate(619.5 5103.001)" fill="#cc8f2c"/>
    <path id="Trazado_749969" data-name="Trazado 749969" d="M111.559,31.528h13.619V36H104.6V32.734L117.96,13.493H104.62V8.984h20.262v3.191Zm15.549-5.752a11.906,11.906,0,0,1,1.15-5.325,8.421,8.421,0,0,1,3.312-3.618,9.663,9.663,0,0,1,5.019-1.28,9.142,9.142,0,0,1,6.633,2.486,9.979,9.979,0,0,1,2.867,6.754l.037,1.373a10.493,10.493,0,0,1-2.579,7.413,10,10,0,0,1-13.851.009,10.678,10.678,0,0,1-2.588-7.57Zm5.362.381a7.5,7.5,0,0,0,1.076,4.376,3.866,3.866,0,0,0,6.123.019,8.212,8.212,0,0,0,1.095-4.785,7.429,7.429,0,0,0-1.095-4.348,3.559,3.559,0,0,0-3.08-1.542,3.5,3.5,0,0,0-3.043,1.533A8.35,8.35,0,0,0,132.47,26.157Zm16.124-.381a11.906,11.906,0,0,1,1.15-5.325,8.421,8.421,0,0,1,3.312-3.618,9.663,9.663,0,0,1,5.019-1.28,9.142,9.142,0,0,1,6.633,2.486,9.979,9.979,0,0,1,2.867,6.754l.037,1.373a10.493,10.493,0,0,1-2.579,7.413,10,10,0,0,1-13.851.009,10.678,10.678,0,0,1-2.588-7.57Zm5.362.381a7.5,7.5,0,0,0,1.076,4.376,3.866,3.866,0,0,0,6.123.019,8.212,8.212,0,0,0,1.095-4.785,7.429,7.429,0,0,0-1.095-4.348,3.559,3.559,0,0,0-3.08-1.542,3.5,3.5,0,0,0-3.043,1.533A8.35,8.35,0,0,0,153.957,26.157Zm21.987-10.233.167,2.245a7.055,7.055,0,0,1,5.771-2.616q3.878,0,5.325,3.062a6.893,6.893,0,0,1,6.03-3.062,5.988,5.988,0,0,1,4.861,1.9q1.6,1.9,1.6,5.724V36h-5.381V23.168a3.838,3.838,0,0,0-.668-2.5,2.956,2.956,0,0,0-2.356-.79,3.347,3.347,0,0,0-3.34,2.306L187.967,36H182.6V23.186a3.791,3.791,0,0,0-.687-2.529,2.985,2.985,0,0,0-2.338-.781,3.474,3.474,0,0,0-3.3,1.9V36h-5.362V15.924Z" transform="translate(647.5 5194.001)" fill="#fff"/>
  </g>
</svg>
