<svg xmlns="http://www.w3.org/2000/svg" width="361" height="333.221" viewBox="0 0 361 333.221">
  <g id="Grupo_1020317" data-name="Grupo 1020317" transform="translate(-619.5 -4836)">
    <path id="Trazado_622590" data-name="Trazado 622590" d="M36.151,17.708l69.577,1.61V99.272L27.717,56.862Z" transform="translate(662.501 5069.949)" fill="#ffb338"/>
    <path id="Trazado_622589" data-name="Trazado 622589" d="M0,0H147.161V56.772L0,14.7Z" transform="translate(837.336 5126.824) rotate(180)" fill="#cc8f2c"/>
    <path id="Trazado_622588" data-name="Trazado 622588" d="M7.044,18.779H214.3V98.734L7.044,39.476Z" transform="translate(623.038 5028.091)" fill="#ffb338"/>
    <path id="Trazado_749967" data-name="Trazado 749967" d="M10,0H351a10,10,0,0,1,10,10V223a10,10,0,0,1-10,10H10A10,10,0,0,1,0,223V10A10,10,0,0,1,10,0Z" transform="translate(619.5 4836)" fill="#cc8f2c"/>
    <path id="Trazado_749968" data-name="Trazado 749968" d="M112.607,34.953l12.45.037L124.186,40H103.738l.649-3.711L119.955,18.05l-12.487-.037.891-5.028H128.75l-.631,3.618Zm25.643-15.4a8.431,8.431,0,0,1,4.657,1.345,7.578,7.578,0,0,1,2.885,3.646,11.251,11.251,0,0,1,.659,5.2l-.037.408a11.9,11.9,0,0,1-3.433,7.459,9.658,9.658,0,0,1-7.2,2.765,8.4,8.4,0,0,1-4.62-1.327,7.626,7.626,0,0,1-2.885-3.609,10.934,10.934,0,0,1-.677-5.158,12.377,12.377,0,0,1,3.386-7.867A9.6,9.6,0,0,1,138.25,19.553ZM133.7,30.286l-.056,1.093q-.26,4.131,2.523,4.2,3.6.111,4.175-5.835l.074-1.686A4.549,4.549,0,0,0,139.8,25.4a2.265,2.265,0,0,0-1.939-1.028,3.192,3.192,0,0,0-2.774,1.38A9.031,9.031,0,0,0,133.7,30.286Zm25.438-10.733A8.431,8.431,0,0,1,163.8,20.9a7.578,7.578,0,0,1,2.885,3.646,11.251,11.251,0,0,1,.659,5.2l-.037.408a11.9,11.9,0,0,1-3.433,7.459,9.658,9.658,0,0,1-7.2,2.765,8.4,8.4,0,0,1-4.62-1.327,7.626,7.626,0,0,1-2.885-3.609,10.934,10.934,0,0,1-.677-5.158,12.377,12.377,0,0,1,3.386-7.867A9.6,9.6,0,0,1,159.143,19.553ZM154.6,30.286l-.056,1.093q-.26,4.131,2.523,4.2,3.6.111,4.175-5.835l.074-1.686a4.549,4.549,0,0,0-.622-2.658,2.265,2.265,0,0,0-1.939-1.028,3.192,3.192,0,0,0-2.774,1.38A9.031,9.031,0,0,0,154.6,30.286ZM177.53,19.905l-.408,2.412a7.207,7.207,0,0,1,5.863-2.765,5.3,5.3,0,0,1,2.987.854,3.89,3.89,0,0,1,1.559,2.171,7.641,7.641,0,0,1,6.1-3.024,4.73,4.73,0,0,1,4.128,2.087,8.692,8.692,0,0,1,.974,5.724L196.642,40h-6.123l2.134-12.639.074-1.094q0-1.835-1.726-1.89A3.953,3.953,0,0,0,188,26.026L185.564,40h-6.123l2.115-12.6.074-1.112q0-1.909-1.726-1.909a3.926,3.926,0,0,0-2.969,1.649L174.469,40h-6.1l3.488-20.076Z" transform="translate(647.5 4927)" fill="#fff"/>
  </g>
</svg>
