<svg xmlns="http://www.w3.org/2000/svg" width="361" height="333.221" viewBox="0 0 361 333.221">
  <g id="Grupo_1020318" data-name="Grupo 1020318" transform="translate(-1059 -4836)">
    <path id="Trazado_622590" data-name="Trazado 622590" d="M36.151,17.708l69.577,1.61V99.272L27.717,56.862Z" transform="translate(1102.001 5069.949)" fill="#b1de19"/>
    <path id="Trazado_622589" data-name="Trazado 622589" d="M0,0H147.161V56.772L0,14.7Z" transform="translate(1276.836 5126.824) rotate(180)" fill="#8db114"/>
    <path id="Trazado_622588" data-name="Trazado 622588" d="M7.044,18.779H214.3V98.734L7.044,39.476Z" transform="translate(1062.538 5028.091)" fill="#b1de19"/>
    <path id="Trazado_749969" data-name="Trazado 749969" d="M10,0H351a10,10,0,0,1,10,10V223a10,10,0,0,1-10,10H10A10,10,0,0,1,0,223V10A10,10,0,0,1,10,0Z" transform="translate(1059 4836)" fill="#8db114"/>
    <path id="Trazado_749970" data-name="Trazado 749970" d="M73.5,34.99h11L83.634,40H66.286l4.676-27.016h6.364ZM92.615,40H86.492L89.98,19.924H96.1Zm-2.1-25.142a2.831,2.831,0,0,1,.956-2.264,3.431,3.431,0,0,1,2.4-.909,3.542,3.542,0,0,1,2.384.816,2.782,2.782,0,0,1,.993,2.134,2.837,2.837,0,0,1-.946,2.273,3.442,3.442,0,0,1-2.412.9A3.586,3.586,0,0,1,91.529,17,2.75,2.75,0,0,1,90.518,14.858Zm15.048,17.627,5.028-12.562h6.587L107.681,40h-6.216l-3.21-20.076h6.271ZM125.7,40.371a9.332,9.332,0,0,1-4.8-1.271,8.008,8.008,0,0,1-3.182-3.488,9.373,9.373,0,0,1-.854-4.926l.056-.52a12.306,12.306,0,0,1,3.442-7.839,9.521,9.521,0,0,1,7.208-2.774,7.764,7.764,0,0,1,4.416,1.31,7.321,7.321,0,0,1,2.69,3.512,10.757,10.757,0,0,1,.557,5.027l-.353,2.546H122.933a3.914,3.914,0,0,0,.891,2.561,3.271,3.271,0,0,0,2.486,1.039,6.318,6.318,0,0,0,4.769-2.041l2.561,3.386a7.554,7.554,0,0,1-3.164,2.526,11.111,11.111,0,0,1-4.444.953Zm1.484-15.994a3.14,3.14,0,0,0-2.254.812,6.816,6.816,0,0,0-1.661,2.843h6.1l.111-.535a4.072,4.072,0,0,0,.037-1.218A2.148,2.148,0,0,0,127.182,24.377ZM151.1,32.689q.408-2.1-2.264-3.247l-3.043-1.262q-6.4-2.876-6.086-7.83a6.912,6.912,0,0,1,1.559-4.036,9.257,9.257,0,0,1,3.952-2.755,14.543,14.543,0,0,1,5.511-.946,9.372,9.372,0,0,1,6.448,2.338,7.767,7.767,0,0,1,2.4,6.067H153.27a3.78,3.78,0,0,0-.659-2.5,2.853,2.853,0,0,0-2.347-.974,4.918,4.918,0,0,0-2.82.742,3.011,3.011,0,0,0-1.447,2.1q-.353,1.855,2.755,3.043a30.3,30.3,0,0,1,4.518,2.041q4.435,2.653,4.156,7.162a7.334,7.334,0,0,1-1.5,4.1,8.688,8.688,0,0,1-3.757,2.728,13.883,13.883,0,0,1-5.39.928,13.012,13.012,0,0,1-4.063-.687,8.941,8.941,0,0,1-3.21-1.893,8.222,8.222,0,0,1-2.6-6.587l6.364.019a4.357,4.357,0,0,0,.8,3.145,3.833,3.833,0,0,0,3.062,1.067,4.594,4.594,0,0,0,2.663-.733A3.043,3.043,0,0,0,151.1,32.689Zm19.594-17.757-.872,4.991h3.21l-.761,4.342h-3.21L167.5,33.487a2.458,2.458,0,0,0,.121,1.429q.25.482,1.252.52a14.509,14.509,0,0,0,1.6-.093l-.445,4.527a9.865,9.865,0,0,1-3.284.464,5.41,5.41,0,0,1-4.249-1.67,5.7,5.7,0,0,1-1.15-4.435l1.633-9.964h-2.486l.742-4.342h2.486l.872-4.991Zm12.543,4.62a8.431,8.431,0,0,1,4.657,1.345,7.578,7.578,0,0,1,2.885,3.646,11.251,11.251,0,0,1,.659,5.2l-.037.408a11.9,11.9,0,0,1-3.433,7.459,9.658,9.658,0,0,1-7.2,2.765,8.4,8.4,0,0,1-4.62-1.327,7.626,7.626,0,0,1-2.885-3.609,10.934,10.934,0,0,1-.677-5.158,12.377,12.377,0,0,1,3.386-7.867A9.6,9.6,0,0,1,183.236,19.553ZM178.69,30.286l-.056,1.093q-.26,4.131,2.523,4.2,3.6.111,4.175-5.835l.074-1.686a4.549,4.549,0,0,0-.622-2.658,2.265,2.265,0,0,0-1.939-1.028,3.192,3.192,0,0,0-2.774,1.38A9.031,9.031,0,0,0,178.69,30.286Zm28.222-4.7a17.465,17.465,0,0,0-1.893-.186,4.713,4.713,0,0,0-4.193,1.893L198.562,40h-6.1l3.488-20.076,5.7-.019-.464,2.635q1.967-3.043,4.639-3.043a8.748,8.748,0,0,1,1.893.26Zm8.869-5.678-.408,2.412a7.207,7.207,0,0,1,5.863-2.765,5.3,5.3,0,0,1,2.987.854,3.89,3.89,0,0,1,1.559,2.171,7.641,7.641,0,0,1,6.1-3.024,4.73,4.73,0,0,1,4.128,2.087,8.692,8.692,0,0,1,.974,5.724L234.892,40h-6.123L230.9,27.361l.074-1.094q0-1.835-1.726-1.89a3.953,3.953,0,0,0-3.006,1.649L223.815,40h-6.123l2.115-12.6.074-1.112q0-1.909-1.726-1.909a3.926,3.926,0,0,0-2.969,1.649L212.719,40h-6.1L210.1,19.924Z" transform="translate(1087 4927)" fill="#fff"/>
  </g>
</svg>
