<svg xmlns="http://www.w3.org/2000/svg" width="361" height="333.221" viewBox="0 0 361 333.221">
  <g id="Grupo_1020318" data-name="Grupo 1020318" transform="translate(-1059 -5103)">
    <path id="Trazado_622590" data-name="Trazado 622590" d="M36.151,17.708l69.577,1.61V99.272L27.717,56.862Z" transform="translate(1102.001 5336.949)" fill="#b1de19"/>
    <path id="Trazado_622589" data-name="Trazado 622589" d="M0,0H147.161V56.772L0,14.7Z" transform="translate(1276.836 5393.824) rotate(180)" fill="#8db114"/>
    <path id="Trazado_622588" data-name="Trazado 622588" d="M7.044,18.779H214.3V98.734L7.044,39.476Z" transform="translate(1062.538 5295.091)" fill="#b1de19"/>
    <path id="Trazado_749970" data-name="Trazado 749970" d="M10,0H351a10,10,0,0,1,10,10V223a10,10,0,0,1-10,10H10A10,10,0,0,1,0,223V10A10,10,0,0,1,10,0Z" transform="translate(1059 5103)" fill="#8db114"/>
    <path id="Trazado_749971" data-name="Trazado 749971" d="M73.457,31.528H85.276V36H67.891V8.984h5.566ZM93.774,36H88.394V15.924h5.381Zm-5.7-25.271a2.641,2.641,0,0,1,.807-1.985,3.478,3.478,0,0,1,4.388,0,2.625,2.625,0,0,1,.816,1.985,2.633,2.633,0,0,1-.826,2,3.439,3.439,0,0,1-4.36,0A2.633,2.633,0,0,1,88.078,10.729ZM105.705,29.45l3.729-13.526h5.6L108.266,36h-5.121L96.372,15.924h5.6Zm20.688,6.921a9.856,9.856,0,0,1-7.19-2.709,9.629,9.629,0,0,1-2.774-7.218v-.52a12.128,12.128,0,0,1,1.169-5.409,8.579,8.579,0,0,1,3.312-3.674,9.3,9.3,0,0,1,4.889-1.29,8.332,8.332,0,0,1,6.485,2.6q2.366,2.6,2.366,7.366v2.189H121.866a4.981,4.981,0,0,0,1.568,3.154,4.74,4.74,0,0,0,3.312,1.188,5.788,5.788,0,0,0,4.843-2.245l2.635,2.95a8.05,8.05,0,0,1-3.266,2.663A10.714,10.714,0,0,1,126.394,36.371Zm-.612-16.5a3.351,3.351,0,0,0-2.588,1.081,5.6,5.6,0,0,0-1.271,3.094h7.459v-.429a3.992,3.992,0,0,0-.965-2.768A3.457,3.457,0,0,0,125.781,19.876Zm26.273,9.036a2.856,2.856,0,0,0-1.113-2.421,14.6,14.6,0,0,0-4.008-1.781,28.411,28.411,0,0,1-4.583-1.846q-4.6-2.486-4.6-6.7a6.524,6.524,0,0,1,1.234-3.906,8.049,8.049,0,0,1,3.544-2.681,13.339,13.339,0,0,1,5.186-.965,12.141,12.141,0,0,1,5.158,1.048,8.213,8.213,0,0,1,3.516,2.959,7.744,7.744,0,0,1,1.252,4.342h-5.566a3.643,3.643,0,0,0-1.169-2.885,4.805,4.805,0,0,0-3.284-1.03,5.134,5.134,0,0,0-3.173.863,2.721,2.721,0,0,0-1.132,2.273,2.606,2.606,0,0,0,1.327,2.208,14.988,14.988,0,0,0,3.906,1.67,16.876,16.876,0,0,1,6.921,3.544,7.058,7.058,0,0,1,2.171,5.27,6.5,6.5,0,0,1-2.653,5.5,11.616,11.616,0,0,1-7.144,1.995,13.794,13.794,0,0,1-5.678-1.141,8.984,8.984,0,0,1-3.906-3.126,8.007,8.007,0,0,1-1.345-4.6H142.5q0,4.472,5.344,4.472a5.2,5.2,0,0,0,3.1-.807A2.626,2.626,0,0,0,152.055,28.912Zm15.419-17.924v4.936h3.433v3.934h-3.433v10.02a2.392,2.392,0,0,0,.427,1.6,2.143,2.143,0,0,0,1.633.482,8.551,8.551,0,0,0,1.577-.13v4.063a11.039,11.039,0,0,1-3.247.482q-5.641,0-5.752-5.7V19.857H159.18V15.924h2.932V10.988ZM172.5,25.776a11.906,11.906,0,0,1,1.15-5.325,8.421,8.421,0,0,1,3.312-3.618,9.663,9.663,0,0,1,5.019-1.28,9.142,9.142,0,0,1,6.633,2.486,9.979,9.979,0,0,1,2.867,6.754l.037,1.373a10.493,10.493,0,0,1-2.579,7.413,10,10,0,0,1-13.851.009,10.678,10.678,0,0,1-2.588-7.57Zm5.362.381a7.5,7.5,0,0,0,1.076,4.376,3.866,3.866,0,0,0,6.123.019,8.212,8.212,0,0,0,1.095-4.785,7.429,7.429,0,0,0-1.095-4.348,3.559,3.559,0,0,0-3.08-1.542,3.5,3.5,0,0,0-3.043,1.533A8.35,8.35,0,0,0,177.864,26.157Zm28.24-5.2a14.568,14.568,0,0,0-1.93-.148q-3.043,0-3.989,2.06V36h-5.362V15.924h5.065l.148,2.394a4.969,4.969,0,0,1,4.472-2.765,5.619,5.619,0,0,1,1.67.241Zm7.607-5.028.167,2.245a7.055,7.055,0,0,1,5.771-2.616q3.878,0,5.325,3.062A6.893,6.893,0,0,1,231,15.553a5.988,5.988,0,0,1,4.861,1.9q1.6,1.9,1.6,5.724V36h-5.381V23.168a3.838,3.838,0,0,0-.668-2.5,2.956,2.956,0,0,0-2.356-.79,3.347,3.347,0,0,0-3.34,2.306L225.735,36h-5.362V23.186a3.791,3.791,0,0,0-.687-2.529,2.985,2.985,0,0,0-2.338-.781,3.474,3.474,0,0,0-3.3,1.9V36h-5.362V15.924Z" transform="translate(1087 5194)" fill="#fff"/>
  </g>
</svg>
