<svg xmlns="http://www.w3.org/2000/svg" width="361" height="333.221" viewBox="0 0 361 333.221">
  <g id="Grupo_1020319" data-name="Grupo 1020319" transform="translate(-180 -5205.221)">
    <path id="Trazado_622590" data-name="Trazado 622590" d="M36.151,17.708l69.577,1.61V99.272L27.717,56.862Z" transform="translate(223.001 5439.169)" fill="#8db114"/>
    <path id="Trazado_622589" data-name="Trazado 622589" d="M0,0H147.161V56.772L0,14.7Z" transform="translate(397.836 5496.045) rotate(180)" fill="#6a850f"/>
    <path id="Trazado_622588" data-name="Trazado 622588" d="M7.044,18.779H214.3V98.734L7.044,39.476Z" transform="translate(183.538 5397.312)" fill="#8db114"/>
    <path id="Trazado_749971" data-name="Trazado 749971" d="M10,0H351a10,10,0,0,1,10,10V223a10,10,0,0,1-10,10H10A10,10,0,0,1,0,223V10A10,10,0,0,1,10,0Z" transform="translate(180 5205.221)" fill="#6a850f"/>
    <path id="Trazado_749972" data-name="Trazado 749972" d="M67.789,36.679a9.727,9.727,0,0,1-4.435,2.755,19.3,19.3,0,0,1-6.457.918,9.8,9.8,0,0,1-5.733-1.707,9.087,9.087,0,0,1-3.34-4.657,15.158,15.158,0,0,1-.538-6.735l.148-1.113a17.147,17.147,0,0,1,4.425-9.964,11.426,11.426,0,0,1,8.749-3.581q4.527.074,6.958,2.431a9.969,9.969,0,0,1,2.709,6.81l-6.086-.019a4.957,4.957,0,0,0-1.067-3.159A3.646,3.646,0,0,0,60.459,17.6a4.931,4.931,0,0,0-4.23,2.011,12.771,12.771,0,0,0-2.282,6.015,23.7,23.7,0,0,0-.371,5.19q.278,4.467,4.026,4.523a6.808,6.808,0,0,0,3.971-1.095l.835-4.212h-4.4l.779-4.472H69.533ZM82.131,19.553A8.431,8.431,0,0,1,86.789,20.9a7.578,7.578,0,0,1,2.885,3.646,11.251,11.251,0,0,1,.659,5.2l-.037.408a11.9,11.9,0,0,1-3.433,7.459,9.658,9.658,0,0,1-7.2,2.765,8.4,8.4,0,0,1-4.62-1.327,7.626,7.626,0,0,1-2.885-3.609,10.934,10.934,0,0,1-.677-5.158,12.377,12.377,0,0,1,3.386-7.867A9.6,9.6,0,0,1,82.131,19.553ZM77.585,30.286l-.056,1.093q-.26,4.131,2.523,4.2,3.6.111,4.175-5.835l.074-1.686a4.549,4.549,0,0,0-.622-2.658,2.265,2.265,0,0,0-1.939-1.028,3.192,3.192,0,0,0-2.774,1.38A9.031,9.031,0,0,0,77.585,30.286Zm25.438-10.733a8.431,8.431,0,0,1,4.657,1.345,7.578,7.578,0,0,1,2.885,3.646,11.251,11.251,0,0,1,.659,5.2l-.037.408a11.9,11.9,0,0,1-3.433,7.459,9.658,9.658,0,0,1-7.2,2.765,8.4,8.4,0,0,1-4.62-1.327,7.626,7.626,0,0,1-2.885-3.609,10.934,10.934,0,0,1-.677-5.158A12.377,12.377,0,0,1,95.76,22.41,9.6,9.6,0,0,1,103.024,19.553ZM98.478,30.286l-.056,1.093q-.26,4.131,2.523,4.2,3.6.111,4.175-5.835l.074-1.686a4.549,4.549,0,0,0-.622-2.658,2.265,2.265,0,0,0-1.939-1.028,3.192,3.192,0,0,0-2.774,1.38A9.031,9.031,0,0,0,98.478,30.286Zm14.77-.361a15.254,15.254,0,0,1,1.661-5.474,9.636,9.636,0,0,1,3.275-3.7,7.886,7.886,0,0,1,4.453-1.215,5.482,5.482,0,0,1,4.564,2.171l.649-1.8,5.641.019-3.284,19.3a9.431,9.431,0,0,1-3.581,6.438,11.4,11.4,0,0,1-7.533,2.245,10.756,10.756,0,0,1-3.878-.8,8.355,8.355,0,0,1-3.21-2.3l2.895-3.6a5.255,5.255,0,0,0,4.193,2.1q4.063.074,5.158-4.323l.148-.612a6.277,6.277,0,0,1-4.583,2,6.19,6.19,0,0,1-3.4-.974,6.4,6.4,0,0,1-2.3-2.755,10.716,10.716,0,0,1-.946-4.008A17.424,17.424,0,0,1,113.248,29.925Zm6.03,1.985a4.868,4.868,0,0,0,.612,2.653,2.077,2.077,0,0,0,1.781.983,4.08,4.08,0,0,0,3.136-1.336l1.577-8.517a2.7,2.7,0,0,0-2.486-1.336,3.553,3.553,0,0,0-2.987,1.512,8.152,8.152,0,0,0-1.521,4.073Q119.278,31.112,119.278,31.91ZM140.041,40h-6.123l4.936-28.5h6.123Zm13.86.371a9.332,9.332,0,0,1-4.8-1.271,8.008,8.008,0,0,1-3.182-3.488,9.373,9.373,0,0,1-.854-4.926l.056-.52a12.306,12.306,0,0,1,3.442-7.839,9.521,9.521,0,0,1,7.208-2.774,7.764,7.764,0,0,1,4.416,1.31,7.321,7.321,0,0,1,2.69,3.512,10.757,10.757,0,0,1,.557,5.027l-.353,2.546H151.136a3.914,3.914,0,0,0,.891,2.561,3.271,3.271,0,0,0,2.486,1.039,6.318,6.318,0,0,0,4.769-2.041l2.561,3.386a7.554,7.554,0,0,1-3.164,2.526,11.111,11.111,0,0,1-4.444.953Zm1.484-15.994a3.14,3.14,0,0,0-2.254.812,6.816,6.816,0,0,0-1.661,2.843h6.1l.111-.535a4.072,4.072,0,0,0,.037-1.218A2.148,2.148,0,0,0,155.385,24.377Zm31.357-11.393,2.579,18.74,9.055-18.74h8.461L202.162,40h-6.383l1.15-6.624,2.746-12.209L190.212,40H186l-3.062-19.538-1.707,13.545L180.174,40h-6.346L178.5,12.984Zm29.279,27.387a9.332,9.332,0,0,1-4.8-1.271,8.008,8.008,0,0,1-3.182-3.488,9.373,9.373,0,0,1-.854-4.926l.056-.52a12.306,12.306,0,0,1,3.442-7.839,9.521,9.521,0,0,1,7.208-2.774,7.764,7.764,0,0,1,4.416,1.31A7.321,7.321,0,0,1,225,24.375a10.757,10.757,0,0,1,.557,5.027l-.353,2.546H213.257a3.914,3.914,0,0,0,.891,2.561,3.271,3.271,0,0,0,2.486,1.039,6.318,6.318,0,0,0,4.769-2.041l2.561,3.386a7.554,7.554,0,0,1-3.164,2.526,11.111,11.111,0,0,1-4.444.953Zm1.484-15.994a3.14,3.14,0,0,0-2.254.812,6.816,6.816,0,0,0-1.661,2.843h6.1l.111-.535a4.072,4.072,0,0,0,.037-1.218A2.148,2.148,0,0,0,217.506,24.377Zm18.777,15.994a9.332,9.332,0,0,1-4.8-1.271,8.008,8.008,0,0,1-3.182-3.488,9.373,9.373,0,0,1-.854-4.926l.056-.52a12.306,12.306,0,0,1,3.442-7.839,9.521,9.521,0,0,1,7.208-2.774,7.764,7.764,0,0,1,4.416,1.31,7.321,7.321,0,0,1,2.69,3.512,10.757,10.757,0,0,1,.557,5.027l-.353,2.546H233.519a3.914,3.914,0,0,0,.891,2.561,3.271,3.271,0,0,0,2.486,1.039,6.318,6.318,0,0,0,4.769-2.041l2.561,3.386a7.554,7.554,0,0,1-3.164,2.526,11.111,11.111,0,0,1-4.444.953Zm1.484-15.994a3.14,3.14,0,0,0-2.254.812,6.816,6.816,0,0,0-1.661,2.843h6.1l.111-.535a4.072,4.072,0,0,0,.037-1.218A2.148,2.148,0,0,0,237.768,24.377Zm20.243-9.444-.872,4.991h3.21l-.761,4.342h-3.21l-1.559,9.222a2.458,2.458,0,0,0,.121,1.429q.25.482,1.252.52a14.509,14.509,0,0,0,1.6-.093l-.445,4.527a9.866,9.866,0,0,1-3.284.464,5.41,5.41,0,0,1-4.249-1.67,5.7,5.7,0,0,1-1.15-4.435l1.633-9.964h-2.486l.742-4.342h2.486l.872-4.991Z" transform="translate(208 5296.221)" fill="#fff"/>
  </g>
</svg>
