<svg xmlns="http://www.w3.org/2000/svg" width="361" height="333.221" viewBox="0 0 361 333.221">
  <g id="Grupo_1020320" data-name="Grupo 1020320" transform="translate(-619.5 -5205.221)">
    <path id="Trazado_622590" data-name="Trazado 622590" d="M36.151,17.708l69.577,1.61V99.272L27.717,56.862Z" transform="translate(662.501 5439.169)" fill="#eb6f2d"/>
    <path id="Trazado_622589" data-name="Trazado 622589" d="M0,0H147.161V56.772L0,14.7Z" transform="translate(837.336 5496.045) rotate(180)" fill="#bc5824"/>
    <path id="Trazado_622588" data-name="Trazado 622588" d="M7.044,18.779H214.3V98.734L7.044,39.476Z" transform="translate(623.038 5397.312)" fill="#eb6f2d"/>
    <path id="Trazado_622591" data-name="Trazado 622591" d="M10,0H351a10,10,0,0,1,10,10V223a10,10,0,0,1-10,10H10A10,10,0,0,1,0,223V10A10,10,0,0,1,10,0Z" transform="translate(619.5 5205.221)" fill="#bc5824"/>
    <path id="Trazado_749973" data-name="Trazado 749973" d="M22.673,12.984l2.579,18.74,9.055-18.74h8.461L38.092,40H31.709l1.15-6.624,2.746-12.209L26.143,40H21.931L18.869,20.462,17.162,34.007,16.1,40H9.759l4.676-27.016ZM48.408,40H42.285l3.488-20.076H51.9Zm-2.1-25.142a2.831,2.831,0,0,1,.956-2.264,3.431,3.431,0,0,1,2.4-.909,3.542,3.542,0,0,1,2.384.816,2.782,2.782,0,0,1,.993,2.134,2.837,2.837,0,0,1-.946,2.273,3.442,3.442,0,0,1-2.412.9A3.586,3.586,0,0,1,47.323,17,2.75,2.75,0,0,1,46.312,14.858ZM61.582,35.547a2.626,2.626,0,0,0,2.06-.728,3.624,3.624,0,0,0,.946-1.981l5.715-.019a7.513,7.513,0,0,1-1.308,3.952,7.905,7.905,0,0,1-3.229,2.7,9.544,9.544,0,0,1-4.351.9,7.537,7.537,0,0,1-6.179-2.885,9.978,9.978,0,0,1-1.763-7.264l.056-.445a13.45,13.45,0,0,1,1.707-5.39,9.765,9.765,0,0,1,3.609-3.627,9.36,9.36,0,0,1,5-1.206,7.465,7.465,0,0,1,5.539,2.236,7.928,7.928,0,0,1,1.958,5.835l-5.715-.019q.093-3.173-2.282-3.229-3.229-.111-3.711,5.419l-.167,1.886-.019.7Q59.448,35.492,61.582,35.547Zm24.529-9.964a17.465,17.465,0,0,0-1.893-.186,4.713,4.713,0,0,0-4.193,1.893L77.762,40h-6.1l3.488-20.076,5.7-.019-.464,2.635Q82.345,19.5,85.017,19.5a8.748,8.748,0,0,1,1.893.26Zm10.706-6.03a8.431,8.431,0,0,1,4.657,1.345,7.578,7.578,0,0,1,2.885,3.646,11.251,11.251,0,0,1,.659,5.2l-.037.408a11.9,11.9,0,0,1-3.433,7.459,9.658,9.658,0,0,1-7.2,2.765,8.4,8.4,0,0,1-4.62-1.327,7.626,7.626,0,0,1-2.885-3.609,10.934,10.934,0,0,1-.677-5.158,12.377,12.377,0,0,1,3.386-7.867A9.6,9.6,0,0,1,96.817,19.553ZM92.271,30.286l-.056,1.093q-.26,4.131,2.523,4.2,3.6.111,4.175-5.835l.074-1.686a4.549,4.549,0,0,0-.622-2.658,2.265,2.265,0,0,0-1.939-1.028,3.192,3.192,0,0,0-2.774,1.38A9.031,9.031,0,0,0,92.271,30.286Zm25.049,3.962q.241-1.225-1.893-1.837l-1.317-.334a10.145,10.145,0,0,1-4.731-2.394,4.738,4.738,0,0,1-1.41-3.655,5.823,5.823,0,0,1,2.57-4.7,9.78,9.78,0,0,1,6.04-1.772,9.06,9.06,0,0,1,5.743,1.8,5.871,5.871,0,0,1,2.236,4.75l-6.086-.019q.074-2.375-2.1-2.375a2.991,2.991,0,0,0-1.726.547,2.126,2.126,0,0,0-.946,1.457q-.315,1.5,2.653,2.06a15.42,15.42,0,0,1,3.989,1.419,5.956,5.956,0,0,1,2.152,1.995,4.96,4.96,0,0,1,.687,2.857A5.365,5.365,0,0,1,122,37.291a7.689,7.689,0,0,1-3.275,2.282,11.731,11.731,0,0,1-4.648.8,9.434,9.434,0,0,1-4.036-.909,7.2,7.2,0,0,1-2.913-2.421,6.289,6.289,0,0,1-1.085-3.516l5.678.037a2.345,2.345,0,0,0,2.672,2.635,3.507,3.507,0,0,0,1.93-.51A2.207,2.207,0,0,0,117.32,34.248Zm19.464-14.7a8.431,8.431,0,0,1,4.657,1.345,7.578,7.578,0,0,1,2.885,3.646,11.251,11.251,0,0,1,.659,5.2l-.037.408a11.9,11.9,0,0,1-3.433,7.459,9.658,9.658,0,0,1-7.2,2.765,8.4,8.4,0,0,1-4.62-1.327,7.626,7.626,0,0,1-2.885-3.609,10.934,10.934,0,0,1-.677-5.158,12.377,12.377,0,0,1,3.386-7.867A9.6,9.6,0,0,1,136.784,19.553Zm-4.546,10.733-.056,1.093q-.26,4.131,2.523,4.2,3.6.111,4.175-5.835l.074-1.686a4.549,4.549,0,0,0-.622-2.658,2.265,2.265,0,0,0-1.939-1.028,3.192,3.192,0,0,0-2.774,1.38A9.031,9.031,0,0,0,132.238,30.286ZM147.3,40l2.728-15.734h-2.82l.742-4.342,2.82-.019.241-1.763a8.193,8.193,0,0,1,2.561-5.1,8.311,8.311,0,0,1,5.845-1.967,18,18,0,0,1,3.024.41l-.464,4.637a5.9,5.9,0,0,0-1.447-.223,3.8,3.8,0,0,0-2.236.619,2.768,2.768,0,0,0-1.123,1.782l-.278,1.625h3.8l-.742,4.342h-3.8L153.428,40Zm23.657-25.067-.872,4.991h3.21l-.761,4.342h-3.21l-1.559,9.222a2.458,2.458,0,0,0,.121,1.429q.25.482,1.252.52a14.509,14.509,0,0,0,1.6-.093l-.445,4.527a9.865,9.865,0,0,1-3.284.464,5.41,5.41,0,0,1-4.249-1.67,5.7,5.7,0,0,1-1.15-4.435l1.633-9.964h-2.486l.742-4.342h2.486l.872-4.991Zm34.345,3.08h-7.867L193.636,40h-6.364l3.822-21.987h-7.737l.891-5.028h21.932Zm8.7,22.358a9.332,9.332,0,0,1-4.8-1.271,8.008,8.008,0,0,1-3.182-3.488,9.373,9.373,0,0,1-.854-4.926l.056-.52a12.306,12.306,0,0,1,3.442-7.839,9.521,9.521,0,0,1,7.208-2.774,7.764,7.764,0,0,1,4.416,1.31,7.321,7.321,0,0,1,2.69,3.512,10.757,10.757,0,0,1,.557,5.027l-.353,2.546H211.244a3.914,3.914,0,0,0,.891,2.561,3.271,3.271,0,0,0,2.486,1.039,6.318,6.318,0,0,0,4.769-2.041l2.561,3.386a7.554,7.554,0,0,1-3.164,2.526,11.111,11.111,0,0,1-4.444.953Zm1.484-15.994a3.14,3.14,0,0,0-2.254.812,6.816,6.816,0,0,0-1.661,2.843h6.1l.111-.535a4.072,4.072,0,0,0,.037-1.218A2.148,2.148,0,0,0,215.493,24.377ZM235.606,40a5.444,5.444,0,0,1-.26-1.818,6.193,6.193,0,0,1-4.917,2.189,6.05,6.05,0,0,1-4.342-1.744,5.243,5.243,0,0,1-1.614-4.138A5.889,5.889,0,0,1,227.2,29.47a12.859,12.859,0,0,1,7.2-1.753l2.041.037.223-1.132.074-.983a1.594,1.594,0,0,0-1.688-1.744,2.346,2.346,0,0,0-2.468,2.208l-6.123.019a5.815,5.815,0,0,1,1.317-3.516,7.808,7.808,0,0,1,3.331-2.3,11.637,11.637,0,0,1,4.481-.751,8.974,8.974,0,0,1,4,.956,5.953,5.953,0,0,1,2.57,2.5,6.4,6.4,0,0,1,.649,3.7l-1.5,9.444-.093,1.15a5.071,5.071,0,0,0,.353,2.338l-.019.353Zm-3.488-4.045A3.937,3.937,0,0,0,235.4,34.3l.612-3.229-1.577-.019a4.157,4.157,0,0,0-2.523.863,3.272,3.272,0,0,0-1.243,2.254,1.643,1.643,0,0,0,.288,1.252A1.469,1.469,0,0,0,232.118,35.955Zm21.115-16.05-.408,2.412a7.207,7.207,0,0,1,5.863-2.765,5.3,5.3,0,0,1,2.987.854,3.89,3.89,0,0,1,1.559,2.171,7.641,7.641,0,0,1,6.1-3.024,4.73,4.73,0,0,1,4.128,2.087,8.692,8.692,0,0,1,.974,5.724L272.345,40h-6.123l2.134-12.639.074-1.094q0-1.835-1.726-1.89a3.953,3.953,0,0,0-3.006,1.649L261.268,40h-6.123l2.115-12.6.074-1.112q0-1.909-1.726-1.909a3.926,3.926,0,0,0-2.969,1.649L250.172,40h-6.1l3.488-20.076Zm34.048,14.343q.241-1.225-1.893-1.837l-1.317-.334a10.145,10.145,0,0,1-4.731-2.394,4.738,4.738,0,0,1-1.41-3.655,5.823,5.823,0,0,1,2.57-4.7,9.78,9.78,0,0,1,6.04-1.772,9.06,9.06,0,0,1,5.743,1.8,5.871,5.871,0,0,1,2.236,4.75l-6.086-.019q.074-2.375-2.1-2.375a2.991,2.991,0,0,0-1.726.547,2.126,2.126,0,0,0-.946,1.457q-.315,1.5,2.653,2.06a15.42,15.42,0,0,1,3.989,1.419,5.956,5.956,0,0,1,2.152,1.995,4.961,4.961,0,0,1,.687,2.857,5.365,5.365,0,0,1-1.187,3.247,7.689,7.689,0,0,1-3.275,2.282,11.731,11.731,0,0,1-4.648.8A9.434,9.434,0,0,1,280,39.462a7.2,7.2,0,0,1-2.913-2.421A6.289,6.289,0,0,1,276,33.524l5.678.037A2.345,2.345,0,0,0,284.35,36.2a3.507,3.507,0,0,0,1.93-.51A2.207,2.207,0,0,0,287.281,34.248Z" transform="translate(647.5 5296.221)" fill="#fff"/>
  </g>
</svg>
