<svg xmlns="http://www.w3.org/2000/svg" width="361" height="333.221" viewBox="0 0 361 333.221">
  <g id="Grupo_1020321" data-name="Grupo 1020321" transform="translate(-1059 -5472.221)">
    <path id="Trazado_622590" data-name="Trazado 622590" d="M36.151,17.708l69.577,1.61V99.272L27.717,56.862Z" transform="translate(1102.001 5706.169)" fill="#a6d3ff"/>
    <path id="Trazado_622589" data-name="Trazado 622589" d="M0,0H147.161V56.772L0,14.7Z" transform="translate(1276.836 5763.045) rotate(180)" fill="#0082ff"/>
    <path id="Trazado_622588" data-name="Trazado 622588" d="M7.044,18.779H214.3V98.734L7.044,39.476Z" transform="translate(1062.538 5664.312)" fill="#a6d3ff"/>
    <path id="Trazado_749975" data-name="Trazado 749975" d="M10,0H351a10,10,0,0,1,10,10V223a10,10,0,0,1-10,10H10A10,10,0,0,1,0,223V10A10,10,0,0,1,10,0Z" transform="translate(1059 5472.221)" fill="#0082ff"/>
    <path id="Trazado_749976" data-name="Trazado 749976" d="M63.623,28.912a2.856,2.856,0,0,0-1.113-2.421A14.6,14.6,0,0,0,58.5,24.709a28.411,28.411,0,0,1-4.583-1.846q-4.6-2.486-4.6-6.7a6.524,6.524,0,0,1,1.234-3.906A8.049,8.049,0,0,1,54.1,9.578a13.339,13.339,0,0,1,5.186-.965,12.141,12.141,0,0,1,5.158,1.048,8.213,8.213,0,0,1,3.516,2.959,7.744,7.744,0,0,1,1.252,4.342H63.642a3.643,3.643,0,0,0-1.169-2.885,4.805,4.805,0,0,0-3.284-1.03,5.134,5.134,0,0,0-3.173.863,2.721,2.721,0,0,0-1.132,2.273,2.606,2.606,0,0,0,1.327,2.208,14.988,14.988,0,0,0,3.906,1.67,16.876,16.876,0,0,1,6.921,3.544,7.058,7.058,0,0,1,2.171,5.27,6.5,6.5,0,0,1-2.653,5.5,11.616,11.616,0,0,1-7.144,1.995,13.794,13.794,0,0,1-5.678-1.141A8.984,8.984,0,0,1,49.828,32.1a8.007,8.007,0,0,1-1.345-4.6h5.585q0,4.472,5.344,4.472a5.2,5.2,0,0,0,3.1-.807A2.626,2.626,0,0,0,63.623,28.912ZM79.042,10.988v4.936h3.433v3.934H79.042v10.02a2.392,2.392,0,0,0,.427,1.6,2.143,2.143,0,0,0,1.633.482,8.551,8.551,0,0,0,1.577-.13v4.063a11.039,11.039,0,0,1-3.247.482q-5.641,0-5.752-5.7V19.857H70.748V15.924H73.68V10.988Zm17.7,9.964a14.568,14.568,0,0,0-1.93-.148q-3.043,0-3.989,2.06V36H85.462V15.924h5.065l.148,2.394a4.969,4.969,0,0,1,4.472-2.765,5.619,5.619,0,0,1,1.67.241ZM108.21,36.371a9.856,9.856,0,0,1-7.19-2.709,9.629,9.629,0,0,1-2.774-7.218v-.52a12.128,12.128,0,0,1,1.169-5.409,8.579,8.579,0,0,1,3.312-3.674,9.3,9.3,0,0,1,4.889-1.29,8.332,8.332,0,0,1,6.485,2.6q2.366,2.6,2.366,7.366v2.189H103.683a4.981,4.981,0,0,0,1.568,3.154,4.74,4.74,0,0,0,3.312,1.188,5.788,5.788,0,0,0,4.843-2.245l2.635,2.95a8.05,8.05,0,0,1-3.266,2.663A10.714,10.714,0,0,1,108.21,36.371Zm-.612-16.5a3.351,3.351,0,0,0-2.588,1.081,5.6,5.6,0,0,0-1.271,3.094H111.2v-.429a3.992,3.992,0,0,0-.965-2.768A3.457,3.457,0,0,0,107.6,19.876ZM131.144,36a5.955,5.955,0,0,1-.538-1.8,6.488,6.488,0,0,1-5.065,2.171,7.128,7.128,0,0,1-4.889-1.707,5.49,5.49,0,0,1-1.939-4.3,5.673,5.673,0,0,1,2.366-4.9q2.366-1.707,6.837-1.726h2.468v-1.15a3.308,3.308,0,0,0-.714-2.227,2.81,2.81,0,0,0-2.254-.835,3.2,3.2,0,0,0-2.125.649,2.206,2.206,0,0,0-.77,1.781h-5.362a5.387,5.387,0,0,1,1.076-3.229,7.114,7.114,0,0,1,3.043-2.329,11.09,11.09,0,0,1,4.416-.844,8.762,8.762,0,0,1,5.891,1.865,6.523,6.523,0,0,1,2.18,5.242v8.7a9.6,9.6,0,0,0,.8,4.323V36Zm-4.435-3.729a4.618,4.618,0,0,0,2.189-.529,3.473,3.473,0,0,0,1.484-1.419V26.871h-2q-4.026,0-4.286,2.783l-.019.315a2.147,2.147,0,0,0,.705,1.651A2.739,2.739,0,0,0,126.709,32.271Zm18.2-16.347.167,2.245a7.055,7.055,0,0,1,5.771-2.616q3.878,0,5.325,3.062a6.893,6.893,0,0,1,6.03-3.062,5.988,5.988,0,0,1,4.861,1.9q1.6,1.9,1.6,5.724V36H163.28V23.168a3.838,3.838,0,0,0-.668-2.5,2.956,2.956,0,0,0-2.356-.79,3.347,3.347,0,0,0-3.34,2.306L156.935,36h-5.362V23.186a3.791,3.791,0,0,0-.687-2.529,2.985,2.985,0,0,0-2.338-.781,3.474,3.474,0,0,0-3.3,1.9V36h-5.362V15.924Zm47,5.232,5.622-12.172h6.086L194.749,26.2V36H189.09V26.2L180.221,8.984h6.1ZM216.2,36a5.955,5.955,0,0,1-.538-1.8,6.488,6.488,0,0,1-5.065,2.171,7.128,7.128,0,0,1-4.889-1.707,5.49,5.49,0,0,1-1.939-4.3,5.673,5.673,0,0,1,2.366-4.9q2.366-1.707,6.837-1.726h2.468v-1.15a3.308,3.308,0,0,0-.714-2.227,2.81,2.81,0,0,0-2.254-.835,3.2,3.2,0,0,0-2.125.649,2.206,2.206,0,0,0-.77,1.781h-5.362a5.386,5.386,0,0,1,1.076-3.229,7.114,7.114,0,0,1,3.043-2.329,11.09,11.09,0,0,1,4.416-.844,8.762,8.762,0,0,1,5.891,1.865,6.523,6.523,0,0,1,2.18,5.242v8.7a9.6,9.6,0,0,0,.8,4.323V36Zm-4.435-3.729a4.618,4.618,0,0,0,2.189-.529,3.473,3.473,0,0,0,1.484-1.419V26.871h-2q-4.026,0-4.286,2.783l-.019.315a2.147,2.147,0,0,0,.705,1.651A2.739,2.739,0,0,0,211.764,32.271Zm24.455-11.318a14.568,14.568,0,0,0-1.93-.148q-3.043,0-3.989,2.06V36h-5.362V15.924H230l.148,2.394a4.969,4.969,0,0,1,4.472-2.765,5.619,5.619,0,0,1,1.67.241Zm1.392,4.861a12.1,12.1,0,0,1,2.106-7.478,6.833,6.833,0,0,1,5.761-2.783,6.149,6.149,0,0,1,4.843,2.189V7.5H255.7V36h-4.843l-.26-2.134a6.31,6.31,0,0,1-5.158,2.5,6.815,6.815,0,0,1-5.687-2.792Q237.61,30.786,237.61,25.813Zm5.362.382a7.969,7.969,0,0,0,.983,4.343,3.2,3.2,0,0,0,2.857,1.51,3.587,3.587,0,0,0,3.507-2.106V21.982a3.536,3.536,0,0,0-3.47-2.106Q242.973,19.876,242.973,26.2Z" transform="translate(1087 5563.221)" fill="#fff"/>
  </g>
</svg>
