<svg xmlns="http://www.w3.org/2000/svg" width="361" height="333.221" viewBox="0 0 361 333.221">
  <g id="Grupo_1020321" data-name="Grupo 1020321" transform="translate(-1059 -5205.221)">
    <path id="Trazado_622590" data-name="Trazado 622590" d="M36.151,17.708l69.577,1.61V99.272L27.717,56.862Z" transform="translate(1102.001 5439.169)" fill="#a6d3ff"/>
    <path id="Trazado_622589" data-name="Trazado 622589" d="M0,0H147.161V56.772L0,14.7Z" transform="translate(1276.836 5496.045) rotate(180)" fill="#0082ff"/>
    <path id="Trazado_622588" data-name="Trazado 622588" d="M7.044,18.779H214.3V98.734L7.044,39.476Z" transform="translate(1062.538 5397.312)" fill="#a6d3ff"/>
    <path id="Trazado_749974" data-name="Trazado 749974" d="M10,0H351a10,10,0,0,1,10,10V223a10,10,0,0,1-10,10H10A10,10,0,0,1,0,223V10A10,10,0,0,1,10,0Z" transform="translate(1059 5205.221)" fill="#0082ff"/>
    <path id="Trazado_749975" data-name="Trazado 749975" d="M63.113,32.689q.408-2.1-2.264-3.247l-3.043-1.262q-6.4-2.876-6.086-7.83a6.912,6.912,0,0,1,1.559-4.036,9.257,9.257,0,0,1,3.952-2.755,14.543,14.543,0,0,1,5.511-.946,9.372,9.372,0,0,1,6.448,2.338,7.767,7.767,0,0,1,2.4,6.067H65.284a3.78,3.78,0,0,0-.659-2.5,2.853,2.853,0,0,0-2.347-.974,4.918,4.918,0,0,0-2.82.742,3.011,3.011,0,0,0-1.447,2.1q-.353,1.855,2.755,3.043a30.3,30.3,0,0,1,4.518,2.041q4.435,2.653,4.156,7.162a7.334,7.334,0,0,1-1.5,4.1,8.688,8.688,0,0,1-3.757,2.728,13.883,13.883,0,0,1-5.39.928,13.012,13.012,0,0,1-4.063-.687,8.941,8.941,0,0,1-3.21-1.893,8.222,8.222,0,0,1-2.6-6.587l6.364.019a4.357,4.357,0,0,0,.8,3.145,3.833,3.833,0,0,0,3.062,1.067,4.594,4.594,0,0,0,2.663-.733A3.043,3.043,0,0,0,63.113,32.689ZM82.707,14.933l-.872,4.991h3.21l-.761,4.342h-3.21l-1.559,9.222a2.458,2.458,0,0,0,.121,1.429q.25.482,1.252.52a14.509,14.509,0,0,0,1.6-.093l-.445,4.527a9.866,9.866,0,0,1-3.284.464,5.41,5.41,0,0,1-4.249-1.67,5.7,5.7,0,0,1-1.15-4.435l1.633-9.964H72.5l.742-4.342H75.73l.872-4.991Zm15.883,10.65A17.465,17.465,0,0,0,96.7,25.4,4.713,4.713,0,0,0,92.5,27.29L90.24,40h-6.1l3.488-20.076,5.7-.019-.464,2.635Q94.823,19.5,97.495,19.5a8.748,8.748,0,0,1,1.893.26Zm9.648,14.788a9.332,9.332,0,0,1-4.8-1.271,8.008,8.008,0,0,1-3.182-3.488,9.373,9.373,0,0,1-.854-4.926l.056-.52a12.306,12.306,0,0,1,3.442-7.839,9.521,9.521,0,0,1,7.208-2.774,7.764,7.764,0,0,1,4.416,1.31,7.321,7.321,0,0,1,2.69,3.512,10.757,10.757,0,0,1,.557,5.027l-.353,2.546H105.473a3.914,3.914,0,0,0,.891,2.561,3.271,3.271,0,0,0,2.486,1.039,6.318,6.318,0,0,0,4.769-2.041l2.561,3.386a7.554,7.554,0,0,1-3.164,2.526,11.111,11.111,0,0,1-4.444.953Zm1.484-15.994a3.14,3.14,0,0,0-2.254.812,6.816,6.816,0,0,0-1.661,2.843h6.1l.111-.535a4.073,4.073,0,0,0,.037-1.218A2.148,2.148,0,0,0,109.722,24.377ZM129.835,40a5.444,5.444,0,0,1-.26-1.818,6.193,6.193,0,0,1-4.917,2.189,6.05,6.05,0,0,1-4.342-1.744,5.243,5.243,0,0,1-1.614-4.138,5.889,5.889,0,0,1,2.728-5.019,12.859,12.859,0,0,1,7.2-1.753l2.041.037.223-1.132.074-.983a1.594,1.594,0,0,0-1.688-1.744,2.346,2.346,0,0,0-2.468,2.208l-6.123.019a5.815,5.815,0,0,1,1.317-3.516,7.808,7.808,0,0,1,3.331-2.3,11.637,11.637,0,0,1,4.481-.751,8.974,8.974,0,0,1,4,.956,5.953,5.953,0,0,1,2.57,2.5,6.4,6.4,0,0,1,.649,3.7l-1.5,9.444-.093,1.15a5.071,5.071,0,0,0,.353,2.338l-.019.353Zm-3.488-4.045a3.937,3.937,0,0,0,3.284-1.651l.612-3.229-1.577-.019a4.157,4.157,0,0,0-2.523.863,3.272,3.272,0,0,0-1.243,2.254,1.643,1.643,0,0,0,.288,1.252A1.469,1.469,0,0,0,126.347,35.955Zm21.115-16.05-.408,2.412a7.207,7.207,0,0,1,5.863-2.765,5.3,5.3,0,0,1,2.987.854,3.89,3.89,0,0,1,1.559,2.171,7.641,7.641,0,0,1,6.1-3.024A4.73,4.73,0,0,1,167.7,21.64a8.692,8.692,0,0,1,.974,5.724L166.574,40h-6.123l2.134-12.639.074-1.094q0-1.835-1.726-1.89a3.953,3.953,0,0,0-3.006,1.649L155.5,40h-6.123l2.115-12.6.074-1.112q0-1.909-1.726-1.909a3.926,3.926,0,0,0-2.969,1.649L144.4,40h-6.1l3.488-20.076Zm44.513,4.769L198.8,12.984h7.144L194.294,30.593,192.68,40h-6.457l1.744-10.02L182.568,13l6.605-.019ZM213.035,40a5.444,5.444,0,0,1-.26-1.818,6.193,6.193,0,0,1-4.917,2.189,6.05,6.05,0,0,1-4.342-1.744,5.243,5.243,0,0,1-1.614-4.138,5.889,5.889,0,0,1,2.728-5.019,12.859,12.859,0,0,1,7.2-1.753l2.041.037.223-1.132.074-.983a1.594,1.594,0,0,0-1.688-1.744A2.346,2.346,0,0,0,210.01,26.1l-6.123.019A5.815,5.815,0,0,1,205.2,22.6a7.808,7.808,0,0,1,3.331-2.3,11.637,11.637,0,0,1,4.481-.751,8.974,8.974,0,0,1,4,.956,5.953,5.953,0,0,1,2.57,2.5,6.4,6.4,0,0,1,.649,3.7l-1.5,9.444-.093,1.15a5.071,5.071,0,0,0,.353,2.338l-.019.353Zm-3.488-4.045a3.937,3.937,0,0,0,3.284-1.651l.612-3.229-1.577-.019a4.157,4.157,0,0,0-2.523.863,3.272,3.272,0,0,0-1.243,2.254,1.643,1.643,0,0,0,.288,1.252A1.469,1.469,0,0,0,209.546,35.955Zm26.4-10.372a17.465,17.465,0,0,0-1.893-.186,4.713,4.713,0,0,0-4.193,1.893L227.6,40h-6.1l3.488-20.076,5.7-.019-.464,2.635q1.967-3.043,4.639-3.043a8.748,8.748,0,0,1,1.893.26Zm.668,4.342a14.6,14.6,0,0,1,2.895-7.607,7.173,7.173,0,0,1,6.049-2.765,5.471,5.471,0,0,1,4.249,2.152L251.758,11.5h6.123L252.946,40h-5.437l.26-2.171a6.266,6.266,0,0,1-4.991,2.561,5.53,5.53,0,0,1-4.537-2.143,9.45,9.45,0,0,1-1.753-5.65,17.378,17.378,0,0,1,.074-2.282Zm6.086.427a14.572,14.572,0,0,0-.13,2.078q0,3.08,2.078,3.136a3.893,3.893,0,0,0,3.21-1.726l1.373-7.7a2.472,2.472,0,0,0-2.449-1.763,3.121,3.121,0,0,0-2.755,1.475A9.514,9.514,0,0,0,242.7,30.352Z" transform="translate(1087 5296.221)" fill="#fff"/>
  </g>
</svg>
