<svg xmlns="http://www.w3.org/2000/svg" xmlns:xlink="http://www.w3.org/1999/xlink" width="555" height="356" viewBox="0 0 555 356">
  <defs>
    <radialGradient id="radial-gradient" cx="-0.025" cy="1.003" r="1.849" gradientTransform="translate(0)" gradientUnits="objectBoundingBox">
      <stop offset="0" stop-color="#f5ec53"/>
      <stop offset="0.24" stop-color="#e48244"/>
      <stop offset="0.4" stop-color="#d05667"/>
      <stop offset="0.49" stop-color="#c84278"/>
      <stop offset="1" stop-color="#192cfa"/>
    </radialGradient>
  </defs>
  <g id="Grupo_1020319" data-name="Grupo 1020319" transform="translate(-812 -5920)">
    <rect id="Rectángulo_356724" data-name="Rectángulo 356724" width="555" height="356" rx="10" transform="translate(812 5920)" fill="#fff"/>
    <g id="Capa_1" data-name="Capa 1" transform="translate(853 6029.141)">
      <g id="Grupo_879166" data-name="Grupo 879166" transform="translate(335.281)">
        <rect id="Rectángulo_356726" data-name="Rectángulo 356726" width="137.719" height="137.719" rx="8.47" fill="#29a9e1"/>
        <path id="Trazado_749680" data-name="Trazado 749680" d="M126.55,66.3a42.613,42.613,0,0,0,23.084,6.765c27.962,0,43.729-23.606,42.8-44.774a30.909,30.909,0,0,0,7.52-7.782,30.8,30.8,0,0,1-8.653,2.381,15.143,15.143,0,0,0,6.62-8.333,30.206,30.206,0,0,1-9.553,3.659,15.053,15.053,0,0,0-25.639,13.734,42.785,42.785,0,0,1-31.04-15.738A15.079,15.079,0,0,0,136.335,36.3a15.077,15.077,0,0,1-6.823-1.887,15.078,15.078,0,0,0,12.079,14.954,15.229,15.229,0,0,1-6.794.261A15.045,15.045,0,0,0,148.85,60.082a30.309,30.309,0,0,1-22.3,6.243Z" transform="translate(-94.378 25.604)" fill="#fff"/>
      </g>
      <g id="Grupo_879167" data-name="Grupo 879167">
        <rect id="Rectángulo_356727" data-name="Rectángulo 356727" width="137.719" height="137.719" rx="8.47" fill="#3e5c9a"/>
        <path id="Trazado_749681" data-name="Trazado 749681" d="M25.83,92.627H42.584V50.64h11.7l1.249-14.054H42.584V28.573c0-3.31.668-4.617,3.862-4.617H55.5V9.38H43.89c-12.486,0-18.09,5.488-18.09,16V36.587H17.09V50.815H25.8V92.6Z" transform="translate(32.533 17.856)" fill="#fff"/>
      </g>
      <g id="Grupo_879169" data-name="Grupo 879169" transform="translate(163.88)">
        <rect id="Rectángulo_356728" data-name="Rectángulo 356728" width="137.719" height="137.719" rx="8.47" fill="url(#radial-gradient)"/>
        <g id="Grupo_879168" data-name="Grupo 879168" transform="translate(31.098 31.098)">
          <path id="Trazado_749682" data-name="Trazado 749682" d="M104.9,17.5c10.076,0,11.266.029,15.244.232a20.587,20.587,0,0,1,7,1.307,11.763,11.763,0,0,1,4.326,2.817,11.515,11.515,0,0,1,2.816,4.326,20.929,20.929,0,0,1,1.307,7c.174,3.978.232,5.168.232,15.244s-.029,11.266-.232,15.244a20.586,20.586,0,0,1-1.307,7,12.12,12.12,0,0,1-2.816,4.355,11.292,11.292,0,0,1-4.326,2.817,20.929,20.929,0,0,1-7,1.307c-3.978.174-5.168.232-15.244.232s-11.266-.029-15.244-.232a20.586,20.586,0,0,1-7-1.307A12.12,12.12,0,0,1,78.3,75.025a11.747,11.747,0,0,1-2.817-4.355,20.929,20.929,0,0,1-1.307-7c-.174-3.978-.232-5.168-.232-15.244s.029-11.266.232-15.244a20.586,20.586,0,0,1,1.307-7A11.763,11.763,0,0,1,78.3,21.86a11.4,11.4,0,0,1,4.355-2.817,20.929,20.929,0,0,1,7-1.307c3.978-.174,5.168-.232,15.244-.232m0-6.794c-10.25,0-11.527.058-15.563.232a27.8,27.8,0,0,0-9.175,1.742A18.31,18.31,0,0,0,73.48,17.04a18.553,18.553,0,0,0-4.355,6.678,27.643,27.643,0,0,0-1.742,9.175c-.174,4.036-.232,5.314-.232,15.563s.029,11.527.232,15.563A27.8,27.8,0,0,0,69.124,73.2,19.351,19.351,0,0,0,80.158,84.23a27.642,27.642,0,0,0,9.175,1.742c4.036.174,5.314.232,15.563.232s11.527-.029,15.563-.232a27.8,27.8,0,0,0,9.175-1.742,18.309,18.309,0,0,0,6.678-4.355A18.553,18.553,0,0,0,140.67,73.2a27.643,27.643,0,0,0,1.742-9.175c.174-4.036.232-5.314.232-15.563s-.029-11.527-.232-15.563a27.8,27.8,0,0,0-1.742-9.175,19.351,19.351,0,0,0-11.034-11.034,27.643,27.643,0,0,0-9.175-1.742c-4.036-.174-5.314-.232-15.563-.232" transform="translate(-67.15 -10.71)" fill="#fff"/>
          <path id="Trazado_749683" data-name="Trazado 749683" d="M92.866,17.04a19.4,19.4,0,1,0,19.4,19.4,19.393,19.393,0,0,0-19.4-19.4m0,31.969a12.573,12.573,0,1,1,12.573-12.573A12.578,12.578,0,0,1,92.866,49.009" transform="translate(-55.119 1.34)" fill="#fff"/>
          <path id="Trazado_749684" data-name="Trazado 749684" d="M94.589,19.74a4.53,4.53,0,1,1-4.53-4.53,4.535,4.535,0,0,1,4.53,4.53" transform="translate(-32.161 -2.144)" fill="#fff"/>
        </g>
      </g>
    </g>
  </g>
</svg>
