<svg xmlns="http://www.w3.org/2000/svg" width="59.719" height="60" viewBox="0 0 59.719 60">
  <g id="Outline" transform="translate(-16 -16)">
    <path id="Trazado_621575" data-name="Trazado 621575" d="M69.747,47.85H64.771V45.86h2.986a1,1,0,0,0,.829-.445,25.045,25.045,0,0,0,3.089-6.542,24.783,24.783,0,0,0,.866-4.115,3.972,3.972,0,0,0,.192-5.462v-.357a12.939,12.939,0,1,0-25.878,0V37.9a1,1,0,0,0,1,1c.031,0,.062,0,.094,0q.467-.044.934-.119a24.486,24.486,0,0,0,1.667,4.163,3.965,3.965,0,0,0-2.7-1.054H19.981A3.986,3.986,0,0,0,16,45.86V63.775a3.986,3.986,0,0,0,3.981,3.981h6.688l-1.681,6.726a1,1,0,0,0,.966,1.237H41.878a1,1,0,0,0,1-1V70.743a1,1,0,0,0-1-1h-.263l.408-1.991h5.14L44.9,75.438l1.91.562,2.116-7.2a8.456,8.456,0,0,0,.826,1.3l.084,5.63,1.991-.03-.09-5.972a1,1,0,0,0-.232-.625A6.388,6.388,0,0,1,50.3,66.914a3.955,3.955,0,0,0,1.531-3.139V49.841h1.24l.689,2.413a6.272,6.272,0,0,0,12.066,0l.69-2.414h1.24v9.953a1,1,0,0,0,.234.641,6.692,6.692,0,0,1,1.045,6.952l-3.087.343-2.492-1.246,1.831-2.824a2.911,2.911,0,0,0,.4-2.256,2.972,2.972,0,0,0-1.384-1.887,3.124,3.124,0,0,0-4.192.949L52.988,71.434a1,1,0,0,0-.134.774l.657,2.747a.994.994,0,0,0,1.184.74l1.375-.306a.992.992,0,0,0,.738.33H70.743a4.982,4.982,0,0,0,4.977-4.977V53.822a5.979,5.979,0,0,0-5.972-5.972Zm-14.93-3.981h-1.45a22.8,22.8,0,0,1-1.836-3.553,10.093,10.093,0,0,0,3.286,3.171Zm1.448-1.852a8.193,8.193,0,0,1-3.826-4.245,16.2,16.2,0,0,0,9.3-10.12l1.1-3.529a11.681,11.681,0,0,0,4.916,5.412v5.375a7.968,7.968,0,0,1-8.495,7.945,7.6,7.6,0,0,1-3-.839ZM71.738,31.925a1.993,1.993,0,0,1-1.991,1.991V29.934A1.993,1.993,0,0,1,71.738,31.925Zm-1.967,6.368a23.031,23.031,0,0,1-2.555,5.575H64.771v-.341A9.879,9.879,0,0,0,69.7,35.906h.05a4,4,0,0,0,.612-.047A22.431,22.431,0,0,1,69.771,38.294ZM48.846,28.939a10.947,10.947,0,0,1,21.86-.878,3.979,3.979,0,0,0-.958-.117H69a9.666,9.666,0,0,1-4.688-5.532l-.587-1.752a1,1,0,0,0-1.894.02l-1.991,6.38a14.138,14.138,0,0,1-10.994,9.7ZM27.228,73.729l3.484-13.934H36.77L35.028,73.729Zm13.655,0H37.034l.249-1.991h3.6Zm-1.3-3.981H37.532l.249-1.991h2.211Zm10.258-5.972a1.991,1.991,0,0,1-1.132,1.8,1.842,1.842,0,0,1-.412.139,1.988,1.988,0,0,1-.447.055H38.029l.855-6.844A1,1,0,0,0,37.9,57.8H29.934a1,1,0,0,0-.966.754l-1.8,7.209H19.981a1.993,1.993,0,0,1-1.991-1.991V45.86a1.993,1.993,0,0,1,1.991-1.991H47.85a1.993,1.993,0,0,1,1.991,1.991ZM51.832,47.85V45.86a3.983,3.983,0,0,0-.089-.838c.084.132.169.263.256.394a1,1,0,0,0,.829.444h1.991V47.85Zm12.081,3.862a4.283,4.283,0,0,1-8.237,0l-.541-1.894a1.992,1.992,0,0,0,1.674-1.963V44.393a9.482,9.482,0,0,0,2.323.449q.334.022.667.022a9.925,9.925,0,0,0,2.982-.457V47.85a1.992,1.992,0,0,0,1.674,1.963Zm5.835,7.731v-9.6a3.986,3.986,0,0,1,3.981,3.981V66.866l-2.5.278a8.672,8.672,0,0,0-1.482-7.7ZM61.783,61.55a1.116,1.116,0,0,1,1.5-.326,1,1,0,0,1,.469.627.937.937,0,0,1-.133.726L61.53,65.8l-2.88.576ZM54.89,72.161l.923-1.421v2.668l-.594.132Zm15.853,1.568H57.8V68.573l3.842-.768,3.676,1.838a1,1,0,0,0,.555.1l7.853-.873v1.874A2.989,2.989,0,0,1,70.743,73.729Z" transform="translate(0 0)"/>
    <path id="Trazado_621576" data-name="Trazado 621576" d="M349.972,176h-1.991a1,1,0,1,1-1.991,0H344a2.986,2.986,0,1,0,5.972,0Z" transform="translate(-287.192 -140.094)"/>
    <path id="Trazado_621577" data-name="Trazado 621577" d="M393.493,130.986A1.493,1.493,0,1,0,392,129.493,1.493,1.493,0,0,0,393.493,130.986Z" transform="translate(-329.22 -98.066)"/>
    <rect id="Rectángulo_327120" data-name="Rectángulo 327120" width="3.789" height="1.894" transform="translate(19.338 45.757)"/>
    <rect id="Rectángulo_327121" data-name="Rectángulo 327121" width="5.683" height="1.894" transform="translate(25.021 45.757)"/>
    <rect id="Rectángulo_327122" data-name="Rectángulo 327122" width="3.789" height="1.894" transform="translate(32.599 45.757)"/>
    <rect id="Rectángulo_327123" data-name="Rectángulo 327123" width="3.789" height="1.894" transform="translate(38.282 45.757)"/>
    <rect id="Rectángulo_327124" data-name="Rectángulo 327124" width="3.789" height="1.894" transform="translate(43.965 45.757)"/>
  </g>
</svg>
