<svg xmlns="http://www.w3.org/2000/svg" width="290" height="290" viewBox="0 0 290 290">
  <g id="canva-seeklogo.com" transform="translate(-1 -1.899)">
    <circle id="Elipse_8494" data-name="Elipse 8494" cx="145" cy="145" r="145" transform="translate(1 1.899)" fill="#20c4cb"/>
    <path id="Trazado_748571" data-name="Trazado 748571" d="M157.906,106.393c-5.916,6.508-14.2,9.762-18.045,9.762-4.437,0-6.8-2.662-7.4-6.8a12.806,12.806,0,0,1,.3-4.733c1.479-9.17,4.733-15.087,4.733-16.566,0-.592-.3-.887-.592-.887-2.958,0-13.016,10.354-14.5,17.158l-1.183,5.621c-.887,3.846-4.437,6.212-7.1,6.212a2.253,2.253,0,0,1-2.367-2.071v-1.775l.592-2.958c-5.325,4.142-11.241,6.8-13.9,6.8-3.846,0-5.916-2.071-6.508-5.029a11.283,11.283,0,0,1-9.17,5.029c-4.437,0-8.579-2.958-10.65-7.4a54.133,54.133,0,0,1-10.65,9.17c-6.212,3.846-13.016,7.1-21,7.1a25.644,25.644,0,0,1-17.158-7.1C17.982,113.2,15.32,105.8,14.432,99.293,11.77,78.586,24.49,51.074,44.31,39.241A28.117,28.117,0,0,1,58.51,35.1c9.466,0,16.566,6.8,17.453,14.791.887,7.4-2.071,13.608-10.058,17.453-4.141,2.071-6.212,2.071-6.8.887a1.933,1.933,0,0,1,.592-2.367c7.691-6.212,7.691-11.537,6.8-18.933-.592-4.733-3.55-7.691-7.1-7.691-15.383,0-36.682,33.428-33.724,57.685,1.183,9.466,7.1,20.412,18.933,20.412a27.981,27.981,0,0,0,11.833-2.958c6.508-3.254,10.354-5.916,13.9-10.354-.887-11.241,8.875-25.441,23.074-25.441,6.212,0,11.241,2.367,11.833,7.4.887,6.212-4.437,7.4-6.508,7.4-1.775,0-4.437-.592-4.733-2.071-.3-1.775,3.846-.887,3.254-4.733-.3-2.367-2.958-3.254-5.325-3.254-8.875,0-13.9,12.424-13.016,20.116.3,3.55,2.367,7.1,5.325,7.1,2.662,0,6.508-3.846,7.691-9.17.887-3.846,4.437-6.212,7.1-6.212,1.479,0,2.367.592,2.367,2.071V99c-.3,1.479-1.479,7.1-1.479,7.987a2.309,2.309,0,0,0,2.367,2.367c1.479,0,6.212-2.662,10.945-6.8,1.479-7.4,3.254-16.566,3.254-17.158.592-2.958,1.775-6.212,7.691-6.212a2.253,2.253,0,0,1,2.367,2.071v1.775l-1.479,7.987c5.325-7.1,13.608-12.424,18.637-12.424a3.9,3.9,0,0,1,4.142,3.254c.3,1.183-.3,3.254-.887,5.621a125.227,125.227,0,0,0-5.029,18.341,2.518,2.518,0,0,0,2.662,3.254c2.071,0,8.283-2.367,13.312-9.17V96.927c0-5.325.3-9.466,1.479-12.72.887-3.254,5.029-6.212,7.691-6.212a2.177,2.177,0,0,1,2.367,2.367,3.752,3.752,0,0,1-.3,1.775c-1.775,5.621-2.958,10.65-2.958,15.679a48.993,48.993,0,0,0,1.183,9.762.784.784,0,0,0,.887.887c.887,0,6.8-5.621,10.945-12.72-3.846-2.367-5.916-6.8-5.916-12.129,0-8.875,5.325-13.608,10.65-13.608,4.141,0,7.691,2.958,7.691,8.875,0,3.846-1.479,7.987-3.55,12.129h1.183a9.027,9.027,0,0,0,7.1-3.254,7.843,7.843,0,0,1,1.775-1.479A22.754,22.754,0,0,1,215.591,77.7c6.212,0,11.241,2.367,11.833,7.4.887,6.212-4.733,7.691-6.508,7.691s-4.733-.592-4.733-2.071c-.3-1.479,3.846-.887,3.55-4.733-.3-2.367-2.958-3.55-5.325-3.55-8.283,0-13.9,10.945-13.016,20.116.3,3.55,2.071,7.1,5.325,7.1,2.662,0,6.508-3.846,7.987-9.17.887-3.55,4.437-6.212,7.1-6.212a2.1,2.1,0,0,1,2.367,2.071c0,.887-.3,2.367-1.479,8.283a25.482,25.482,0,0,0-.592,6.212,13.312,13.312,0,0,0,3.55,7.4,2.7,2.7,0,0,1,.887,1.479,1.705,1.705,0,0,1-1.775,1.775,1.779,1.779,0,0,1-1.183-.3c-6.508-2.662-9.17-7.1-9.762-10.945a10.971,10.971,0,0,1-9.17,4.733c-5.621,0-11.241-5.029-12.129-11.537a19.879,19.879,0,0,1,.887-8.283,13.539,13.539,0,0,1-7.1,2.367h-2.071c-5.621,7.987-11.537,13.608-15.974,16.27a12.16,12.16,0,0,1-4.733,1.479,3.212,3.212,0,0,1-2.662-1.183c-1.775-1.183-2.662-4.141-2.958-7.691Zm20.116-26.624a15.157,15.157,0,0,0,3.846,9.466,20.334,20.334,0,0,0,1.479-7.1c0-4.437-1.775-6.508-2.958-6.508C178.613,75.627,178.021,77.994,178.021,79.769Z" transform="translate(25.616 64.812)" fill="#fff"/>
  </g>
</svg>
