<svg id="layer2" xmlns="http://www.w3.org/2000/svg" width="59.719" height="59.719" viewBox="0 0 59.719 59.719">
  <path id="path824" d="M34.33.376,12.426,16.8H2.851A2.89,2.89,0,0,0,0,19.647V40.074a2.861,2.861,0,0,0,2.851,2.85h9.576l21.9,16.418a1.87,1.87,0,0,0,2.993-1.5c-.006-1.116,0-37.318,0-55.977A1.875,1.875,0,0,0,34.33.376Zm-.74,5.219V54.116L14.92,40.129V19.589Zm11.3,7.642a1.873,1.873,0,0,0-.339,3.725,12.993,12.993,0,0,1,0,25.8c-2.455.243-1.91,4.144.525,3.692a16.726,16.726,0,0,0-.186-33.215ZM3.733,20.526h7.454l.007,18.663H3.733Zm40.476,5.08a4.479,4.479,0,0,1-.015,8.517c-2.416.744-1.057,4.415,1.239,3.524A8.223,8.223,0,0,0,45.4,22.056a1.872,1.872,0,1,0-1.2,3.549Z" transform="translate(0 0)"/>
</svg>
