<svg xmlns="http://www.w3.org/2000/svg" xmlns:xlink="http://www.w3.org/1999/xlink" width="60" height="60" viewBox="0 0 60 60">
  <defs>
    <clipPath id="clip-path">
      <path id="path21" d="M0-682.665H60v60H0Z" transform="translate(0 682.665)"/>
    </clipPath>
  </defs>
  <g id="g15" transform="translate(0 682.665)">
    <g id="g17" transform="translate(0 -682.665)">
      <g id="g19" clip-path="url(#clip-path)">
        <g id="g25" transform="translate(2.637 20.166)">
          <path id="path27" d="M0-349.544V-379.71a3.515,3.515,0,0,1,3.516-3.516H19.181" transform="translate(0 383.226)" fill="none" stroke="#000" stroke-linecap="round" stroke-linejoin="round" stroke-miterlimit="10" stroke-width="2"/>
        </g>
        <g id="g29" transform="translate(38.182 20.166)">
          <path id="path31" d="M0,0H15.666a3.515,3.515,0,0,1,3.516,3.516V33.682" fill="none" stroke="#000" stroke-linecap="round" stroke-linejoin="round" stroke-miterlimit="10" stroke-width="2"/>
        </g>
        <g id="g33" transform="translate(6.152 23.681)">
          <path id="path35" d="M0-54.758v-4.456a.82.82,0,0,1,.82-.82H17.552" transform="translate(0 60.035)" fill="none" stroke="#000" stroke-linecap="round" stroke-linejoin="round" stroke-miterlimit="10" stroke-width="2"/>
        </g>
        <g id="g37" transform="translate(6.152 33.059)">
          <path id="path39" d="M0-215.736v-20.788" transform="translate(0 236.525)" fill="none" stroke="#000" stroke-linecap="round" stroke-linejoin="round" stroke-miterlimit="10" stroke-width="2"/>
        </g>
        <g id="g41" transform="translate(36.296 23.681)">
          <path id="path43" d="M0,0H16.731a.82.82,0,0,1,.82.82V30.166" fill="none" stroke="#000" stroke-linecap="round" stroke-linejoin="round" stroke-miterlimit="10" stroke-width="2"/>
        </g>
        <g id="g45" transform="translate(0.879 53.848)">
          <path id="path47" d="M-454.193,0h13.656a.815.815,0,0,1,.58.24.815.815,0,0,1,.24.58,4.453,4.453,0,0,1-4.453,4.453h-49.336a4.435,4.435,0,0,1-3.149-1.3,4.435,4.435,0,0,1-1.3-3.149.82.82,0,0,1,.82-.82h13.656" transform="translate(497.959 0)" fill="none" stroke="#000" stroke-linecap="round" stroke-linejoin="round" stroke-miterlimit="10" stroke-width="2"/>
        </g>
        <g id="g49" transform="translate(11.435 25.15)">
          <path id="path51" d="M-145.171,0V1.822a2.344,2.344,0,0,1-1.516,2.194l-8.907,3.357a5.509,5.509,0,0,0-3.565,5.154v4.709" transform="translate(159.16)" fill="none" stroke="#000" stroke-linecap="round" stroke-linejoin="round" stroke-miterlimit="10" stroke-width="2"/>
        </g>
        <g id="g53" transform="translate(11.435 49.941)">
          <path id="path55" d="M0-40.546v-3.907" transform="translate(0 44.453)" fill="none" stroke="#000" stroke-linecap="round" stroke-linejoin="round" stroke-miterlimit="10" stroke-width="2"/>
        </g>
        <g id="g57" transform="translate(48.565 49.941)">
          <path id="path59" d="M0-40.546v-3.907" transform="translate(0 44.453)" fill="none" stroke="#000" stroke-linecap="round" stroke-linejoin="round" stroke-miterlimit="10" stroke-width="2"/>
        </g>
        <g id="g61" transform="translate(34.576 25.15)">
          <path id="path63" d="M0,0V1.822A2.344,2.344,0,0,0,1.516,4.016l8.907,3.357a5.509,5.509,0,0,1,3.565,5.154v4.709" fill="none" stroke="#000" stroke-linecap="round" stroke-linejoin="round" stroke-miterlimit="10" stroke-width="2"/>
        </g>
        <g id="g65" transform="translate(24.891 28.46)">
          <path id="path67" d="M0,0A5.86,5.86,0,0,0,5.109,2.988,5.86,5.86,0,0,0,10.219,0" fill="none" stroke="#000" stroke-linecap="round" stroke-linejoin="round" stroke-miterlimit="10" stroke-width="2"/>
        </g>
        <g id="g69" transform="translate(21.549 0.879)">
          <path id="path71" d="M0-145.307v-10.221a3.781,3.781,0,0,1,3.781-3.781h9.34a3.781,3.781,0,0,1,3.781,3.781v10.221" transform="translate(0 159.309)" fill="none" stroke="#000" stroke-linecap="round" stroke-linejoin="round" stroke-miterlimit="10" stroke-width="2"/>
        </g>
        <g id="g73" transform="translate(21.549 8.9)">
          <path id="path75" d="M-175.4-33.032a4.365,4.365,0,0,0-2.424-2.282c-1.46-.434-2.225.565-4.208.559-2.256-.007-2.789-1.3-4.609-1.447-1.308-.1-3.2.4-5.661,3.171v5.959a8.452,8.452,0,0,0,8.451,8.454,8.452,8.452,0,0,0,8.451-8.454Z" transform="translate(192.297 36.215)" fill="none" stroke="#000" stroke-linecap="round" stroke-linejoin="round" stroke-miterlimit="10" stroke-width="2"/>
        </g>
        <g id="g77" transform="translate(25.923 15.109)">
          <path id="path79" d="M0,0V1.631" transform="translate(0)" fill="none" stroke="#000" stroke-linecap="round" stroke-linejoin="round" stroke-miterlimit="10" stroke-width="2"/>
        </g>
        <g id="g81" transform="translate(34.077 15.109)">
          <path id="path83" d="M0,0V1.631" transform="translate(0)" fill="none" stroke="#000" stroke-linecap="round" stroke-linejoin="round" stroke-miterlimit="10" stroke-width="2"/>
        </g>
        <g id="g85" transform="translate(28.369 21.52)">
          <path id="path87" d="M0,0A3.4,3.4,0,0,0,1.6.418,3.405,3.405,0,0,0,3.262,0" fill="none" stroke="#000" stroke-linecap="round" stroke-linejoin="round" stroke-miterlimit="10" stroke-width="2"/>
        </g>
        <g id="g89" transform="translate(38.451 12.011)">
          <path id="path91" d="M-12.154-46.708h-1.171v-4.5h1.171a2.25,2.25,0,0,1,2.25,2.25A2.25,2.25,0,0,1-12.154-46.708Z" transform="translate(13.325 51.209)" fill="none" stroke="#000" stroke-linecap="round" stroke-linejoin="round" stroke-miterlimit="10" stroke-width="2"/>
        </g>
        <g id="g93" transform="translate(18.128 12.011)">
          <path id="path95" d="M-23.355-46.708h1.171v-4.5h-1.171a2.25,2.25,0,0,0-2.25,2.25A2.25,2.25,0,0,0-23.355-46.708Z" transform="translate(25.605 51.209)" fill="none" stroke="#000" stroke-linecap="round" stroke-linejoin="round" stroke-miterlimit="10" stroke-width="2"/>
        </g>
        <g id="g97" transform="translate(14.883 34.964)">
          <path id="path99" d="M0-75.279v-3.738a3.515,3.515,0,0,1,3.516-3.516h23.2a3.515,3.515,0,0,1,3.516,3.516v3.738" transform="translate(0 82.533)" fill="none" stroke="#000" stroke-linecap="round" stroke-linejoin="round" stroke-miterlimit="10" stroke-width="2"/>
        </g>
        <g id="g101" transform="translate(14.883 50.108)">
          <path id="path103" d="M-201.3-57.049h-15.882a3.515,3.515,0,0,1-3.516-3.516v-1.982" transform="translate(220.701 62.547)" fill="none" stroke="#000" stroke-linecap="round" stroke-linejoin="round" stroke-miterlimit="10" stroke-width="2"/>
        </g>
        <g id="g105" transform="translate(38.382 50.108)">
          <path id="path107" d="M-69.9,0V1.982A3.515,3.515,0,0,1-73.412,5.5h-3.22" transform="translate(76.632)" fill="none" stroke="#000" stroke-linecap="round" stroke-linejoin="round" stroke-miterlimit="10" stroke-width="2"/>
        </g>
        <g id="g109" transform="translate(26.198 40.419)">
          <path id="path111" d="M-75.626-56.644l-6.174,4.15a.714.714,0,0,1-1.113-.593v-8.3a.714.714,0,0,1,1.113-.593l6.174,4.15A.714.714,0,0,1-75.626-56.644Z" transform="translate(82.913 62.102)" fill="none" stroke="#000" stroke-linecap="round" stroke-linejoin="round" stroke-miterlimit="10" stroke-width="2"/>
        </g>
        <g id="g113" transform="translate(9.937 42.217)">
          <path id="path115" d="M-50.99-81.91h-2.538A2.376,2.376,0,0,1-55.9-84.285v-3.142A2.376,2.376,0,0,1-53.528-89.8h2.538a1.143,1.143,0,0,1,1.143,1.143v5.608A1.143,1.143,0,0,1-50.99-81.91Z" transform="translate(55.904 89.802)" fill="none" stroke="#000" stroke-linecap="round" stroke-linejoin="round" stroke-miterlimit="10" stroke-width="2"/>
        </g>
        <g id="g117" transform="translate(44.007 42.217)">
          <path id="path119" d="M-11.857-81.91H-9.32a2.376,2.376,0,0,0,2.376-2.376v-3.142A2.376,2.376,0,0,0-9.32-89.8h-2.538A1.143,1.143,0,0,0-13-88.66v5.608A1.143,1.143,0,0,0-11.857-81.91Z" transform="translate(13 89.802)" fill="none" stroke="#000" stroke-linecap="round" stroke-linejoin="round" stroke-miterlimit="10" stroke-width="2"/>
        </g>
      </g>
    </g>
  </g>
</svg>
