<svg xmlns="http://www.w3.org/2000/svg" width="148.502" height="148.502" viewBox="0 0 148.502 148.502">
  <g id="Grupo_1020323" data-name="Grupo 1020323" transform="translate(-1069.766 -1125.049)">
    <circle id="Elipse_8508" data-name="Elipse 8508" cx="74.251" cy="74.251" r="74.251" transform="translate(1069.766 1125.049)" fill="#fff"/>
    <g id="multimedia" transform="translate(1101.517 1157.003)">
      <path id="Trazado_749697" data-name="Trazado 749697" d="M32.262,84.368v43.5a3.454,3.454,0,0,0,3.45,3.45h67.035a3.454,3.454,0,0,0,3.45-3.45v-43.5a3.454,3.454,0,0,0-3.45-3.45h-6.84a1.239,1.239,0,0,0,0,2.478h6.84a.973.973,0,0,1,.971.971v43.5a.973.973,0,0,1-.971.971h-34.8q.384-.228.76-.466a1.239,1.239,0,0,0-1.324-2.1c-.669.423-1.362.825-2.062,1.2a1.241,1.241,0,0,0-.629,1.365H35.712a.972.972,0,0,1-.971-.971v-43.5a1.239,1.239,0,0,0-2.478,0Zm0,0" transform="translate(-26.931 -67.549)" fill="#12263f"/>
      <path id="Trazado_749698" data-name="Trazado 749698" d="M417.865,48.656h-9.346a1.239,1.239,0,1,0,0,2.478h9.346a3.562,3.562,0,0,1,3.558,3.558v48.984a3.562,3.562,0,0,1-3.558,3.558H407.7a1.239,1.239,0,0,0,0,2.478h10.161a6.043,6.043,0,0,0,6.037-6.036V54.693A6.044,6.044,0,0,0,417.865,48.656Zm0,0" transform="translate(-339.307 -40.617)" fill="#12263f"/>
      <path id="Trazado_749699" data-name="Trazado 749699" d="M63.439,107.234H6.036a3.562,3.562,0,0,1-3.558-3.558V54.692a3.562,3.562,0,0,1,3.558-3.558,1.239,1.239,0,1,0,0-2.478A6.044,6.044,0,0,0,0,54.692v48.984a6.044,6.044,0,0,0,6.036,6.036H36.794v7.068h-.261a1.241,1.241,0,0,0-.249.026l-3.33.683a1.239,1.239,0,0,0,.5,2.427l3.206-.658H47.935l11.779,2.418v1.057H24.88v-1.057l3.616-.742a1.239,1.239,0,1,0-.5-2.427l-4.038.829a1.957,1.957,0,0,0-1.558,1.91v2.016a1.952,1.952,0,0,0,1.95,1.95H60.243a1.952,1.952,0,0,0,1.95-1.95v-2.016a1.958,1.958,0,0,0-1.557-1.91l-12.324-2.529a1.24,1.24,0,0,0-.249-.025H47.8v-7.068H63.44a1.239,1.239,0,1,0,0-2.478Zm-18.117,9.547h-6.05v-7.069h6.05Zm0,0" transform="translate(0 -40.617)" fill="#12263f"/>
      <path id="Trazado_749700" data-name="Trazado 749700" d="M267.517,326.5c-.556.562-1.142,1.111-1.74,1.63a1.239,1.239,0,0,0,1.626,1.871c.645-.561,1.277-1.152,1.876-1.759a1.239,1.239,0,1,0-1.762-1.743Zm0,0" transform="translate(-221.509 -272.251)" fill="#12263f"/>
      <path id="Trazado_749701" data-name="Trazado 749701" d="M335.035,181.158h.033a1.239,1.239,0,0,0,1.239-1.206c.008-.3.012-.6.012-.891,0-.558-.014-1.123-.041-1.681a1.239,1.239,0,0,0-2.476.123c.026.516.039,1.04.039,1.557,0,.274,0,.551-.011.826A1.239,1.239,0,0,0,335.035,181.158Zm0,0" transform="translate(-278.647 -147.089)" fill="#12263f"/>
      <path id="Trazado_749702" data-name="Trazado 749702" d="M328.958,132.789a1.239,1.239,0,1,0-2.385.672c.216.764.4,1.544.561,2.319a1.239,1.239,0,0,0,2.429-.493C329.394,134.452,329.191,133.612,328.958,132.789Zm0,0" transform="translate(-272.576 -110.095)" fill="#12263f"/>
      <path id="Trazado_749703" data-name="Trazado 749703" d="M243.676,34.206c.7.344,1.4.725,2.072,1.133a1.239,1.239,0,1,0,1.29-2.116c-.736-.448-1.5-.867-2.275-1.245a1.239,1.239,0,0,0-1.087,2.228Zm0,0" transform="translate(-202.834 -26.59)" fill="#12263f"/>
      <path id="Trazado_749704" data-name="Trazado 749704" d="M280.547,59.129c.356.321.706.657,1.042,1a1.239,1.239,0,1,0,1.765-1.74c-.369-.374-.754-.743-1.144-1.1a1.239,1.239,0,0,0-1.663,1.839Zm0,0" transform="translate(-233.854 -47.557)" fill="#12263f"/>
      <path id="Trazado_749705" data-name="Trazado 749705" d="M201.337,20.5c.771.134,1.546.306,2.3.513a1.239,1.239,0,1,0,.651-2.391c-.833-.227-1.685-.417-2.532-.564a1.239,1.239,0,0,0-.424,2.442Zm0,0" transform="translate(-167.214 -15.057)" fill="#12263f"/>
      <path id="Trazado_749706" data-name="Trazado 749706" d="M61.563,22.151H78.353a2.683,2.683,0,0,0,2.68-2.68V2.68A2.683,2.683,0,0,0,78.353,0H61.563a2.683,2.683,0,0,0-2.68,2.68V19.471A2.683,2.683,0,0,0,61.563,22.151Zm-.2-19.471a.2.2,0,0,1,.2-.2H78.353a.2.2,0,0,1,.2.2V19.471a.2.2,0,0,1-.2.2H61.563a.2.2,0,0,1-.2-.2Zm0,0" transform="translate(-49.154 0)" fill="#12263f"/>
      <path id="Trazado_749707" data-name="Trazado 749707" d="M94.2,42.247a1.99,1.99,0,0,0,2-.019l6.843-4.068a1.985,1.985,0,0,0,0-3.413L96.192,30.68a1.985,1.985,0,0,0-3,1.706v8.135a1.991,1.991,0,0,0,1,1.726Zm1.475-9,5.385,3.2-5.385,3.2Zm0,0" transform="translate(-77.794 -25.378)" fill="#12263f"/>
      <path id="Trazado_749708" data-name="Trazado 749708" d="M277.4,37.855a4.183,4.183,0,0,0,4.307-4.037V21.356l9.043-2.742v8.057a4.526,4.526,0,0,0-1.828-.382,4.045,4.045,0,1,0,4.306,4.037V16.944a1.239,1.239,0,0,0-1.6-1.186l-11.522,3.492a1.239,1.239,0,0,0-.88,1.186v9.727a4.52,4.52,0,0,0-1.828-.382,4.045,4.045,0,1,0,0,8.073Zm11.522-5.971a1.578,1.578,0,1,1,1.828-1.559A1.712,1.712,0,0,1,288.923,31.885ZM277.4,32.26a1.579,1.579,0,1,1-1.828,1.559A1.712,1.712,0,0,1,277.4,32.26Zm0,0" transform="translate(-227.972 -13.111)" fill="#12263f"/>
      <path id="Trazado_749709" data-name="Trazado 749709" d="M319.048,211.625H302.767a2.938,2.938,0,0,0-2.935,2.935v15.3a2.938,2.938,0,0,0,2.935,2.935h16.281a2.94,2.94,0,0,0,2.936-2.935v-6.834c0-.014,0-.028,0-.042V214.56a2.939,2.939,0,0,0-2.935-2.935ZM307.6,223.315a.223.223,0,0,1,.307,0l1.914,1.809a5.878,5.878,0,0,1-4.123-.011Zm11.9,6.544a.458.458,0,0,1-.457.456h-.124l-2.653-2.508,3.234-2.349ZM302.767,214.1h16.28a.457.457,0,0,1,.457.456V222.4l-5.066,3.68-1.665-1.574,0,0-3.155-2.983a2.7,2.7,0,0,0-3.712,0l-3.137,2.966h0l-.453.429V214.56a.456.456,0,0,1,.456-.456Zm-.457,15.756v-1.541l1.457-1.377a8.336,8.336,0,0,0,8,.015l3.553,3.359H302.767A.458.458,0,0,1,302.311,229.86Zm0,0" transform="translate(-250.293 -176.66)" fill="#12263f"/>
      <path id="Trazado_749710" data-name="Trazado 749710" d="M373.575,240.194a3.423,3.423,0,1,0-3.423-3.423A3.427,3.427,0,0,0,373.575,240.194Zm0-4.368a.945.945,0,1,1-.945.945A.946.946,0,0,1,373.575,235.826Zm0,0" transform="translate(-308.994 -194.793)" fill="#12263f"/>
      <path id="Trazado_749711" data-name="Trazado 749711" d="M101.61,182.2,85.3,187.64a1.57,1.57,0,0,0-.613,2.6l3.917,3.916a1.561,1.561,0,0,0,1.606.38l1.58-.527-.527,1.581a1.56,1.56,0,0,0,.379,1.606l3.917,3.916a1.569,1.569,0,0,0,2.6-.613l5.437-16.309a1.57,1.57,0,0,0-1.986-1.986ZM96.272,198.32l-2.48-2.48.924-2.772a1.57,1.57,0,0,0-1.985-1.985l-2.772.924-2.48-2.48,13.191-4.4Zm0,0" transform="translate(-70.31 -152.031)" fill="#12263f"/>
    </g>
  </g>
</svg>
