<svg xmlns="http://www.w3.org/2000/svg" width="148.502" height="148.502" viewBox="0 0 148.502 148.502">
  <g id="Grupo_1020324" data-name="Grupo 1020324" transform="translate(3098.862 10574.951)">
    <path id="Trazado_749734" data-name="Trazado 749734" d="M74.251,0A74.251,74.251,0,1,1,0,74.251,74.251,74.251,0,0,1,74.251,0Z" transform="translate(-3098.862 -10574.951)" fill="#fff"/>
    <g id="conversation_4805973" transform="translate(-3070.511 -10547.664)">
      <path id="Trazado_749712" data-name="Trazado 749712" d="M49.916,27.029h8.291l3.022,3.022a1.6,1.6,0,0,0,2.258,0l3.023-3.023H74.8a1.6,1.6,0,0,0,1.6-1.6V1.6A1.6,1.6,0,0,0,74.8,0H49.916a1.6,1.6,0,0,0-1.6,1.6V25.433a1.6,1.6,0,0,0,1.6,1.6ZM51.072,2.752H73.647V24.277H66.032a1.586,1.586,0,0,0-1.129.467l-2.544,2.544-2.543-2.543a1.586,1.586,0,0,0-1.13-.469H51.072Z" transform="translate(-40.722 0)" fill="#12263f"/>
      <path id="Trazado_749713" data-name="Trazado 749713" d="M326.027,27.029h8.291l3.022,3.022a1.6,1.6,0,0,0,2.258,0l3.023-3.023h8.291a1.6,1.6,0,0,0,1.6-1.6V1.6a1.6,1.6,0,0,0-1.6-1.6H326.027a1.6,1.6,0,0,0-1.6,1.6V25.433a1.6,1.6,0,0,0,1.6,1.6Zm1.155-24.277h22.575V24.277h-7.614a1.585,1.585,0,0,0-1.129.467l-2.544,2.544-2.544-2.544a1.586,1.586,0,0,0-1.129-.467h-7.614Z" transform="translate(-266.18 0)" fill="#12263f"/>
      <path id="Trazado_749714" data-name="Trazado 749714" d="M92.547,44.315,95.239,42.3l2.692,2.019a1.376,1.376,0,1,0,1.651-2.2l-2.094-1.571a8.476,8.476,0,0,0,2.53-4.747h.5a1.376,1.376,0,0,0,0-2.752h-3.9V30.9a1.376,1.376,0,1,0-2.752,0v2.142h-3.9a1.376,1.376,0,0,0,0,2.752h.5a8.476,8.476,0,0,0,2.53,4.747L90.9,42.114a1.376,1.376,0,0,0,1.651,2.2ZM97.209,35.8a5.694,5.694,0,0,1-1.97,3.057,5.692,5.692,0,0,1-1.97-3.057Z" transform="translate(-73.602 -24.11)" fill="#12263f"/>
      <path id="Trazado_749715" data-name="Trazado 749715" d="M375.5,41.649V37.96h4.846v3.689a1.376,1.376,0,0,0,2.752,0V32.785a5.175,5.175,0,1,0-10.35,0v8.864a1.376,1.376,0,1,0,2.752,0Zm2.423-11.288a2.426,2.426,0,0,1,2.423,2.423v2.423H375.5V32.785A2.426,2.426,0,0,1,377.927,30.362Z" transform="translate(-305.637 -22.545)" fill="#12263f"/>
      <path id="Trazado_749716" data-name="Trazado 749716" d="M113.7,262.468h.248a2.973,2.973,0,0,0,2.97-2.97v-2.09a1.376,1.376,0,0,0-2.752,0v2.09a.218.218,0,0,1-.218.218H113.7a1.376,1.376,0,1,0,0,2.752Z" transform="translate(-92.988 -209.063)" fill="#12263f"/>
      <path id="Trazado_749717" data-name="Trazado 749717" d="M43.533,211.188l-6.062-1.515a2.666,2.666,0,0,1-.918-.426h0a2.686,2.686,0,0,1-1.11-2.172v-1.545a11.155,11.155,0,0,0,4.1-6.912,6.269,6.269,0,0,0,5.112-6.153,3.865,3.865,0,0,0-3.861-3.861h-.555l.183-2.872a9.415,9.415,0,0,0-9.4-10.021H28.541A11.745,11.745,0,0,0,16.82,188.2l.025.4H16.29a3.865,3.865,0,0,0-3.861,3.861,6.269,6.269,0,0,0,5.112,6.153,11.154,11.154,0,0,0,4.1,6.912v1.545a2.686,2.686,0,0,1-1.11,2.172h0a2.665,2.665,0,0,1-.918.426l-6.062,1.516A8.76,8.76,0,0,0,6.9,219.7v4.969a1.376,1.376,0,0,0,2.752,0V219.7a6.012,6.012,0,0,1,4.561-5.841l6.062-1.516a5.412,5.412,0,0,0,.957-.336l6.179,4.634a1.888,1.888,0,0,0,2.254,0l6.179-4.634a5.41,5.41,0,0,0,.957.336l6.062,1.516a6.012,6.012,0,0,1,4.561,5.841v14.952H42.581v-9.676a1.376,1.376,0,1,0-2.752,0v9.676H17.254v-9.676a1.376,1.376,0,1,0-2.752,0v9.676H9.656v-3.562a1.376,1.376,0,0,0-2.752,0v4.753A1.562,1.562,0,0,0,8.465,237.4H48.617a1.562,1.562,0,0,0,1.561-1.561V219.7A8.761,8.761,0,0,0,43.533,211.188Zm-2.741-19.833a1.11,1.11,0,0,1,1.109,1.109,3.512,3.512,0,0,1-2.116,3.219c.1-1.547.18-2.825.276-4.328ZM28.541,178.461h2.477a6.665,6.665,0,0,1,6.656,7.094l-.3,4.648-2.645-2.645a2.111,2.111,0,0,0-1.5-.622h-.07a4.455,4.455,0,0,1-3.171-1.313l-.871-.871a2.111,2.111,0,0,0-1.5-.623h-4.9a2.12,2.12,0,0,0-1.768.946l-1.4,2.093A8.988,8.988,0,0,1,28.541,178.461Zm-13.359,14a1.11,1.11,0,0,1,1.109-1.109h.731l.276,4.328A3.512,3.512,0,0,1,15.182,192.463Zm4.977,4.852L19.8,191.75l3.246-4.869h4.307l.688.688a7.186,7.186,0,0,0,4.924,2.117l4.175,4.175-.221,3.455a8.4,8.4,0,0,1-16.764,0Zm8.382,16.73L23.4,210.193a5.442,5.442,0,0,0,.986-3.065,11.116,11.116,0,0,0,8.3,0,5.442,5.442,0,0,0,.986,3.065Z" transform="translate(-6.904 -143.475)" fill="#12263f"/>
      <path id="Trazado_749718" data-name="Trazado 749718" d="M138.97,431.883a3.909,3.909,0,1,0-3.908,3.909A3.913,3.913,0,0,0,138.97,431.883Zm-5.065,0a1.157,1.157,0,1,1,1.157,1.157A1.158,1.158,0,0,1,133.9,431.883Z" transform="translate(-108.359 -349.462)" fill="#12263f"/>
      <path id="Trazado_749719" data-name="Trazado 749719" d="M390,271.366h.239a2.913,2.913,0,0,0,2.91-2.91v-2.012a1.376,1.376,0,0,0-2.752,0v2.012a.158.158,0,0,1-.158.158H390a1.376,1.376,0,0,0,0,2.752Z" transform="translate(-318.599 -216.442)" fill="#12263f"/>
      <path id="Trazado_749720" data-name="Trazado 749720" d="M330.4,223.052a11.894,11.894,0,0,0,3.927-5.6,2.034,2.034,0,0,0-1.93-2.677h-.759a5.063,5.063,0,0,1-5.053-4.877,6.086,6.086,0,0,0,4.893-5.96,3.772,3.772,0,0,0-3.768-3.768h-.479l.021-.331c.024-.374.03-.753.017-1.126a1.376,1.376,0,1,0-2.75.094c.01.284.005.572-.013.857l-.111,1.74a19.082,19.082,0,0,1-5.172-6.374,2.267,2.267,0,0,0-3.631-.59l-1.132,1.132a19.073,19.073,0,0,1-7.1,4.476l-.024-.384a8.6,8.6,0,0,1,15.168-6.09,1.376,1.376,0,1,0,2.1-1.773,11.356,11.356,0,0,0-20.019,8.038l.021.331h-.479a3.772,3.772,0,0,0-3.768,3.768,6.086,6.086,0,0,0,4.893,5.96,5.062,5.062,0,0,1-5.053,4.877h-.759a2.034,2.034,0,0,0-1.929,2.677,11.893,11.893,0,0,0,3.928,5.6,11.685,11.685,0,0,0-4.624,9.276v13.352a1.562,1.562,0,0,0,1.561,1.561h35.087a1.562,1.562,0,0,0,1.561-1.561V232.327A11.683,11.683,0,0,0,330.4,223.052Zm.946-5.533a9.145,9.145,0,0,1-3.594,4.025,11.525,11.525,0,0,0-1.166-.4l-3-.857a1.347,1.347,0,0,1-.973-1.29v-2.459a10.877,10.877,0,0,0,2.41-2.674A7.812,7.812,0,0,0,331.35,217.518ZM309.7,222.663a4.114,4.114,0,0,0,2.279-3.669v-.869a10.751,10.751,0,0,0,7.885,0v.869a4.115,4.115,0,0,0,2.279,3.669v.407a6.222,6.222,0,1,1-12.444,0v-.407Zm18.013-19.745a1.017,1.017,0,0,1,1.016,1.016,3.328,3.328,0,0,1-1.928,3.016c.15-2.345.118-1.855.257-4.032Zm-11.3-5.4.664-.664a21.846,21.846,0,0,0,6.088,7.071l1.027.77-.249,3.91a8.033,8.033,0,0,1-16.033,0l-.365-5.713.375-.125A21.835,21.835,0,0,0,316.41,197.515Zm-13.293,6.42a1.017,1.017,0,0,1,1.016-1.016h.655l.257,4.032A3.328,3.328,0,0,1,303.117,203.935ZM300.5,217.518a7.813,7.813,0,0,0,6.322-3.657,10.874,10.874,0,0,0,2.41,2.674v2.459a1.347,1.347,0,0,1-.973,1.29l-.3.085-.01,0-2.69.769a11.492,11.492,0,0,0-1.166.4A9.143,9.143,0,0,1,300.5,217.518ZM312.8,240.8l3.12-3.12,3.12,3.119-3.12,3.12Zm19.472,3.689H327.43v-9.261a1.376,1.376,0,0,0-2.752,0v9.261h-5.433l2.573-2.573a1.581,1.581,0,0,0,0-2.233l-4.778-4.778a1.578,1.578,0,0,0-2.233,0l-4.779,4.779a1.581,1.581,0,0,0,0,2.233l2.573,2.573h-5.433v-9.261a1.376,1.376,0,0,0-2.752,0v9.261h-4.846v-12.16a8.92,8.92,0,0,1,6.442-8.541l.948-.271a8.974,8.974,0,0,0,17.926,0l.948.271a8.919,8.919,0,0,1,6.442,8.54v12.161Z" transform="translate(-243.634 -153.313)" fill="#12263f"/>
    </g>
  </g>
</svg>
