<svg xmlns="http://www.w3.org/2000/svg" width="148.502" height="148.502" viewBox="0 0 148.502 148.502">
  <g id="Grupo_1020325" data-name="Grupo 1020325" transform="translate(2737.234 10574.951)">
    <circle id="Elipse_8508" data-name="Elipse 8508" cx="74.251" cy="74.251" r="74.251" transform="translate(-2737.234 -10574.951)" fill="#fff"/>
    <g id="Grupo_1019262" data-name="Grupo 1019262" transform="translate(-2716.859 -10547.664)">
      <path id="chat" d="M36.325,0H13.962a10.212,10.212,0,0,0-10.2,10.2V23.975a10.214,10.214,0,0,0,9.566,10.181v8.228a1.017,1.017,0,0,0,1.625.815l12.1-9.024h9.271a10.212,10.212,0,0,0,10.2-10.2V10.2A10.212,10.212,0,0,0,36.325,0Zm8.166,23.975a8.175,8.175,0,0,1-8.166,8.166H26.717a1.017,1.017,0,0,0-.608.2L15.362,40.357v-7.2a1.017,1.017,0,0,0-1.017-1.017h-.383A8.175,8.175,0,0,1,5.8,23.975V10.2a8.175,8.175,0,0,1,8.166-8.166H36.325A8.175,8.175,0,0,1,44.491,10.2Z" transform="translate(28.529 27.795)" fill="#12263f" stroke="#12263f" stroke-width="2"/>
      <g id="recycle" transform="translate(0 0)">
        <path id="Trazado_749721" data-name="Trazado 749721" d="M151.775,177.53l-10.064,13.418h6.709a40.238,40.238,0,0,1-73.747,22.293l-4.2,5.6a46.906,46.906,0,0,0,84.658-27.9h6.709L151.775,177.53Z" transform="translate(-54.492 -143.984)" fill="#12263f" stroke="#fff" stroke-width="2"/>
        <path id="Trazado_749722" data-name="Trazado 749722" d="M13.418,76.553A40.238,40.238,0,0,1,87.165,54.26l4.2-5.6a46.906,46.906,0,0,0-84.658,27.9H0L10.064,89.971,20.127,76.553H13.418Z" transform="translate(0 -29.589)" fill="#12263f" stroke="#fff" stroke-width="2"/>
      </g>
    </g>
  </g>
</svg>
