<svg xmlns="http://www.w3.org/2000/svg" width="148.502" height="148.502" viewBox="0 0 148.502 148.502">
  <g id="Grupo_1020326" data-name="Grupo 1020326" transform="translate(2363.862 10574.951)">
    <circle id="Elipse_8508" data-name="Elipse 8508" cx="74.251" cy="74.251" r="74.251" transform="translate(-2363.862 -10574.951)" fill="#fff"/>
    <g id="target-audience" transform="translate(-2343.125 -10550.196)">
      <path id="Trazado_749723" data-name="Trazado 749723" d="M85.72,57.956a14.914,14.914,0,1,0,14.912,14.917A14.931,14.931,0,0,0,85.72,57.956Zm0,21.655a6.741,6.741,0,1,1,6.74-6.738A6.746,6.746,0,0,1,85.72,79.611Z" transform="translate(-32.23 -30.419)" stroke="#fff" stroke-width="4"/>
      <path id="Trazado_749724" data-name="Trazado 749724" d="M107.069,56.861H98.8A45.522,45.522,0,0,0,57.62,15.682V7.413H49.448v8.27A45.523,45.523,0,0,0,8.269,56.862H0v8.172H8.269a45.449,45.449,0,0,0,90.531,0h8.269ZM41.65,96.279V82.035a6.4,6.4,0,0,1,6.392-6.393H59.027a6.4,6.4,0,0,1,6.392,6.393V96.279a37.13,37.13,0,0,1-23.77,0Zm31.942-3.924V82.036A14.581,14.581,0,0,0,59.027,67.47H48.041A14.582,14.582,0,0,0,33.477,82.036V92.354a37.318,37.318,0,0,1-17-27.319h7.848V56.862H16.478a37.351,37.351,0,0,1,32.97-32.971v7.848h8.172V23.89A37.35,37.35,0,0,1,90.592,56.862H82.743v8.172h7.848A37.319,37.319,0,0,1,73.591,92.354Z" transform="translate(0 -7.413)" stroke="#fff" stroke-width="4"/>
    </g>
  </g>
</svg>
