<svg xmlns="http://www.w3.org/2000/svg" width="148.502" height="148.502" viewBox="0 0 148.502 148.502">
  <g id="Grupo_1020327" data-name="Grupo 1020327" transform="translate(3098.862 10185.971)">
    <circle id="Elipse_8508" data-name="Elipse 8508" cx="74.251" cy="74.251" r="74.251" transform="translate(-3098.862 -10185.971)" fill="#fff"/>
    <g id="receiver" transform="translate(-3072.793 -10154.396)">
      <path id="Trazado_749725" data-name="Trazado 749725" d="M313.669,44.246l1.21,1.687-1.938,1.391-1.211-1.687Zm0,0" transform="translate(-246.993 -35.101)"/>
      <path id="Trazado_749726" data-name="Trazado 749726" d="M92.555,251.915a6.562,6.562,0,0,0-6.078-.709l-.045.018-.874.418a7.185,7.185,0,0,0-8.724-1.973l-.434.21a5.891,5.891,0,0,0-7.675-2.363L59.049,252.2a6.509,6.509,0,0,0-2.424-.466H36.4l-1.231.011A26.105,26.105,0,0,0,15.7,260.7H11.553v-2.946H0v2.077H9.476v19.135H0v2.077H11.553V278h5.531l36.7,2.2q.243.015.487.015a8.19,8.19,0,0,0,3.544-.806l33.445-15.975a6.565,6.565,0,0,0,1.3-11.518Zm-16.175.743,1.535-.745a4.706,4.706,0,0,1,5.3.847l-20,9.562H61.758a6.507,6.507,0,0,0,1.358-3.242Zm-6.569-2.9a3.4,3.4,0,0,1,4.334,1.212L62.9,256.417a6.537,6.537,0,0,0-1.484-2.6Zm21.912,10.452a4.05,4.05,0,0,1-1.411.917l-.045.017-33.53,16.017a5.694,5.694,0,0,1-2.805.551L17.2,275.505l-5.643,0V263.189h5.3l.374-.448A23.62,23.62,0,0,1,35.2,254.233l1.219-.011H56.626a4.05,4.05,0,0,1,.014,8.1H41.3l-6.04,1.981.776,2.368,5.662-1.857H63.786l23.631-11.3a4.074,4.074,0,0,1,4.305,6.7Zm0,0" transform="translate(0 -195.688)"/>
      <path id="Trazado_749727" data-name="Trazado 749727" d="M29.406,317.594h2.077v2.261H29.406Zm0,0" transform="translate(-23.3 -251.682)"/>
      <path id="Trazado_749728" data-name="Trazado 749728" d="M29.406,336.316h2.077v11.8H29.406Zm0,0" transform="translate(-23.3 -266.516)"/>
      <path id="Trazado_749729" data-name="Trazado 749729" d="M225.875,187.23v10.784l-2.192-2.193-1.468,1.469,4.7,4.7,4.724-4.724-1.468-1.468-2.217,2.217V187.23Zm0,0" transform="translate(-176.068 -148.391)"/>
      <path id="Trazado_749730" data-name="Trazado 749730" d="M120.776,42.378l-2.2-2.2L117.1,41.642l4.7,4.7,4.724-4.724-1.468-1.468-2.2,2.2V37.282h15.48v5.1l-2.2-2.2-1.467,1.469,4.7,4.7,4.724-4.724-1.468-1.468-2.2,2.2V37.282h20.129V.208h-59.89V37.282h20.128Zm-16.07-7.173,18.481-14.413-1.278-1.637L102.725,34.117V3.269l24.856,17.837a5.163,5.163,0,0,0,6.023,0l10.221-7.335-1.211-1.687-10.22,7.335a3.087,3.087,0,0,1-3.6,0L104.914,2.285H156.27L148.2,8.077l1.211,1.687,9.052-6.5V34.116l-19.186-14.96L138,20.792l18.482,14.413H140.409V32.246h-2.077v2.959h-15.48V32.246h-2.077v2.959Zm0,0" transform="translate(-79.746 -0.208)"/>
      <path id="Trazado_749731" data-name="Trazado 749731" d="M239.84,149.48h2.077v3.011H239.84Zm0,0" transform="translate(-190.032 -118.481)"/>
      <path id="Trazado_749732" data-name="Trazado 749732" d="M197.57,131.055h2.077v3.011H197.57Zm0,0" transform="translate(-156.541 -103.882)"/>
      <path id="Trazado_749733" data-name="Trazado 749733" d="M282.109,131.055h2.077v3.011h-2.077Zm0,0" transform="translate(-223.523 -103.882)"/>
    </g>
  </g>
</svg>
