<svg xmlns="http://www.w3.org/2000/svg" width="148.502" height="148.502" viewBox="0 0 148.502 148.502">
  <g id="Grupo_1020321" data-name="Grupo 1020321" transform="translate(-334.766 -1125.049)">
    <circle id="Elipse_8508" data-name="Elipse 8508" cx="74.251" cy="74.251" r="74.251" transform="translate(334.766 1125.049)" fill="#fff"/>
    <path id="chat" d="M51.626,0H18.755A15.01,15.01,0,0,0,3.762,14.993V35.241A15.013,15.013,0,0,0,17.823,50.205V62.3a1.5,1.5,0,0,0,2.389,1.2L38,50.234H51.626A15.01,15.01,0,0,0,66.619,35.24V14.993A15.011,15.011,0,0,0,51.626,0Zm12,35.241a12.017,12.017,0,0,1-12,12H37.5a1.5,1.5,0,0,0-.894.3l-15.8,11.779V48.739a1.5,1.5,0,0,0-1.5-1.5h-.562a12.016,12.016,0,0,1-12-12V14.993a12.016,12.016,0,0,1,12-12h32.87a12.017,12.017,0,0,1,12,12Z" transform="translate(373.347 1167.402)" fill="#12263f" stroke="#12263f" stroke-width="2"/>
  </g>
</svg>
