<svg xmlns="http://www.w3.org/2000/svg" width="148.502" height="148.502" viewBox="0 0 148.502 148.502">
  <g id="Grupo_1020322" data-name="Grupo 1020322" transform="translate(-702.766 -1125.049)">
    <circle id="Elipse_8508" data-name="Elipse 8508" cx="74.251" cy="74.251" r="74.251" transform="translate(702.766 1125.049)" fill="#fff"/>
    <g id="journalist" transform="translate(740.67 1146.352)">
      <path id="Trazado_749693" data-name="Trazado 749693" d="M142.832,203.416A3.419,3.419,0,0,1,139.416,200H136a6.832,6.832,0,1,0,13.664,0h-3.416A3.419,3.419,0,0,1,142.832,203.416Zm0,0" transform="translate(-106.964 -157.3)" fill="#12263f"/>
      <path id="Trazado_749694" data-name="Trazado 749694" d="M63.561,64.365l-2.073-.692V25.621a25.62,25.62,0,0,0-51.24,0V63.673l-2.073.692A11.939,11.939,0,0,0,0,75.708V90.524a8.55,8.55,0,0,0,8.54,8.54h1.708V105.9H71.736V75.708a11.939,11.939,0,0,0-8.175-11.343ZM68.32,75.708V85.4H61.488V75.152H58.072V102.48H41.75a6.757,6.757,0,0,0,.95-3.416V81.984h3.416V71.736H43.407l1.086-1.087a11.293,11.293,0,0,0,3.326-7.931L62.48,67.6a8.53,8.53,0,0,1,5.84,8.1ZM32.452,99.064v-.243a6.8,6.8,0,0,0,0-13.179V81.984h6.832v17.08a3.416,3.416,0,0,1-6.832,0ZM29.657,68.235a7.955,7.955,0,0,1,5.625-13.579h1.173a7.955,7.955,0,0,1,5.623,13.579l-3.5,3.5H33.159ZM42.6,53.061a11.3,11.3,0,0,0-6.151-1.821H35.28a11.29,11.29,0,0,0-6.15,1.822A15.325,15.325,0,0,1,20.5,39.285V27.329H22.2a18.893,18.893,0,0,0,13.664-5.9,18.893,18.893,0,0,0,13.664,5.9H51.24V39.285A15.311,15.311,0,0,1,42.6,53.061ZM29.036,78.568V75.152H42.7v3.416ZM47.192,58.907a11.357,11.357,0,0,0-1.868-3.393A18.718,18.718,0,0,0,53.966,44.3a8.438,8.438,0,0,0,4.106-1.648V62.534Zm7.464-19.623V31.059a5.092,5.092,0,0,1-.053,9.635c.036-.467.053-.937.053-1.409ZM35.868,3.417a22.23,22.23,0,0,1,22.2,22.2v3.46A8.455,8.455,0,0,0,54.656,27.5v-3.59H49.532a15.449,15.449,0,0,1-12.3-6.149l-1.366-1.822L34.5,17.764a15.449,15.449,0,0,1-12.3,6.149H17.08V27.5a8.477,8.477,0,0,0-3.416,1.578V25.621a22.23,22.23,0,0,1,22.2-22.2ZM17.132,40.694a5.092,5.092,0,0,1-.053-9.635v8.226c0,.473.017.942.053,1.409Zm-3.469,1.962A8.438,8.438,0,0,0,17.77,44.3a18.736,18.736,0,0,0,8.643,11.208,11.4,11.4,0,0,0-1.87,3.393L13.664,62.534ZM9.256,67.6l14.661-4.886a11.285,11.285,0,0,0,3.326,7.931l1.086,1.087H25.62V81.984h3.416V85.4H13.664V75.152H10.248v6.832H3.416V75.708a8.53,8.53,0,0,1,5.84-8.1Zm-5.84,22.92V85.4h6.832v3.416h20.5a3.416,3.416,0,1,1,0,6.832H8.54A5.131,5.131,0,0,1,3.416,90.524Zm10.248,8.54H29.036a6.757,6.757,0,0,0,.95,3.416H13.664Zm47.824,3.416V88.816H68.32V102.48Zm0,0" transform="translate(0 -0.001)" fill="#12263f"/>
      <path id="Trazado_749695" data-name="Trazado 749695" d="M123.416,153.708A1.708,1.708,0,1,1,121.708,152,1.708,1.708,0,0,1,123.416,153.708Zm0,0" transform="translate(-94.38 -119.548)" fill="#12263f"/>
      <path id="Trazado_749696" data-name="Trazado 749696" d="M203.416,153.708A1.708,1.708,0,1,1,201.708,152,1.708,1.708,0,0,1,203.416,153.708Zm0,0" transform="translate(-157.3 -119.548)" fill="#12263f"/>
    </g>
  </g>
</svg>
