<svg xmlns="http://www.w3.org/2000/svg" width="12" height="12" viewBox="0 0 12 12">
  <g id="big-data_1_" data-name="big-data (1)" transform="translate(0)">
    <g id="Grupo_1019372" data-name="Grupo 1019372">
      <g id="Grupo_1019371" data-name="Grupo 1019371">
        <path id="Trazado_749778" data-name="Trazado 749778" d="M11.3,10.593a.7.7,0,0,0-.3.069L7.972,7.64,8.3,7.309l2.182,2.182a.237.237,0,0,0,.331,0l.223-.223a.235.235,0,0,0,0-.331.239.239,0,0,0-.331,0l-.057.057L8.635,6.978l.331-.331L10.125,7.8a.237.237,0,0,0,.331,0l.554-.554a.7.7,0,1,0-.34-.323l-.38.38L9.3,6.315l.149-.149a.234.234,0,0,0,0-.331L9.3,5.685,10.892,4.09a.7.7,0,1,0-.274-.389L8.966,5.354l-.331-.331L9.981,3.676a.234.234,0,0,0-.331-.331L8.3,4.691l-.331-.331,3.022-3.022a.7.7,0,1,0-.331-.331L7.64,4.028,7.309,3.7,9.358,1.647a.237.237,0,0,0,0-.331L9,.96a.237.237,0,0,0-.332,0,.239.239,0,0,0,0,.331l.19.19L6.978,3.365l-.331-.331,1.14-1.14a.236.236,0,0,0,0-.331l-.547-.547a.7.7,0,1,0-.336.327l.386.386L6.315,2.7l-.149-.149a.234.234,0,0,0-.331,0L5.685,2.7,4.09,1.107a.7.7,0,1,0-.389.274L5.354,3.033l-.331.331L3.934,2.277a.234.234,0,0,0-.331.331L4.691,3.7l-.331.331L1.337,1.006a.7.7,0,1,0-.331.331c.016-.007,2.732,2.732,3.022,3.022L3.7,4.691l-1.9-1.9c-.111-.111-.265-.206-.4-.069L.96,3.154a.234.234,0,1,0,.332.331l.268-.268,1.8,1.8-.331.331-1.1-1.1a.234.234,0,0,0-.331,0l-.537.537a.7.7,0,1,0,.3.361l.4-.4.939.939-.149.149a.234.234,0,0,0,0,.331l.149.149L1.107,7.909a.7.7,0,1,0,.274.389L3.033,6.646l.331.331-1.17,1.17a.234.234,0,0,0,0,.331.237.237,0,0,0,.331,0L3.7,7.309l.331.331L1.006,10.662a.7.7,0,1,0,.331.331c-.009-.018,2.76-2.76,3.022-3.022l.331.331L2.675,10.319a.246.246,0,0,0-.034.365L3,11.039a.234.234,0,0,0,.332-.331l-.19-.19L5.022,8.635l.331.331L4.2,10.125a.238.238,0,0,0,0,.331l.554.554a.7.7,0,1,0,.323-.34l-.38-.38L5.685,9.3l.149.149a.236.236,0,0,0,.331,0L6.315,9.3l1.595,1.595a.7.7,0,1,0,.389-.274L6.646,8.966l.331-.331L8.083,9.751a.24.24,0,0,0,.331,0,.234.234,0,0,0,0-.331L7.308,8.3l.332-.332,3.022,3.022a.7.7,0,1,0,.634-.4Zm0-4.219a.234.234,0,1,1-.234.234A.235.235,0,0,1,11.3,6.375Zm0-3.094a.234.234,0,1,1-.234.234A.235.235,0,0,1,11.3,3.281Zm0-2.812A.234.234,0,1,1,11.062.7.235.235,0,0,1,11.3.469ZM6.609.937A.234.234,0,1,1,6.844.7.235.235,0,0,1,6.609.937Zm-3.094,0A.234.234,0,1,1,3.75.7.235.235,0,0,1,3.516.937ZM.7.937A.234.234,0,1,1,.937.7.235.235,0,0,1,.7.937Zm0,4.687A.234.234,0,1,1,.937,5.39.235.235,0,0,1,.7,5.625Zm0,3.094a.234.234,0,1,1,.234-.234A.235.235,0,0,1,.7,8.719Zm0,2.812A.234.234,0,1,1,.937,11.3.235.235,0,0,1,.7,11.531Zm4.687-.469a.234.234,0,1,1-.234.234A.235.235,0,0,1,5.39,11.062Zm2.942.056a.248.248,0,0,1,.152-.056.235.235,0,1,1-.152.056ZM6.994,6.663l.713-.713a.234.234,0,1,0-.331-.331l-.713.713-.5-.5a.234.234,0,0,0-.331,0L5.1,6.572a.234.234,0,1,0,.331.331L6,6.331,7.309,7.64,6,8.95,5.347,8.3l.819-.819a.234.234,0,1,0-.331-.331l-.819.819-.988-.988.854-.854a.234.234,0,0,0,0-.331l-.275-.275a.234.234,0,0,0-.331.331l.109.109L3.7,6.646,3.05,6,5.022,4.028l1.44,1.44a.237.237,0,0,0,.331,0,.234.234,0,0,0,0-.331L5.354,3.7,6,3.05,8.95,6,7.64,7.309Zm4.3,4.868a.235.235,0,0,1-.234-.234.248.248,0,0,1,.234-.234.234.234,0,0,1,0,.469Z" fill="#0082ff"/>
      </g>
    </g>
    <g id="Grupo_1019374" data-name="Grupo 1019374" transform="translate(3.587 11.28)">
      <g id="Grupo_1019373" data-name="Grupo 1019373">
        <path id="Trazado_749779" data-name="Trazado 749779" d="M153.482,482.24a.242.242,0,1,0,.242.242A.245.245,0,0,0,153.482,482.24Z" transform="translate(-153.24 -482.24)" fill="#0082ff"/>
      </g>
    </g>
    <g id="Grupo_1019376" data-name="Grupo 1019376" transform="translate(11.613 8.396)">
      <g id="Grupo_1019375" data-name="Grupo 1019375" transform="translate(0 0)">
        <circle id="Elipse_8544" data-name="Elipse 8544" fill="#0082ff"/>
      </g>
    </g>
    <g id="Grupo_1019378" data-name="Grupo 1019378" transform="translate(0 3.542)">
      <g id="Grupo_1019377" data-name="Grupo 1019377" transform="translate(0 0)">
        <circle id="Elipse_8545" data-name="Elipse 8545" cx="0.5" cy="0.5" r="0.5" fill="#0082ff"/>
      </g>
    </g>
    <g id="Grupo_1019380" data-name="Grupo 1019380" transform="translate(7.728 0.667)">
      <g id="Grupo_1019379" data-name="Grupo 1019379" transform="translate(0)">
        <ellipse id="Elipse_8546" data-name="Elipse 8546" cx="0.5" rx="0.5" fill="#0082ff"/>
      </g>
    </g>
  </g>
</svg>
