<svg xmlns="http://www.w3.org/2000/svg" width="14.163" height="12.635" viewBox="0 0 14.163 12.635">
  <path id="shopping-cart" d="M10.069,37.338a.466.466,0,0,0,0-.932c-1.72.006-6.256,0-8.03,0a1.032,1.032,0,0,1-1.01-.8L.022,31.242a.838.838,0,0,1,.814-1.027c.714,0,6.773-.027,9.877-.04L11.2,28.35a1,1,0,0,1,.968-.741h1.576a.415.415,0,1,1,0,.83H12.172a.173.173,0,0,0-.167.127l-1.889,7.01a1.3,1.3,0,0,1,1.249,1.318,1.3,1.3,0,0,1-1.3,1.274H9.464a1.453,1.453,0,1,1-2.625,0H4.217A1.453,1.453,0,1,1,1.6,38.146a.415.415,0,0,1,.132-.808ZM7.528,38.791a.623.623,0,1,0,.623-.623h0A.623.623,0,0,0,7.528,38.791ZM2.9,39.413a.623.623,0,0,0,.01-1.245h-.02a.623.623,0,0,0,.01,1.245ZM.832,31.048a.007.007,0,0,0,0,.007l.425,1.838H2.693l-.245-1.855-1.609.006a.007.007,0,0,0-.006,0Zm4.28,4.53V33.724H3.64l.245,1.854Zm2.059,0,.247-1.854H5.943v1.854Zm1.911,0h0a.225.225,0,0,0,.217-.166l.455-1.688h-1.5l-.247,1.854ZM7.528,32.894l.25-1.876-1.835.007v1.869Zm-2.416,0V31.028l-1.827.007.245,1.858Zm3.5-1.88-.25,1.88H9.979l.509-1.887ZM2.039,35.578H3.047L2.8,33.724H1.447l.391,1.694A.2.2,0,0,0,2.039,35.578Z" transform="translate(0 -27.609)" fill="#eb6f2d"/>
</svg>
