<svg xmlns="http://www.w3.org/2000/svg" width="41.395" height="60" viewBox="0 0 41.395 60">
  <g id="figma" transform="translate(-4.25 -1.25)">
    <path id="Trazado_621569" data-name="Trazado 621569" d="M4.25,12.645a11.4,11.4,0,0,1,11.4-11.4h11.4V24.041h-11.4a11.4,11.4,0,0,1-11.4-11.4Zm11.4-7.209a7.209,7.209,0,0,0,0,14.419h7.209V5.436Z" transform="translate(0)" fill-rule="evenodd"/>
    <path id="Trazado_621570" data-name="Trazado 621570" d="M33.707,12.645a11.4,11.4,0,0,0-11.4-11.4h-11.4V24.041h11.4a11.4,11.4,0,0,0,11.4-11.4Zm-11.4-7.209a7.209,7.209,0,1,1,0,14.419H15.1V5.436Z" transform="translate(11.938)" fill-rule="evenodd"/>
    <path id="Trazado_621571" data-name="Trazado 621571" d="M33.707,19.312a11.4,11.4,0,1,0-11.4,11.4,11.4,11.4,0,0,0,11.4-11.4ZM22.312,12.1A7.209,7.209,0,1,1,15.1,19.312,7.209,7.209,0,0,1,22.312,12.1Z" transform="translate(11.938 11.938)" fill-rule="evenodd"/>
    <path id="Trazado_621572" data-name="Trazado 621572" d="M4.25,19.312a11.4,11.4,0,0,1,11.4-11.4h11.4V30.707h-11.4a11.4,11.4,0,0,1-11.4-11.4Zm11.4-7.209a7.209,7.209,0,0,0,0,14.419h7.209V12.1Z" transform="translate(0 11.938)" fill-rule="evenodd"/>
    <path id="Trazado_621573" data-name="Trazado 621573" d="M4.25,25.979a11.4,11.4,0,0,1,11.4-11.4h11.4v11.4a11.4,11.4,0,1,1-22.791,0Zm11.4-7.209a7.209,7.209,0,1,0,7.209,7.209V18.77Z" transform="translate(0 23.876)" fill-rule="evenodd"/>
  </g>
</svg>
