<svg id="dubbing" xmlns="http://www.w3.org/2000/svg" width="12" height="12" viewBox="0 0 12 12">
  <path id="Trazado_749693" data-name="Trazado 749693" d="M12,1.908V1.526H4a.392.392,0,0,0-.4.382H2.8V1.336A1.369,1.369,0,0,0,1.4,0,1.369,1.369,0,0,0,0,1.336V4.77A1.369,1.369,0,0,0,1.4,6.106,1.369,1.369,0,0,0,2.8,4.77V2.29h.8a.392.392,0,0,0,.4.382h8V2.29H5V1.908ZM.4,1.336a.978.978,0,0,1,1-.954.978.978,0,0,1,1,.954V2.29H.4Zm2,3.434a.978.978,0,0,1-1,.954.978.978,0,0,1-1-.954v-2.1h2ZM4.6,2.29H4V1.908h.6Zm0,0" fill="#0082ff"/>
  <path id="Trazado_749694" data-name="Trazado 749694" d="M32,192h.382v.382H32Zm0,0" transform="translate(-31.237 -187.192)" fill="#0082ff"/>
  <path id="Trazado_749695" data-name="Trazado 749695" d="M64,192h.382v.382H64Zm0,0" transform="translate(-62.474 -187.192)" fill="#0082ff"/>
  <path id="Trazado_749696" data-name="Trazado 749696" d="M32,160h.382v.382H32Zm0,0" transform="translate(-31.237 -155.994)" fill="#0082ff"/>
  <path id="Trazado_749697" data-name="Trazado 749697" d="M64,160h.382v.382H64Zm0,0" transform="translate(-62.474 -155.994)" fill="#0082ff"/>
  <path id="Trazado_749698" data-name="Trazado 749698" d="M32,128h.382v.382H32Zm0,0" transform="translate(-31.237 -124.795)" fill="#0082ff"/>
  <path id="Trazado_749699" data-name="Trazado 749699" d="M64,128h.382v.382H64Zm0,0" transform="translate(-62.474 -124.795)" fill="#0082ff"/>
  <path id="Trazado_749700" data-name="Trazado 749700" d="M143.06,128.572v7.251a.191.191,0,0,1-.191.191h-1.908a.191.191,0,0,1-.191-.191v-.572a.573.573,0,0,0,.572-.572v-.763h.191a.573.573,0,0,0,.572-.572v-1.526a.382.382,0,0,0,.382-.382v-.191a3.244,3.244,0,1,0-6.487,0v.191a.382.382,0,0,0,.382.382v1.526a.573.573,0,0,0,.572.572h.191v.763a.573.573,0,0,0,.572.572h.382a.573.573,0,0,0,.572-.572V132.77a.573.573,0,0,0-.572-.572h-.382a.573.573,0,0,0-.572.572v.763h-.191a.191.191,0,0,1-.191-.191v-1.526h.191a.573.573,0,0,0,.572-.572,1.717,1.717,0,0,1,3.434,0,.573.573,0,0,0,.572.572h.191v1.526a.191.191,0,0,1-.191.191h-.191v-.763a.573.573,0,0,0-.572-.572h-.382a.573.573,0,0,0-.572.572v1.908a.573.573,0,0,0,.572.572v.572a.573.573,0,0,0,.572.572h1.908a.573.573,0,0,0,.572-.572v-7.251a.191.191,0,0,1,.191-.191h.572V128h-.572A.573.573,0,0,0,143.06,128.572Zm-5.533,4.2a.191.191,0,0,1,.191-.191h.382a.191.191,0,0,1,.191.191v1.908a.191.191,0,0,1-.191.191h-.382a.191.191,0,0,1-.191-.191Zm3.816-1.526a2.1,2.1,0,0,0-4.2,0,.191.191,0,0,1-.191.191h-.572v-.191a2.862,2.862,0,0,1,5.724,0v.191h-.572A.191.191,0,0,1,141.343,131.244Zm-1.145,3.434V132.77a.191.191,0,0,1,.191-.191h.382a.191.191,0,0,1,.191.191v1.908a.191.191,0,0,1-.191.191h-.382A.191.191,0,0,1,140.2,134.678Zm0,0" transform="translate(-132.205 -124.395)" fill="#0082ff"/>
</svg>
