<svg xmlns="http://www.w3.org/2000/svg" width="524" height="295" viewBox="0 0 524 295">
  <g id="Grupo_1020316" data-name="Grupo 1020316" transform="translate(-850.668 -4200)">
    <rect id="Rectángulo_356550" data-name="Rectángulo 356550" width="524" height="295" rx="20" transform="translate(850.668 4200)" fill="#fff"/>
    <path id="Rappi-O557pvqXw_brandlogos.net" d="M589.659,403.65a14.188,14.188,0,1,1-10.148,4.155A14.168,14.168,0,0,1,589.659,403.65Zm-279.576,3.457a71.174,71.174,0,0,1,15.449,1.715,49.421,49.421,0,0,1,13.7,5.138c3.993,2.284,6.847,5.708,9.7,9.131a23.434,23.434,0,0,1,3.993,12.595,27.116,27.116,0,0,1-3.423,13.7A47.765,47.765,0,0,1,340.37,461.4a66.04,66.04,0,0,1-13.164,8.562,62.734,62.734,0,0,1-13.164,5.138l-.569.569c0,2.284.569,4.569.569,6.846a28.641,28.641,0,0,0,1.139,6.887,28.644,28.644,0,0,0,1.139,6.846,39.313,39.313,0,0,1,1.715,4.569,4.155,4.155,0,0,0,1.179,2.284,20.276,20.276,0,0,0,2.284,5.138c.569,1.749,1.715,2.888,2.284,4.033,1.139,1.715,2.284,2.854,2.854,3.993,1.139,1.139,2.284,1.715,3.423,2.854,1.139.569,2.284,1.715,3.423,2.284l3.423,1.715c1.139.569,2.318.569,3.457,1.139,1.139,0,2.284.569,3.993.569h3.423c1.715-.569,2.854-.569,3.993-1.139a13.475,13.475,0,0,0,4.569-1.139c1.139-.57,2.888-1.139,4.033-1.715.569-.569,1.139-.569,1.715-1.139a5.423,5.423,0,0,1,5.708,1.139c1.139,1.715.569,3.993-1.139,5.708a7.879,7.879,0,0,1-2.284,1.715c-1.715,1.139-3.423,2.854-5.138,3.993s-3.457,2.284-5.172,3.457c-1.139.569-1.715.569-2.854,1.139a20.263,20.263,0,0,1-5.138,2.284l-5.111,1.681c-2.318.569-4.033.569-5.172,1.139H330.65c-1.715,0-3.423-.57-5.138-.57-.569,0-1.715-.569-2.284-.569s-1.715-.569-2.284-.569a14.444,14.444,0,0,1-4.033-2.284,9.2,9.2,0,0,1-3.993-2.284,15.366,15.366,0,0,1-3.423-2.888,5.844,5.844,0,0,1-2.854-3.423,24.838,24.838,0,0,1-3.423-3.993,33.883,33.883,0,0,1-2.284-4.569,11.972,11.972,0,0,1-2.318-4.569,17.1,17.1,0,0,1-2.284-5.708c-.569-1.715-1.139-3.457-1.715-5.742a20.285,20.285,0,0,0-1.139-5.708c0-2.284-.569-3.993-.569-5.708,0-.57-1.139-.57-1.139,0l-1.715,6.846c-1.139,3.423-1.715,5.708-2.284,7.992a49.511,49.511,0,0,0-1.139,5.742c-.569,2.854-2.284,3.993-4.569,4.569a11.463,11.463,0,0,1-7.457-.569,14.76,14.76,0,0,1-6.277-3.993A9.226,9.226,0,0,1,264.9,506.5a38.86,38.86,0,0,1,2.284-11.415,160.61,160.61,0,0,1,5.138-18.872c2.284-6.846,5.138-14.839,8.026-22.865,2.854-7.423,5.708-14.235,9.131-21.116a7.809,7.809,0,0,1,5.708-4.6c5.742-.569,10.846-.569,14.873.569a3.972,3.972,0,0,1,2.854,5.742c-2.284,6.277-5.138,11.985-7.423,18.262-1.715,4.569-3.423,9.165-5.138,13.734,0,.569.569,1.139.569.569l6.847-3.423a39.316,39.316,0,0,0,9.131-8.026,36.8,36.8,0,0,0,6.887-9.7,28.072,28.072,0,0,0,2.284-11.985c0-5.172-1.139-9.165-3.993-11.449a22.132,22.132,0,0,0-12.595-3.993,34.644,34.644,0,0,0-15.449,3.993c-4.569,2.854-9.131,6.277-11.985,9.741a42.017,42.017,0,0,0-8.026,12.554c-1.715,3.993-2.854,7.992-2.854,10.846a4.352,4.352,0,0,1-3.423,4.6,6.926,6.926,0,0,1-5.708-.569c-2.284-.569-4.033-2.318-5.742-4.033a14.52,14.52,0,0,1-2.854-9.131c0-2.854,1.715-6.847,3.993-11.415a54.21,54.21,0,0,1,10.846-12.595,57.225,57.225,0,0,1,17.726-10.277C292.912,408.252,300.938,407.107,310.083,407.107Zm224.106,30.288a12.971,12.971,0,0,1,9.165,3.423c2.284,1.715,3.993,5.138,5.138,8.562,1.139,3.993,1.139,8.026.569,13.164a54.83,54.83,0,0,1-4.569,17.123,59.044,59.044,0,0,1-7.423,16.018c-1.179,1.715-2.888,3.993-4.033,5.708a.556.556,0,0,0,.569.57,7.878,7.878,0,0,1,2.284-1.715,30.137,30.137,0,0,0,5.172-3.993,27.867,27.867,0,0,0,9.7-14.3l3.444-10.277a98.087,98.087,0,0,1,6.311-15.449,42.635,42.635,0,0,1,5.138-10.277,8.459,8.459,0,0,1,6.277-4.569,16.392,16.392,0,0,1,7.457,0A11.842,11.842,0,0,1,585.1,444.8c1.715,1.715,1.715,3.423,1.139,5.708-.569.569-1.139,2.284-2.284,5.138-1.139,2.318-2.284,5.172-3.993,8.6-1.139,3.423-2.854,7.423-4.6,11.415-1.139,3.423-2.284,7.457-3.423,10.31a43.375,43.375,0,0,0-.569,7.992c0,1.715,1.139,1.715,1.139,1.715.569,0,1.715,0,3.423-1.715,1.18-1.139,2.888-2.284,4.6-3.993,1.139-1.715,2.854-3.423,4.569-5.708,1.139-1.749,2.284-3.457,2.854-4.6a4.934,4.934,0,0,1,3.423-1.715c1.715,0,3.423.569,3.993,1.715a4.955,4.955,0,0,1,0,4.033c-1.139,1.139-2.854,3.993-5.138,7.423-2.854,3.993-5.708,7.423-9.131,11.415a61.538,61.538,0,0,1-10.846,10.31c-3.993,2.854-8.562,4.569-12.554,4.569a10.387,10.387,0,0,1-8.6-3.993,21.693,21.693,0,0,1-2.318-9.206v-1.139s-.569-.569-.569,0c-1.139.569-1.715,1.139-2.854,1.715a65.752,65.752,0,0,1-16.588,9.165,47.5,47.5,0,0,1-18.3,3.423h-2.278c-4.569,0-7.992-1.715-9.741-4.569-.569-.569-1.139-.569-1.139-1.139-.569-.569-1.139-.569-1.139,0-.569,2.284-1.139,4.569-1.715,6.277q-1.715,6.88-3.417,12.025a71.389,71.389,0,0,0-2.284,9.165,30.292,30.292,0,0,1-1.715,6.277c-.569,3.423-2.284,4.569-3.993,4.569a3.441,3.441,0,0,1-2.284.569,17.949,17.949,0,0,1-4.6-1.139c-2.284-.569-3.993-2.284-5.708-3.993A10.846,10.846,0,0,1,465.6,538c0-.569,0-1.715,1.139-6.887a124.285,124.285,0,0,0,3.423-12.554c1.139-3.993,2.284-7.423,3.423-11.449.569-.569,0-1.139-.569-.569a87.27,87.27,0,0,1-14.839,7.457,44.742,44.742,0,0,1-17.726,3.423h-2.888a11.4,11.4,0,0,1-9.7-4.569l-1.152-1.18c0-.569-.569-.569-1.139,0-.569,2.284-1.139,4.569-1.715,6.277q-1.715,6.847-3.423,11.985c-.569,3.423-1.715,6.311-2.284,9.165a53.562,53.562,0,0,0-1.179,6.277c-.569,3.423-2.854,4.569-4.569,4.569-.569.569-1.139.569-2.284.569a10.581,10.581,0,0,1-3.993-1.139,14.76,14.76,0,0,1-6.277-3.993,10.846,10.846,0,0,1-2.888-7.423c0-.569.569-1.715,1.749-6.887a70.2,70.2,0,0,1,3.423-12.554c.569-3.423,1.715-6.277,2.854-10.311a1.993,1.993,0,0,0-1.139-.569,48.271,48.271,0,0,1-5.708,5.172c-4.033,2.854-8.026,4.569-12.019,4.569a10.426,10.426,0,0,1-8.6-3.993l-1.688-3.4c0-1.749-1.715-1.749-2.854-1.139a7.652,7.652,0,0,1-3.993,3.423,13.605,13.605,0,0,1-6.277,3.423,15.943,15.943,0,0,1-7.457,1.715,13.985,13.985,0,0,1-9.131-3.423,22.424,22.424,0,0,1-5.708-8.6c-1.186-4-1.186-8.568-1.186-13.707a123.165,123.165,0,0,1,3.423-16.588c4.569-13.13,9.7-22.3,16.588-28.572s13.7-9.131,20.011-9.131c2.854,0,5.708.569,7.423,1.715a17.374,17.374,0,0,1,4.569,4.569c.569,1.139.569,2.284,1.139,3.993h.569c0-.569.569-1.139,1.139-1.715,1.139-2.854,3.423-3.993,6.311-4.569a16.268,16.268,0,0,1,7.423,0,11.842,11.842,0,0,1,5.708,3.423c1.139,1.715,1.715,3.423.569,5.708a23.881,23.881,0,0,1-1.715,5.138,64.012,64.012,0,0,0-3.993,8.6c-1.715,3.993-2.854,7.423-4.569,11.415-1.139,3.423-2.284,7.457-3.423,10.31-.569,3.423-1.139,5.708-.569,7.992,0,1.715.569,1.715,1.139,1.715a3.1,3.1,0,0,0,2.854-1.715,10.02,10.02,0,0,0,2.854-2.284,30.267,30.267,0,0,0,7.423-11.449c1.715-5.708,4.033-11.985,6.311-17.693a146.636,146.636,0,0,1,6.847-16.018c1.139-2.854,2.854-4.569,5.708-5.138,2.284-.569,4.569-1.139,6.887-.569a17.855,17.855,0,0,1,5.708,2.854l1.715,1.715c0,.569.569.569.569,0a25.34,25.34,0,0,1,6.277-4.569,21.3,21.3,0,0,1,12.019-3.423,13.985,13.985,0,0,1,9.131,3.423c2.318,1.715,4.033,5.138,4.6,8.562,1.139,3.993,1.139,8.026.569,13.164,0,5.138-1.715,10.846-4.033,17.123a150.588,150.588,0,0,1-7.423,16.018c-1.715,1.715-2.854,3.993-4.569,5.708l.569.569c.569-.569,1.715-1.139,2.284-1.715a10.2,10.2,0,0,0,3.993-2.854,26.484,26.484,0,0,0,9.741-13.7l1.139-2.318,6.894-18.831a146.636,146.636,0,0,1,6.847-16.018c1.139-2.854,2.888-4.569,5.172-5.138s4.569-1.139,6.847-.569a21.1,21.1,0,0,1,6.277,2.854l1.715,1.715c0,.569,0,.569.569,0a26.216,26.216,0,0,1,6.311-4.569A20.58,20.58,0,0,1,534.189,437.394Zm-149.811,22.3c-.569,2.854-1.139,5.708-1.715,9.131L379.24,479.1c-1.749,4.033-2.888,7.457-4.6,10.311a41.78,41.78,0,0,1-5.138,7.423,10.862,10.862,0,0,1-3.993,4.569,7.065,7.065,0,0,0-1.715,1.139h0c-.569-.569-1.139-.569-1.139-2.854-.569-1.139-.569-3.423,0-6.277a31.381,31.381,0,0,1,1.715-9.131,43.028,43.028,0,0,1,3.423-10.311,80.856,80.856,0,0,1,4.569-10.277,33.2,33.2,0,0,1,4.569-7.457,40.157,40.157,0,0,1,4.033-4.569,4.422,4.422,0,0,1,1.715-.569h.617a6.25,6.25,0,0,1,1.139,2.284Zm74.336.569c-.569,2.854-1.749,5.708-2.318,9.131-1.139,3.423-2.854,6.847-3.993,10.846-1.715,3.457-3.423,6.887-5.138,9.741-2.284,3.423-3.993,5.708-5.708,7.992a30.558,30.558,0,0,1-4.033,4.569,4.311,4.311,0,0,1-2.284.569h0a6.251,6.251,0,0,1-1.1-2.284,25.6,25.6,0,0,1,.569-6.277,70.958,70.958,0,0,1,2.284-9.131c1.18-3.457,2.318-6.887,4.033-10.88,1.715-3.423,3.423-6.847,5.138-9.7a50.612,50.612,0,0,1,5.138-8.026l4.569-4.569a4.462,4.462,0,0,1,1.749-.569h0c.569,0,1.139.569,1.139,2.284.563,1.7-.007,4.02-.007,6.3Zm68.025,0a70.979,70.979,0,0,1-2.284,9.131c-1.139,3.423-2.284,6.847-3.993,10.846-1.715,3.457-3.423,6.887-5.172,9.741a48.549,48.549,0,0,1-5.138,7.992c-1.715,1.715-2.854,3.423-4.569,4.569a4.418,4.418,0,0,1-1.715.569h0c-.569,0-1.139-.569-1.139-2.284a25.6,25.6,0,0,1,.569-6.277c0-2.854,1.139-5.708,2.284-9.131.569-3.457,2.284-6.887,3.423-10.88,1.715-3.423,3.423-6.847,5.138-9.7,2.284-3.423,4.033-5.708,5.742-8.026,1.715-1.715,2.854-3.423,4.569-4.569a2.1,2.1,0,0,1,1.715-.569h0a6.245,6.245,0,0,1,1.139,2.284,25.87,25.87,0,0,1-.536,6.3Z" transform="translate(683.967 3870.4)" fill="#ff441f" fill-rule="evenodd"/>
  </g>
</svg>
