<svg xmlns="http://www.w3.org/2000/svg" xmlns:xlink="http://www.w3.org/1999/xlink" width="1239" height="735.661" viewBox="0 0 1239 735.661">
  <defs>
    <clipPath id="clip-path">
      <rect id="Rectángulo_356813" data-name="Rectángulo 356813" width="9.278" height="18.553" fill="none"/>
    </clipPath>
    <clipPath id="clip-path-2">
      <rect id="Rectángulo_356812" data-name="Rectángulo 356812" width="9.278" height="18.554" fill="none"/>
    </clipPath>
    <clipPath id="clip-path-9">
      <rect id="Rectángulo_356821" data-name="Rectángulo 356821" width="23.978" height="47.943" fill="none"/>
    </clipPath>
    <clipPath id="clip-path-10">
      <rect id="Rectángulo_356820" data-name="Rectángulo 356820" width="23.975" height="47.944" fill="none"/>
    </clipPath>
    <clipPath id="clip-path-11">
      <rect id="Rectángulo_356823" data-name="Rectángulo 356823" width="28.89" height="57.769" fill="none"/>
    </clipPath>
    <clipPath id="clip-path-12">
      <rect id="Rectángulo_356822" data-name="Rectángulo 356822" width="28.888" height="57.769" fill="none"/>
    </clipPath>
    <clipPath id="clip-path-13">
      <rect id="Rectángulo_356825" data-name="Rectángulo 356825" width="18.669" height="37.334" fill="none"/>
    </clipPath>
    <clipPath id="clip-path-14">
      <rect id="Rectángulo_356824" data-name="Rectángulo 356824" width="18.669" height="37.333" fill="none"/>
    </clipPath>
  </defs>
  <g id="Grupo_1020312" data-name="Grupo 1020312" transform="translate(-11117.738 10450.776)">
    <path id="Trazado_749791" data-name="Trazado 749791" d="M624.122,546.786h-90.4V491.939h90.4Zm-85.659-4.745h80.914V496.684H538.463Z" transform="translate(10936.564 -10625.219)" fill="#e5e6e7"/>
    <path id="Trazado_749792" data-name="Trazado 749792" d="M410.693,788.463a48.393,48.393,0,1,1,48.392-48.392,48.448,48.448,0,0,1-48.392,48.392m0-92.041a43.649,43.649,0,1,0,43.648,43.649,43.7,43.7,0,0,0-43.648-43.649" transform="translate(10983.049 -10679.383)" fill="#dcdcdb"/>
    <path id="Trazado_749793" data-name="Trazado 749793" d="M260.26,882.391a31.612,31.612,0,1,1,31.612-31.612,31.647,31.647,0,0,1-31.612,31.612m0-58.479a26.868,26.868,0,1,0,26.867,26.867,26.9,26.9,0,0,0-26.867-26.867" transform="translate(11019.293 -10713.955)" fill="#dcdcdb"/>
    <path id="Trazado_749794" data-name="Trazado 749794" d="M1628.247,558.869a69.808,69.808,0,1,1,49.36-20.446,69.349,69.349,0,0,1-49.36,20.446m0-134.869a65.063,65.063,0,1,0,46.006,19.056A64.637,64.637,0,0,0,1628.247,424" transform="translate(10658.685 -10605.51)" fill="#dcdcdb"/>
    <path id="Trazado_749795" data-name="Trazado 749795" d="M893.845,1027.7A51.053,51.053,0,1,1,944.9,976.648a51.111,51.111,0,0,1-51.052,51.053m0-97.361a46.308,46.308,0,1,0,46.307,46.308,46.36,46.36,0,0,0-46.307-46.308" transform="translate(10852.752 -10742.816)" fill="#dcdcdb"/>
    <path id="Trazado_749796" data-name="Trazado 749796" d="M841.259,1038.772a25.362,25.362,0,1,1,25.362-25.362,25.39,25.39,0,0,1-25.362,25.362m0-45.979a20.617,20.617,0,1,0,20.617,20.617,20.64,20.64,0,0,0-20.617-20.617" transform="translate(10860.046 -10759.752)" fill="#dcdcdb"/>
    <path id="Trazado_749797" data-name="Trazado 749797" d="M1462.792,926.622h-90.4V771.662h90.4Zm-85.658-4.744h80.913V776.407h-80.913Z" transform="translate(10709.137 -10701.073)" fill="#ffecbe"/>
    <path id="Trazado_749798" data-name="Trazado 749798" d="M435.484,966.3h-2.635v-2.318h2.635Zm0-4.953h-2.635v-5.272h2.635Zm0-7.908h-2.635v-5.272h2.635Zm0-7.907h-2.635v-5.272h2.635Zm0-7.908h-2.635v-5.272h2.635Zm0-7.907h-2.635v-5.272h2.635Zm0-7.908h-2.635V916.54h2.635Zm0-7.907h-2.635v-5.272h2.635Zm0-7.908h-2.635v-5.272h2.635Zm0-7.907h-2.635v-5.272h2.635Zm0-7.908h-2.635V884.91h2.635Zm-135.2-.415-1.318-2.283,4.565-2.636,1.318,2.283Zm6.848-3.954-1.318-2.283,4.565-2.636,1.318,2.283Zm128.349-3.539h-2.635V877h2.635Zm-121.5-.415-1.318-2.283,4.565-2.635,1.318,2.283Zm6.848-3.954-1.318-2.283,4.565-2.635,1.318,2.283Zm114.653-3.539h-2.635V869.1h2.635Zm-107.806-.415-1.318-2.282,4.565-2.636,1.318,2.283ZM334.526,870l-1.318-2.283,4.565-2.636,1.318,2.283Zm100.958-3.538h-2.635v-5.272h2.635Zm-94.11-.415-1.318-2.283,4.565-2.636,1.318,2.283Zm6.848-3.954-1.318-2.283,4.565-2.635,1.318,2.283Zm87.262-3.538h-2.635v-5.272h2.635Zm-80.414-.415-1.318-2.283,4.565-2.635,1.318,2.283Zm6.848-3.955L360.6,851.9l4.565-2.636,1.318,2.283Zm73.566-3.538h-2.635v-5.272h2.635Zm-66.718-.415-1.318-2.283,4.565-2.636,1.318,2.283Zm6.848-3.954-1.318-2.283,4.565-2.636,1.318,2.283Zm59.87-3.538h-2.635v-5.271h2.635Zm-53.022-.415-1.318-2.283,4.565-2.635,1.318,2.283Zm6.848-3.953-1.318-2.283,4.565-2.636,1.318,2.283Zm46.174-3.538h-2.635v-5.272h2.635Zm-39.326-.415-1.318-2.283,4.565-2.636,1.318,2.283Zm6.848-3.954-1.318-2.283,4.565-2.635,1.318,2.282Zm32.478-3.538h-2.635v-5.271h2.635Zm-25.63-.415-1.318-2.283,4.565-2.635,1.318,2.283Zm6.848-3.954-1.318-2.283,4.565-2.635,1.318,2.283Zm18.782-3.538h-2.635v-5.272h2.635ZM423.55,818.6l-1.318-2.283,4.565-2.636,1.318,2.283Zm6.848-3.954-1.318-2.283,4.427-2.556,1.977,1.141v.16h-1.226l.567.982Z" transform="translate(11000.224 -10711.418)" fill="#595a5c"/>
    <rect id="Rectángulo_356770" data-name="Rectángulo 356770" width="47.33" height="2.636" transform="matrix(0.533, -0.846, 0.846, 0.533, 11296.112, -9979.498)" fill="#595a5c"/>
    <rect id="Rectángulo_356771" data-name="Rectángulo 356771" width="21.439" height="2.636" transform="matrix(0.722, -0.692, 0.692, 0.722, 11361.019, -10082.833)" fill="#595a5c"/>
    <path id="Trazado_749799" data-name="Trazado 749799" d="M344.233,533.871l-2.372-1.151.254-.524,2.372,1.151Zm1.406-2.895-2.372-1.151,2.3-4.742,2.372,1.151Zm3.454-7.113-2.372-1.152,2.3-4.742,2.371,1.151Zm3.454-7.113-2.372-1.151,2.3-4.742,2.371,1.152ZM356,509.637l-2.371-1.152,2.3-4.742,2.371,1.151Zm3.454-7.113-2.372-1.152,2.3-4.742,2.371,1.151Z" transform="translate(10988.592 -10626.491)" fill="#595a5c"/>
    <rect id="Rectángulo_356772" data-name="Rectángulo 356772" width="2.636" height="49.006" transform="matrix(0.713, -0.702, 0.702, 0.713, 11262.181, -10122.487)" fill="#595a5c"/>
    <rect id="Rectángulo_356773" data-name="Rectángulo 356773" width="63.494" height="2.636" transform="translate(11227.615 -10044.116) rotate(-0.19)" fill="#595a5c"/>
    <rect id="Rectángulo_356774" data-name="Rectángulo 356774" width="2.636" height="48.34" transform="matrix(0.08, -0.997, 0.997, 0.08, 11371.529, -10050.146)" fill="#595a5c"/>
    <path id="Trazado_749800" data-name="Trazado 749800" d="M84.573,467.33l-2.409-1.07,2.14-4.817,2.409,1.07Zm3.21-7.226-2.409-1.07,2.141-4.818,2.409,1.07Zm3.21-7.226-2.409-1.07,2.141-4.818,2.409,1.07Zm3.21-7.226L91.8,444.581l2.141-4.818,2.409,1.071Zm3.211-7.226-2.409-1.071,2.141-4.817,2.409,1.071Zm3.21-7.226-2.409-1.071,2.141-4.817,2.409,1.071Zm3.21-7.226-2.409-1.071,2.141-4.818,2.409,1.071Zm3.211-7.226-2.409-1.07,2.14-4.817,2.409,1.07Zm3.21-7.226-2.409-1.07,2.141-4.818,2.409,1.07Zm64.87-.262-1.144-.326.407-1.429-.107-.047.336-.757.086-.3.043.012,1.192-2.685,2.409,1.071-1.657,3.731Zm-3.678-1.049-5.07-1.445.722-2.535,5.07,1.445Zm-7.6-2.167-5.07-1.445.722-2.535,5.07,1.445Zm-7.6-2.167-5.07-1.445.722-2.535,5.07,1.445Zm23.18-1.49-2.409-1.071,2.141-4.818,2.409,1.07Zm-65.952-.093-2.409-1.07,2.141-4.817,2.409,1.07Zm35.167-.585-5.07-1.445.722-2.535,5.07,1.445Zm-7.6-2.167-5.07-1.445.723-2.535,5.07,1.445Zm-7.605-2.167-5.07-1.445.722-2.535,5.07,1.445Zm-7.6-2.167-5.07-1.445.722-2.535,5.07,1.445Zm56.81-.049-2.409-1.07,2.14-4.818,2.409,1.07Zm-65.952-.092L114.27,394l1.437-3.234,1.566-.733,1.666.475-.722,2.535-.566-.161Zm69.162-7.134-2.409-1.07,2.141-4.818,2.409,1.07Zm3.21-7.226-2.409-1.07,2.14-4.818,2.409,1.071Zm3.21-7.226-2.409-1.071,2.141-4.818,2.409,1.071Zm3.21-7.227-2.409-1.07,2.14-4.818,2.409,1.07Zm3.21-7.226-2.409-1.07,2.14-4.818,2.409,1.07Zm60.76-2.894-2.216-1.429,2.858-4.43L262.3,351.7Zm-3.858-.37-4.252-3.116,1.558-2.126,4.252,3.116ZM201.891,351.8l-2.409-1.07,2.14-4.818,2.409,1.071Zm47.314-.712-4.252-3.116,1.558-2.126,4.253,3.116Zm14.521-1.6-2.216-1.429,2.857-4.43,2.216,1.428Zm-20.9-3.073-4.253-3.116,1.558-2.126,4.252,3.116Zm-37.726-1.84-2.409-1.07,2.14-4.818,2.409,1.071Zm62.911-1.732-2.216-1.429,2.857-4.431,2.216,1.429Zm-31.563-1.1-4.252-3.116,1.558-2.126,4.252,3.116Zm-28.137-4.393-2.409-1.071,2.14-4.818,2.409,1.07Zm21.759-.281-4.252-3.116,1.558-2.126,4.252,3.116Zm42.227-.87-2.215-1.429,2.856-4.43,2.216,1.428Zm-48.6-3.8-4.252-3.116L221,327.152l4.253,3.116Zm-12.171-2.272-2.409-1.07,2.14-4.818,2.409,1.07Zm65.061-.57-2.215-1.428,2.857-4.431,2.215,1.428Zm-59.268-1.832-4.253-3.116,1.558-2.126,4.252,3.116Zm63.553-4.813-2.215-1.428,2.857-4.431,2.215,1.428Zm4.285-6.645-2.215-1.429,2.857-4.43,2.215,1.428Z" transform="translate(11059.016 -10575.99)" fill="#595a5c"/>
    <path id="Trazado_749801" data-name="Trazado 749801" d="M811.089,698.29a218.9,218.9,0,0,1-154.833-373.8l3.728,3.728a213.047,213.047,0,1,0,68.437-46.011l-2.041-4.861A219.022,219.022,0,1,1,811.089,698.29" transform="translate(10920.728 -10562.419)" fill="#e5e6e7"/>
    <path id="Trazado_749802" data-name="Trazado 749802" d="M806.321,706.313a231.681,231.681,0,0,1-5.835-463.283l.138,5.269a227.292,227.292,0,0,0-54.981,8.271A226.418,226.418,0,1,0,983.866,615.087a228.015,228.015,0,0,0,24.787-38.929l4.711,2.366a232.251,232.251,0,0,1-58.482,73.9,232.761,232.761,0,0,1-148.561,53.889" transform="translate(10925.462 -10557.721)" fill="#e5e6e7"/>
    <path id="Trazado_749803" data-name="Trazado 749803" d="M828.521,714.545q-7.334,0-14.694-.435a246.422,246.422,0,0,1-82.345-19.356,243.9,243.9,0,0,1-72.172-47.312l3.622-3.829A238.682,238.682,0,0,0,733.55,689.9,240.867,240.867,0,1,0,859.794,229.686l.691-5.226a246.092,246.092,0,0,1-31.964,490.085" transform="translate(10902.507 -10552.685)" fill="#e5e6e7"/>
    <path id="Trazado_749804" data-name="Trazado 749804" d="M515.846,147.536h-90.4V92.689h90.4Zm-85.658-4.745H511.1V97.434H430.189Z" transform="translate(10965.927 -10516.951)" fill="#dcdcdb"/>
    <path id="Trazado_749805" data-name="Trazado 749805" d="M195.8,393.647a65.953,65.953,0,1,1-65.953-65.953A65.953,65.953,0,0,1,195.8,393.647" transform="translate(11063.971 -10580.679)" fill="#e5e6e7"/>
    <path id="Trazado_749806" data-name="Trazado 749806" d="M84.79,294.968a17.395,17.395,0,1,1-17.395-17.395A17.4,17.4,0,0,1,84.79,294.968" transform="translate(11067.738 -10567.088)" fill="#e5e6e7"/>
    <rect id="Rectángulo_356775" data-name="Rectángulo 356775" width="85.658" height="54.035" transform="translate(12035.016 -9797.036)" fill="#ffecbe"/>
    <rect id="Rectángulo_356776" data-name="Rectángulo 356776" width="209.062" height="104.278" transform="translate(11837.867 -10441.521)" fill="#e5e6e7"/>
    <rect id="Rectángulo_356777" data-name="Rectángulo 356777" width="104.531" height="52.139" transform="translate(12218.99 -10421.891)" fill="#dcdcdb"/>
    <path id="Trazado_749807" data-name="Trazado 749807" d="M864.393,759.382,856.144,807.5a195.5,195.5,0,0,0,83.97-3.8L927.5,756.524a146.934,146.934,0,0,1-63.111,2.858" transform="translate(10849.131 -10696.969)" fill="#a6a7aa"/>
    <path id="Trazado_749808" data-name="Trazado 749808" d="M685.013,468.741a147.253,147.253,0,0,1,63.366-92.657l-26.807-40.8a195.919,195.919,0,0,0-84.308,123.281q-1.056,4.953-1.851,9.9l48.209,7.722q.6-3.717,1.391-7.441" transform="translate(10908.988 -10582.736)" fill="#dcdcdb"/>
    <path id="Trazado_749809" data-name="Trazado 749809" d="M769.546,723.121,740.33,762.252a195.364,195.364,0,0,0,17.757,11.821l24.889-42.018a146.582,146.582,0,0,1-13.43-8.934" transform="translate(10880.537 -10687.91)" fill="#dcdcdb"/>
    <path id="Trazado_749810" data-name="Trazado 749810" d="M694.507,630.909l-45.8,16.92a197.577,197.577,0,0,0,45.312,70.8l34.548-34.505a148.511,148.511,0,0,1-34.057-53.211" transform="translate(10905.384 -10662.904)" fill="#dcdcdb"/>
    <path id="Trazado_749811" data-name="Trazado 749811" d="M797.607,739.507,774.5,782.53a195.384,195.384,0,0,0,23.589,10.655l17.212-45.7a146.887,146.887,0,0,1-17.7-7.983" transform="translate(10871.27 -10692.354)" fill="#dcdcdb"/>
    <path id="Trazado_749812" data-name="Trazado 749812" d="M817.481,799.621q5.127,1.68,10.4,3.094l12.665-47.153q-3.943-1.056-7.782-2.315Z" transform="translate(10859.616 -10696.079)" fill="#dcdcdb"/>
    <path id="Trazado_749813" data-name="Trazado 749813" d="M971.947,713.515l16.919,45.8a196.438,196.438,0,0,0,121.711-133.4l-47.154-12.666a147.643,147.643,0,0,1-91.477,100.267" transform="translate(10817.729 -10658.115)" fill="#a6a7aa"/>
    <path id="Trazado_749814" data-name="Trazado 749814" d="M879.355,340.123,876.54,291.37a195,195,0,0,0-25.845,3.217l9.234,47.954a146.766,146.766,0,0,1,19.425-2.418" transform="translate(10850.608 -10570.829)" fill="#dcdcdb"/>
    <path id="Trazado_749815" data-name="Trazado 749815" d="M681.833,534.915l-48.492-5.693a195.359,195.359,0,0,0,2.166,60.094l47.954-9.235a146.834,146.834,0,0,1-1.627-45.167" transform="translate(10909.921 -10635.329)" fill="#dcdcdb"/>
    <path id="Trazado_749816" data-name="Trazado 749816" d="M931.36,343.042a147.373,147.373,0,0,1,98.206,72.514l42.8-23.492a196.878,196.878,0,0,0-174.9-101.11l.767,48.828a148.223,148.223,0,0,1,33.127,3.261" transform="translate(10837.925 -10570.711)" fill="#dcdcdb"/>
    <path id="Trazado_749817" data-name="Trazado 749817" d="M805.7,357.812l-19.317-44.844a197.488,197.488,0,0,0-23.173,11.876l25.073,41.894a148.27,148.27,0,0,1,17.417-8.926" transform="translate(10874.332 -10576.686)" fill="#dcdcdb"/>
    <path id="Trazado_749818" data-name="Trazado 749818" d="M686.727,607.32,639.2,618.558q.658,2.775,1.394,5.525l47.177-12.61q-.554-2.066-1.047-4.153" transform="translate(10907.96 -10656.508)" fill="#dcdcdb"/>
    <path id="Trazado_749819" data-name="Trazado 749819" d="M805.488,305.847l17.419,45.616a147.461,147.461,0,0,1,18.7-5.773l-11.238-47.523a196.2,196.2,0,0,0-24.884,7.68" transform="translate(10862.867 -10572.673)" fill="#dcdcdb"/>
    <path id="Trazado_749820" data-name="Trazado 749820" d="M1152.439,555.748l-48.823,1.038a147.853,147.853,0,0,1-2.133,27.5l48.121,8.247a196.641,196.641,0,0,0,2.834-36.789" transform="translate(10782.601 -10642.522)" fill="#dcdcdb"/>
    <path id="Trazado_749821" data-name="Trazado 749821" d="M1098.887,515.259l48.519-5.551a195.912,195.912,0,0,0-15.474-57.573l-44.793,19.433a147.253,147.253,0,0,1,11.748,43.692" transform="translate(10786.49 -10614.425)" fill="#dcdcdb"/>
    <path id="Trazado_749822" data-name="Trazado 749822" d="M1343.6,654.778l-11.026,4.261,5.773,4.829-39.824,47.6L1269.166,686.9l-51.335,61.353,6,5.019,46.316-55.353,28.622,23.949.734.614,44.844-53.595,5.78,4.837,2.249-11.6,2.249-11.6Z" transform="translate(10751.05 -10668.222)" fill="#4674b7"/>
    <rect id="Rectángulo_356778" data-name="Rectángulo 356778" width="23.286" height="69.923" transform="translate(11975.698 -9890.8)" fill="#e4f3ae"/>
    <rect id="Rectángulo_356779" data-name="Rectángulo 356779" width="23.286" height="110.486" transform="translate(12008.202 -9930.597)" fill="#e4f3ae"/>
    <rect id="Rectángulo_356780" data-name="Rectángulo 356780" width="23.286" height="93.837" transform="translate(12040.76 -9913.947)" fill="#e4f3ae"/>
    <rect id="Rectángulo_356781" data-name="Rectángulo 356781" width="23.287" height="131.26" transform="translate(12073.316 -9951.371)" fill="#e4f3ae"/>
    <path id="Trazado_749823" data-name="Trazado 749823" d="M545.187,798.938a47.993,47.993,0,0,0-30.538-44.7,41.8,41.8,0,1,0-49.547,0,47.994,47.994,0,0,0-30.538,44.7v29.989h43.267l-.843-1.442,6.443-44.859-6.443-14.375,6.443-14.375H496.32l6.443,14.375-6.443,14.375,6.443,44.859-.843,1.442h43.267Z" transform="translate(10963.454 -10675.898)" fill="#b3dd19"/>
    <path id="Trazado_749824" data-name="Trazado 749824" d="M512.1,810.55l6.443-14.374L512.1,781.8H499.217l-6.444,14.375,6.444,14.374-6.444,44.859.844,1.443,11.056,18.911h1.976L517.7,856.852l.844-1.443Z" transform="translate(10947.669 -10703.823)" fill="#4674b7"/>
    <path id="Trazado_749825" data-name="Trazado 749825" d="M369.956,106.558a44.809,44.809,0,0,0-31.274,12.674l31.274,32.285Z" transform="translate(10989.454 -10520.712)" fill="#df912f"/>
    <path id="Trazado_749826" data-name="Trazado 749826" d="M330.873,140.693a44.912,44.912,0,0,0-5.4,58.274l36.671-25.991Z" transform="translate(10995.283 -10529.97)" fill="#eb6f2d"/>
    <path id="Trazado_749827" data-name="Trazado 749827" d="M424.384,170.626a46.45,46.45,0,0,0-.406-5.909q-.148-1.1-.344-2.184a45.113,45.113,0,0,0-1.084-4.6q-.282-.971-.607-1.921-.71-2.085-1.611-4.073c-.26-.579-.531-1.149-.814-1.714q-.94-1.869-2.041-3.642c-.322-.517-.649-1.032-.991-1.536q-1.272-1.866-2.717-3.6-.572-.687-1.172-1.354-1.347-1.492-2.823-2.863c-.435-.405-.881-.8-1.333-1.192q-1.533-1.322-3.178-2.506c-.49-.356-.985-.7-1.491-1.036-1.149-.762-2.332-1.478-3.552-2.133q-.823-.445-1.669-.857a45.329,45.329,0,0,0-4.438-1.878c-.623-.225-1.25-.442-1.885-.64a46.014,46.014,0,0,0-4.52-1.168q-1.063-.215-2.142-.383a46.094,46.094,0,0,0-5.191-.493c-.611-.023-1.222-.047-1.84-.047a.893.893,0,0,0-.893.894v44.5l-3.178,2.25-8.673,6.147L346.27,192.526l-4.923,3.491a.887.887,0,0,0-.364.577.9.9,0,0,0,.152.668c.055.078.117.151.171.227.794,1.1,1.639,2.154,2.517,3.171.391.452.783.9,1.191,1.335q1.375,1.474,2.87,2.811c.445.4.9.79,1.355,1.172,1.16.963,2.352,1.88,3.6,2.721.506.343,1.027.66,1.546.982q1.775,1.1,3.641,2.044c.566.281,1.132.56,1.708.818,1.332.6,2.7,1.127,4.086,1.6.634.215,1.271.422,1.915.609a45.4,45.4,0,0,0,4.582,1.1c.726.133,1.458.237,2.191.332a45.581,45.581,0,0,0,5.906.411c.042,0,.084,0,.126,0,.827,0,1.648-.025,2.463-.068a45.483,45.483,0,0,0,6.5-.818c1.125-.225,2.233-.5,3.326-.8a45.567,45.567,0,0,0,9.536-3.85,46.458,46.458,0,0,0,18.484-18.486,45.529,45.529,0,0,0,3.851-9.533c.3-1.1.577-2.2.8-3.33a45.938,45.938,0,0,0,.818-6.5c.043-.818.068-1.638.068-2.465,0-.041,0-.085,0-.126" transform="translate(10988.834 -10525.687)" fill="#ffb338"/>
    <path id="Trazado_749828" data-name="Trazado 749828" d="M499.811,363.89,508.4,367.8l6.763-14.867-8.592-3.909s-2.509-2.3-2.833-8.352q.158-1.821.161-3.637c.632-6.452,3.459-8.712,3.459-8.712l8.841-3.311-5.73-15.3-8.841,3.311s-3.765.16-8.621-4.573q-.513-.576-1.047-1.134c-4.611-5.295-4.181-9.158-4.181-9.158l3.909-8.594-14.867-6.763-3.909,8.593s-2.629,2.864-9.65,2.864c-.526-.024-1.052-.037-1.578-.044h-.009c-.145,0-.291,0-.436,0-6.452-.632-8.712-3.459-8.712-3.459l-3.311-8.84-15.294,5.729,3.311,8.841s.159,3.765-4.573,8.62q-.576.515-1.138,1.052c-5.293,4.608-9.155,4.176-9.155,4.176l-8.593-3.909-6.763,14.867,8.593,3.909s2.863,2.629,2.865,9.649q-.036.79-.044,1.582v.008c0,.145,0,.29,0,.435-.633,6.452-3.46,8.712-3.46,8.712l-8.84,3.31,5.729,15.3,8.84-3.311s3.764-.158,8.618,4.57q1.052,1.18,2.2,2.283c3.731,4.773,3.352,8.156,3.352,8.156l-3.91,8.593,14.867,6.763,3.909-8.592s3.02-3.292,11.237-2.82l-.033-.036c6.81.539,9.182,3.5,9.182,3.5l3.31,8.84,15.294-5.731-3.31-8.839s-.193-4.463,5.952-9.941l-.174,0c5.021-4.134,8.627-3.731,8.627-3.731m-49.153-3.847a25.367,25.367,0,1,1,33.6-12.585,25.4,25.4,0,0,1-33.6,12.585" transform="translate(10971.165 -10568.266)" fill="#e4f3ae"/>
    <path id="Trazado_749829" data-name="Trazado 749829" d="M571.286,290.555l3.552,3.307,5.721-6.146-3.553-3.307s-.848-1.532-.02-4.535q.374-.861.671-1.747c1.359-3.043,3.107-3.684,3.107-3.684l4.85-.173-.3-8.392-4.85.173s-1.862-.536-3.458-3.635c-.1-.243-.212-.485-.326-.724-1.385-3.332-.546-5.146-.546-5.146l3.307-3.553-6.147-5.721-3.306,3.552s-1.748.968-5.173-.176c-.253-.1-.506-.189-.762-.278l0,0-.212-.073c-3.043-1.359-3.684-3.106-3.684-3.106l-.174-4.85-8.392.3.174,4.851s-.536,1.861-3.635,3.458q-.365.157-.727.327c-3.331,1.384-5.144.544-5.144.544l-3.553-3.306-5.721,6.146,3.552,3.307s.967,1.748-.176,5.172q-.146.379-.28.764v0c-.025.07-.05.14-.074.211-1.36,3.042-3.106,3.683-3.106,3.683l-4.85.174.3,8.391,4.85-.173s1.861.536,3.457,3.633q.321.747.7,1.471c1.041,2.936.305,4.523.305,4.523l-3.307,3.553,6.147,5.721,3.307-3.552s2.009-1.114,5.938.456l-.009-.023c3.232,1.372,3.906,3.2,3.906,3.2l.174,4.85,8.391-.3-.174-4.85s.633-2.208,4.522-3.877l-.084-.031c3.122-1.2,4.815-.413,4.815-.413m-23.341-9.887a13.042,13.042,0,1,1,18.432-.661,13.056,13.056,0,0,1-18.432.661" transform="translate(10938.103 -10557.533)" fill="#4674b7"/>
    <rect id="Rectángulo_356782" data-name="Rectángulo 356782" width="261.459" height="171.448" transform="translate(11950.551 -10404.911)" fill="#e4f3ae"/>
    <rect id="Rectángulo_356783" data-name="Rectángulo 356783" width="216.14" height="124.586" transform="translate(11973.211 -10381.48)" fill="#fff"/>
    <path id="Trazado_749830" data-name="Trazado 749830" d="M1358.5,268.22l-15.548-92-20.071,42.922h-46.494v-3.69h44.146l24.087-51.509,14.664,86.771,12.129-46.186h44.419v3.69H1374.26Z" transform="translate(10735.171 -10536.273)" fill="#eb6f2d"/>
    <rect id="Rectángulo_356784" data-name="Rectángulo 356784" width="77.971" height="22.032" transform="translate(12042.295 -10233.463)" fill="#8db014"/>
    <rect id="Rectángulo_356785" data-name="Rectángulo 356785" width="123.757" height="11.883" transform="translate(12019.401 -10211.432)" fill="#e4f3ae"/>
    <path id="Trazado_749831" data-name="Trazado 749831" d="M1445.8,282.347H1210.91V137.47H1445.8Zm-233.569-1.318H1444.48V138.788H1212.228Z" transform="translate(10752.927 -10529.095)" fill="#e6e6e6"/>
    <path id="Trazado_749832" data-name="Trazado 749832" d="M319.576,629.818h-.063V614.8a30.367,30.367,0,0,1,0-60.734V539.055a45.39,45.39,0,0,1,45.017,39.6,45.388,45.388,0,1,0-11.424,36.294,45.266,45.266,0,0,1-33.53,14.867" transform="translate(11006.959 -10637.996)" fill="#4674b7"/>
    <path id="Trazado_749833" data-name="Trazado 749833" d="M336.4,539.055V554.07a30.367,30.367,0,0,1,0,60.733v15.015h.063a45.265,45.265,0,0,0,33.53-14.867q.366-.4.723-.815a45.207,45.207,0,0,0,11.066-29.7A45.345,45.345,0,0,0,336.4,539.055" transform="translate(10990.073 -10637.996)" fill="#2c436d"/>
    <path id="Trazado_749834" data-name="Trazado 749834" d="M488.743,604.389a12.378,12.378,0,0,0-12.378-12.378v-6.121h0a18.5,18.5,0,0,0,0,37h0v-6.121a12.378,12.378,0,0,0,12.378-12.378m-21.755,0a9.377,9.377,0,1,1,9.376,9.376,9.376,9.376,0,0,1-9.376-9.376" transform="translate(10957.135 -10650.696)" fill="#4674b7"/>
    <path id="Trazado_749835" data-name="Trazado 749835" d="M507.487,603.724a18.371,18.371,0,0,1,.583,2.486,18.371,18.371,0,0,0-.583-2.486" transform="translate(10943.679 -10655.532)" fill="#4674b7"/>
    <path id="Trazado_749836" data-name="Trazado 749836" d="M506.634,601.392q.347.82.615,1.68-.268-.858-.615-1.68" transform="translate(10943.909 -10654.899)" fill="#4674b7"/>
    <path id="Trazado_749837" data-name="Trazado 749837" d="M506.126,600.268c.069.141.13.286.195.43-.065-.143-.126-.289-.195-.43" transform="translate(10944.048 -10654.595)" fill="#4674b7"/>
    <path id="Trazado_749838" data-name="Trazado 749838" d="M507.3,615.137a18.374,18.374,0,0,1-2.792,7.285,18.374,18.374,0,0,0,2.792-7.285" transform="translate(10944.487 -10658.628)" fill="#4674b7"/>
    <path id="Trazado_749839" data-name="Trazado 749839" d="M501.5,601.374a18.5,18.5,0,0,0-.584-2.486l-.007-.019q-.268-.859-.616-1.68c-.055-.132-.117-.259-.176-.39s-.126-.289-.195-.43a18.5,18.5,0,0,0-16.674-10.478v6.121a12.378,12.378,0,1,1,0,24.755v6.121a18.512,18.512,0,0,0,18.4-20.39c-.039-.378-.092-.752-.152-1.124" transform="translate(10950.252 -10650.696)" fill="#2c436d"/>
    <path id="Trazado_749840" data-name="Trazado 749840" d="M370.417,491.852a15.625,15.625,0,1,0-15.626-15.625,15.626,15.626,0,0,0,15.626,15.625" transform="translate(10985.086 -10616.721)" fill="#df912f"/>
    <path id="Trazado_749841" data-name="Trazado 749841" d="M280.331,696.171a20.29,20.29,0,1,0,20.29,20.29,20.291,20.291,0,0,0-20.29-20.29" transform="translate(11010.78 -10680.603)" fill="#a6a7aa"/>
    <path id="Trazado_749842" data-name="Trazado 749842" d="M258.964,506.55a8.419,8.419,0,1,0-8.419,8.419,8.419,8.419,0,0,0,8.419-8.419" transform="translate(11015.639 -10626.897)" fill="#a6a7aa"/>
    <path id="Trazado_749843" data-name="Trazado 749843" d="M404.908,526.77a8.42,8.42,0,1,0,8.419,8.419,8.419,8.419,0,0,0-8.419-8.419" transform="translate(10973.778 -10634.664)" fill="#a6a7aa"/>
    <path id="Trazado_749844" data-name="Trazado 749844" d="M184.793,598.18a11.483,11.483,0,1,0,11.483,11.483,11.483,11.483,0,0,0-11.483-11.483" transform="translate(11034.299 -10654.029)" fill="#4674b7"/>
    <rect id="Rectángulo_356786" data-name="Rectángulo 356786" width="98.698" height="128.311" transform="translate(12146.201 -9873.172)" fill="#004e99"/>
    <rect id="Rectángulo_356787" data-name="Rectángulo 356787" width="75.586" height="35.294" transform="translate(12157.759 -9863.177)" fill="#fff"/>
    <path id="Trazado_749845" data-name="Trazado 749845" d="M1510.829,930.23h-9.575v-9.574h-8.121v9.574h-9.575v8.121h9.575v9.574h8.121V938.35h9.575Z" transform="translate(10678.991 -10741.477)" fill="#fff"/>
    <path id="Trazado_749846" data-name="Trazado 749846" d="M1510.124,978.935l-5.743-5.742-6.77,6.77-6.771-6.77-5.742,5.742,6.771,6.77-6.771,6.77,5.742,5.743,6.771-6.771,6.77,6.771,5.743-5.743-6.771-6.77Z" transform="translate(10678.573 -10755.724)" fill="#fff"/>
    <rect id="Rectángulo_356788" data-name="Rectángulo 356788" width="27.27" height="8.121" transform="translate(12201.692 -9811.247)" fill="#fff"/>
    <rect id="Rectángulo_356789" data-name="Rectángulo 356789" width="27.27" height="8.121" transform="translate(12202.815 -9763.249) rotate(-44.996)" fill="#fff"/>
    <path id="Trazado_749847" data-name="Trazado 749847" d="M1545.509,972.827a5,5,0,1,1-7.068,0,5,5,0,0,1,7.068,0" transform="translate(10664.505 -10755.228)" fill="#fff"/>
    <path id="Trazado_749848" data-name="Trazado 749848" d="M1569.79,997.107a5,5,0,1,1-7.068,0,5,5,0,0,1,7.068,0" transform="translate(10657.921 -10761.812)" fill="#fff"/>
    <rect id="Rectángulo_356790" data-name="Rectángulo 356790" width="18.334" height="12.107" transform="translate(11562.445 -10379.681)" fill="#a6a7aa"/>
    <rect id="Rectángulo_356791" data-name="Rectángulo 356791" width="18.334" height="12.107" transform="translate(11562.445 -10395.82)" fill="#dcdcdb"/>
    <rect id="Rectángulo_356792" data-name="Rectángulo 356792" width="18.334" height="37.803" transform="translate(11562.445 -10362.941)" fill="#4f4f50"/>
    <rect id="Rectángulo_356793" data-name="Rectángulo 356793" width="18.334" height="12.107" transform="translate(11539.309 -10379.681)" fill="#a6a7aa"/>
    <rect id="Rectángulo_356794" data-name="Rectángulo 356794" width="18.334" height="12.107" transform="translate(11539.309 -10395.82)" fill="#a6a7aa"/>
    <rect id="Rectángulo_356795" data-name="Rectángulo 356795" width="18.334" height="12.107" transform="translate(11539.309 -10411.842)" fill="#dcdcdb"/>
    <rect id="Rectángulo_356796" data-name="Rectángulo 356796" width="18.334" height="12.106" transform="translate(11539.309 -10427.98)" fill="#dcdcdb"/>
    <rect id="Rectángulo_356797" data-name="Rectángulo 356797" width="18.334" height="37.803" transform="translate(11539.309 -10362.941)" fill="#4f4f50"/>
    <rect id="Rectángulo_356798" data-name="Rectángulo 356798" width="18.334" height="12.107" transform="translate(11586.19 -10363.241)" fill="#a6a7aa"/>
    <rect id="Rectángulo_356799" data-name="Rectángulo 356799" width="18.334" height="12.107" transform="translate(11586.19 -10379.381)" fill="#dcdcdb"/>
    <rect id="Rectángulo_356800" data-name="Rectángulo 356800" width="18.334" height="12.107" transform="translate(11607.007 -10337.244)" fill="#4f4f50"/>
    <rect id="Rectángulo_356801" data-name="Rectángulo 356801" width="18.334" height="21.363" transform="translate(11586.19 -10346.501)" fill="#4f4f50"/>
    <path id="Trazado_749849" data-name="Trazado 749849" d="M78.845,515.4A7.249,7.249,0,1,0,88,520.015a7.249,7.249,0,0,0-9.157-4.61" transform="translate(11061.267 -10631.482)" fill="#6892b2"/>
    <path id="Trazado_749850" data-name="Trazado 749850" d="M123.586,412.689a7.249,7.249,0,1,0,9.156,4.611,7.25,7.25,0,0,0-9.156-4.611" transform="translate(11049.134 -10603.629)" fill="#a6a7aa"/>
    <path id="Trazado_749851" data-name="Trazado 749851" d="M204.706,433.915a7.249,7.249,0,1,0,9.156,4.611,7.249,7.249,0,0,0-9.156-4.611" transform="translate(11027.136 -10609.385)" fill="#a6a7aa"/>
    <path id="Trazado_749852" data-name="Trazado 749852" d="M257,318.212a7.249,7.249,0,1,0,9.156,4.611A7.251,7.251,0,0,0,257,318.212" transform="translate(11012.955 -10578.009)" fill="#df912f"/>
    <path id="Trazado_749853" data-name="Trazado 749853" d="M318.119,362.188a7.249,7.249,0,1,0,9.156,4.61,7.249,7.249,0,0,0-9.156-4.61" transform="translate(10996.38 -10589.934)" fill="#a6a7aa"/>
    <path id="Trazado_749854" data-name="Trazado 749854" d="M367.342,306.419a7.249,7.249,0,1,0-4.611,9.156,7.249,7.249,0,0,0,4.611-9.156" transform="translate(10985.516 -10573.56)" fill="#a6a7aa"/>
    <path id="Trazado_749855" data-name="Trazado 749855" d="M150.224,730.634H120.464c-16.076,0-15.735,2.052-14.367,9.578s19.5,17.174,19.5,17.174l7.594,8.481,11.9-8.481s18.129-9.649,19.5-17.174,1.71-9.578-14.367-9.578" transform="translate(11052.688 -10689.947)" fill="#a6a7aa"/>
    <path id="Trazado_749856" data-name="Trazado 749856" d="M133.119,765.993l-7.657-8.551a95.106,95.106,0,0,1-9.229-5.763c-6.271-4.47-9.741-8.336-10.315-11.492-.63-3.464-1.046-5.753.235-7.287,1.507-1.805,5.24-2.446,14.262-2.446h29.759c9.022,0,12.754.64,14.261,2.446,1.281,1.535.864,3.823.235,7.287-.574,3.156-4.044,7.022-10.315,11.492a95.144,95.144,0,0,1-9.249,5.774Zm-12.7-35.276c-8.818,0-12.628.637-14.059,2.351-1.2,1.439-.794,3.68-.178,7.071,1.341,7.377,19.248,16.984,19.429,17.081l.036.028,7.516,8.393,11.808-8.413c.2-.1,18.1-9.713,19.444-17.089.616-3.391,1.023-5.632-.178-7.071-1.431-1.714-5.241-2.351-14.059-2.351Z" transform="translate(11052.737 -10689.898)" fill="#fff"/>
    <path id="Trazado_749857" data-name="Trazado 749857" d="M173.368,799.993c0,20.513-19.2,37.144-42.873,37.144s-42.873-16.63-42.873-37.144,19.2-48.6,42.873-48.6,42.873,28.089,42.873,48.6" transform="translate(11057.536 -10695.576)" fill="#a6a7aa"/>
    <path id="Trazado_749858" data-name="Trazado 749858" d="M129.024,839.619a50.089,50.089,0,0,1-32.9-11.845C87.141,820,82.2,809.607,82.2,798.521c0-11.195,5.024-24.085,13.438-34.481A53.339,53.339,0,0,1,110.362,751.2a35.869,35.869,0,0,1,37.322,0,53.332,53.332,0,0,1,14.728,12.838c8.414,10.4,13.438,23.287,13.438,34.481,0,11.086-4.944,21.475-13.923,29.253a50.086,50.086,0,0,1-32.9,11.845m0-85.747c-5.6,0-16.58,1.967-27.243,15.143-7.2,8.9-11.676,20.206-11.676,29.506,0,18.3,17.459,33.19,38.919,33.19s38.919-14.889,38.919-33.19c0-9.3-4.474-20.608-11.676-29.506-10.663-13.176-21.645-15.143-27.243-15.143" transform="translate(11059.008 -10694.104)" fill="#fff"/>
    <path id="Trazado_749859" data-name="Trazado 749859" d="M153.051,800.84a17.254,17.254,0,0,0-6.685-2.806l-2.46-.58v-9.738c.168.07.331.144.489.223a5.533,5.533,0,0,1,3.118,4.956h7.762q-.213-6.161-4.579-9.4a16.142,16.142,0,0,0-6.79-2.907v-5.669h-6.841v5.508a14.281,14.281,0,0,0-8.149,3.265,11.108,11.108,0,0,0-3.822,8.627q0,5.69,3.907,8.365,2.228,1.546,8.064,2.87v10.506a6.416,6.416,0,0,1-3.419-2,7.847,7.847,0,0,1-1.473-3.96h-7.709a11.408,11.408,0,0,0,4.373,9.479,16.547,16.547,0,0,0,8.228,3.208v5.578h6.841v-5.5a15.4,15.4,0,0,0,8.506-3.334,11.092,11.092,0,0,0,4.095-8.8q0-5.164-3.456-7.892m-18.6-6a3.314,3.314,0,0,1-1.882-3.094,3.982,3.982,0,0,1,1.909-3.514,7.35,7.35,0,0,1,2.59-1.019v8.583a13.19,13.19,0,0,1-2.616-.957m10.817,18.984a9.836,9.836,0,0,1-1.359.352V805.12a13.276,13.276,0,0,1,3.122,1.253,3.3,3.3,0,0,1,1.692,2.963q0,3.279-3.454,4.484" transform="translate(11047.545 -10701.956)" fill="#fff"/>
    <path id="Trazado_749860" data-name="Trazado 749860" d="M1659.321,294.615q-3.963-3.128-11.9-5l-4.38-1.033v-17.34q.448.186.87.4,5.17,2.616,5.553,8.825h13.821q-.378-10.972-8.154-16.739a28.749,28.749,0,0,0-12.089-5.177V248.456h-12.183v9.807q-9.194,1.048-14.51,5.815a19.778,19.778,0,0,0-6.806,15.361q0,10.133,6.957,14.9,3.968,2.751,14.359,5.109v18.709a11.432,11.432,0,0,1-6.088-3.554q-1.955-2.334-2.622-7.051h-13.727q0,10.74,7.787,16.879,5.743,4.53,14.65,5.714v9.932h12.183v-9.8q9.421-1.055,15.146-5.938a19.748,19.748,0,0,0,7.292-15.665q0-9.2-6.154-14.054M1626.2,283.922a5.9,5.9,0,0,1-3.351-5.51,7.091,7.091,0,0,1,3.4-6.256,13.1,13.1,0,0,1,4.611-1.815v15.285a23.475,23.475,0,0,1-4.659-1.7m19.261,33.8a17.473,17.473,0,0,1-2.42.626V302.235a23.633,23.633,0,0,1,5.557,2.231,5.886,5.886,0,0,1,3.013,5.277q0,5.837-6.151,7.984" transform="translate(10645.132 -10559.191)" fill="#a6a7aa"/>
    <path id="Trazado_749861" data-name="Trazado 749861" d="M728.053,914.687h-18.1l-17.165,29.16-17.269-29.16h-18.2l22.155,36.869h-8.273v12.126h13.21v2.239h-13.21v12.125h13.21v15.585H700.65V978.047h13.52V965.921H700.65v-2.239h13.52V951.556h-8.323Z" transform="translate(10903.046 -10739.858)" fill="#a6a7aa"/>
    <path id="Trazado_749862" data-name="Trazado 749862" d="M154.587,209.49a19.987,19.987,0,0,1-4.863,11.4q-3.979,4.325-11.053,4.323a17.989,17.989,0,0,1-8.843-2.014,16.834,16.834,0,0,1-5.9-5.355c-.26-.384-.5-.78-.739-1.181h13.66V205.139H119.768q-.1-1.056-.134-2.127h17.219V191.49H120.989a23.157,23.157,0,0,1,2.944-6.416,16.693,16.693,0,0,1,5.9-5.4,18.013,18.013,0,0,1,8.843-2.014,16.052,16.052,0,0,1,5.452.934,15.878,15.878,0,0,1,4.667,2.6,15.537,15.537,0,0,1,3.439,3.88A12.622,12.622,0,0,1,154,189.938h14.934a28.278,28.278,0,0,0-3.341-10.807,26.283,26.283,0,0,0-6.73-7.909,29.685,29.685,0,0,0-9.236-4.863,37.616,37.616,0,0,0-25.447,1.179,31.01,31.01,0,0,0-10.857,7.86,35.037,35.037,0,0,0-6.779,11.741,40.041,40.041,0,0,0-1.251,4.352H96.03v11.521H104.2q.028,1.075.1,2.127H96.03V216.66h10.746a33.959,33.959,0,0,0,6.545,10.908,31.049,31.049,0,0,0,10.857,7.713,35.973,35.973,0,0,0,14.493,2.8,34.581,34.581,0,0,0,11.888-1.965,27.563,27.563,0,0,0,9.432-5.7,28.485,28.485,0,0,0,6.485-9.039,35.675,35.675,0,0,0,3.045-11.889Z" transform="translate(11055.256 -10536.476)" fill="#a6a7aa"/>
    <path id="Trazado_749863" data-name="Trazado 749863" d="M304.047,867.884c-1.9-.405-3.808-.836-5.681-1.279l.911-3.847c1.845.436,3.728.861,5.6,1.26Z" transform="translate(11000.387 -10725.775)" fill="#d5772e"/>
    <path id="Trazado_749864" data-name="Trazado 749864" d="M312.833,895.511a19.342,19.342,0,1,0-22.925,0,22.207,22.207,0,0,0-14.13,20.683V930.07h51.185V916.193a22.206,22.206,0,0,0-14.13-20.683" transform="translate(11006.513 -10725.196)" fill="#b3dd19"/>
    <path id="Trazado_749865" data-name="Trazado 749865" d="M303.772,860.617a19.332,19.332,0,0,0-19.136,16.662c.39,0,14.488.056,19.136-8.616,0,0,4.546,8.586,19.133,8.616a19.328,19.328,0,0,0-19.133-16.662" transform="translate(11004.11 -10725.196)" fill="#df912f"/>
    <path id="Trazado_749866" data-name="Trazado 749866" d="M491.054,985.622a20.883,20.883,0,0,0-7.344-4.885,17.875,17.875,0,0,0,7.2-17.126c-2.259-.046-13.81-.643-17.877-7.93-4.066,7.287-15.616,7.884-17.876,7.93a17.875,17.875,0,0,0,7.2,17.126,20.92,20.92,0,0,0-13.266,19.42v13.029h47.882v-13.029a20.751,20.751,0,0,0-5.922-14.535" transform="translate(10959.514 -10750.975)" fill="#b3dd19"/>
    <path id="Trazado_749867" data-name="Trazado 749867" d="M453.926,959.506v13.088a18.655,18.655,0,0,0,2.371,9.118,20.776,20.776,0,0,1,7.306-4.859,17.778,17.778,0,0,1-7.164-17.036c2.248-.047,13.738-.64,17.783-7.888V940.734H472.7a18.772,18.772,0,0,0-18.772,18.772" transform="translate(10958.203 -10746.922)" fill="#4674b7"/>
    <path id="Trazado_749868" data-name="Trazado 749868" d="M483.552,940.734h-1.779v2.979c.03,0,.06-.005.09-.005h.035a.263.263,0,0,1,.042,0c.042,0,.082.007.125.009-.055,0-.112-.009-.167-.009s-.084.006-.125.007v.544c.03,0,.06,0,.09,0l.037,0-.128.007v7.664c.028-.053.063-.1.09-.155,0,0,.021.031.037.059.014-.02.028-.038.039-.059,0,0,2.881,4.829,10.542,7,.063.017.121.036.184.052.29.082.584.156.888.228.41.1.832.187,1.271.264q.306.059.619.109c.555.088,1.125.166,1.717.224.118.012.238.022.357.034.7.06,1.417.1,2.166.117a.374.374,0,0,1,.051,0h.076a17.8,17.8,0,0,1-7.165,17.043,20.757,20.757,0,0,1,7.263,4.813.573.573,0,0,0,.047.046,18.66,18.66,0,0,0,2.368-9.118V959.506a18.77,18.77,0,0,0-18.772-18.772" transform="translate(10950.651 -10746.922)" fill="#4674b7"/>
    <path id="Trazado_749869" data-name="Trazado 749869" d="M840.543,56.309v7.145h67.686v84.382h6.613V56.309Z" transform="translate(10853.362 -10507.086)" fill="#a6a7aa"/>
    <path id="Trazado_749870" data-name="Trazado 749870" d="M888.739,163.593H823.966V69.008h77.657V149.33Z" transform="translate(10857.856 -10510.53)" fill="#dcdcdb"/>
    <path id="Trazado_749871" data-name="Trazado 749871" d="M925.723,179.215H912.84v14.263Z" transform="translate(10833.756 -10540.415)" fill="#a6a7aa"/>
    <rect id="Rectángulo_356802" data-name="Rectángulo 356802" width="46.976" height="1.318" transform="translate(11705.455 -10428.884)" fill="#595a5c"/>
    <rect id="Rectángulo_356803" data-name="Rectángulo 356803" width="64.45" height="1.318" transform="translate(11687.981 -10423.828)" fill="#595a5c"/>
    <rect id="Rectángulo_356804" data-name="Rectángulo 356804" width="64.45" height="1.318" transform="translate(11687.981 -10418.182)" fill="#595a5c"/>
    <rect id="Rectángulo_356805" data-name="Rectángulo 356805" width="64.45" height="1.318" transform="translate(11687.981 -10385.54)" fill="#595a5c"/>
    <rect id="Rectángulo_356806" data-name="Rectángulo 356806" width="64.45" height="1.318" transform="translate(11687.981 -10379.895)" fill="#595a5c"/>
    <rect id="Rectángulo_356807" data-name="Rectángulo 356807" width="64.45" height="1.318" transform="translate(11687.981 -10373.925)" fill="#595a5c"/>
    <rect id="Rectángulo_356808" data-name="Rectángulo 356808" width="64.45" height="1.318" transform="translate(11687.981 -10368.279)" fill="#595a5c"/>
    <rect id="Rectángulo_356809" data-name="Rectángulo 356809" width="51.671" height="1.318" transform="translate(11687.981 -10362.276)" fill="#595a5c"/>
    <rect id="Rectángulo_356810" data-name="Rectángulo 356810" width="40.962" height="20.161" transform="translate(11687.981 -10410.872)" fill="#4674b7"/>
    <rect id="Rectángulo_356811" data-name="Rectángulo 356811" width="18.549" height="20.161" transform="translate(11732.589 -10410.872)" fill="#df912f"/>
    <path id="Trazado_749872" data-name="Trazado 749872" d="M959.328,1012.108H893.771l10.672-28.861h44.211Z" transform="translate(10838.927 -10758.45)" fill="#a6a7aa"/>
    <path id="Trazado_749873" data-name="Trazado 749873" d="M1052.086,1012.108H986.53L997.2,983.247h44.211Z" transform="translate(10813.772 -10758.45)" fill="#a6a7aa"/>
    <path id="Trazado_749874" data-name="Trazado 749874" d="M1144.845,1012.108h-65.556l10.672-28.861h44.211Z" transform="translate(10788.619 -10758.45)" fill="#a6a7aa"/>
    <path id="Trazado_749875" data-name="Trazado 749875" d="M1005.707,967.488H940.151l10.672-28.861h44.211Z" transform="translate(10826.35 -10746.351)" fill="#a6a7aa"/>
    <path id="Trazado_749876" data-name="Trazado 749876" d="M1098.465,967.488h-65.556l10.672-28.861h44.211Z" transform="translate(10801.196 -10746.351)" fill="#a6a7aa"/>
    <path id="Trazado_749877" data-name="Trazado 749877" d="M1053.491,924.347H987.935l10.672-28.861h44.211Z" transform="translate(10813.393 -10734.651)" fill="#a6a7aa"/>
    <path id="Trazado_749878" data-name="Trazado 749878" d="M1596.826,702.164a34.6,34.6,0,1,0,10.134,24.468,34.377,34.377,0,0,0-10.134-24.468m-23.2,56.509v-5.484h-2.535v5.484a32.109,32.109,0,0,1-30.774-30.773h5.484v-2.535h-5.484a32.109,32.109,0,0,1,30.774-30.774v5.484h2.535v-5.484a32.107,32.107,0,0,1,30.773,30.774h-5.483V727.9h5.483a32.107,32.107,0,0,1-30.773,30.773" transform="translate(10664.294 -10679.479)" fill="#595a5c"/>
    <path id="Trazado_749879" data-name="Trazado 749879" d="M1586.029,708.725h-2.535v23.7H1594.6v-2.535h-8.571Z" transform="translate(10651.891 -10684.007)" fill="#595a5c"/>
    <path id="Trazado_749880" data-name="Trazado 749880" d="M1029.657,436.534l-31.78-18.347L966.1,436.534l31.78,18.349Z" transform="translate(10819.313 -10605.22)" fill="#4674b7"/>
    <path id="Trazado_749881" data-name="Trazado 749881" d="M966.1,443.361V645.655L997.878,664V461.71Z" transform="translate(10819.313 -10612.046)" fill="#a6a7aa"/>
    <path id="Trazado_749882" data-name="Trazado 749882" d="M1009.7,461.709V664l31.78-18.348V443.36Z" transform="translate(10807.49 -10612.046)" fill="#dcdcdb"/>
    <path id="Trazado_749883" data-name="Trazado 749883" d="M964.252,642.42l-31.78-18.347-31.78,18.347,31.78,18.348Z" transform="translate(10837.051 -10661.05)" fill="#df912f"/>
    <path id="Trazado_749884" data-name="Trazado 749884" d="M900.693,649.247v81.375l31.78,18.348V667.595Z" transform="translate(10837.051 -10667.877)" fill="#a6a7aa"/>
    <path id="Trazado_749885" data-name="Trazado 749885" d="M944.3,667.595v81.375l31.78-18.348V649.247Z" transform="translate(10825.227 -10667.877)" fill="#dcdcdb"/>
    <path id="Trazado_749886" data-name="Trazado 749886" d="M898.846,552.1l-31.78-18.347L835.287,552.1l31.78,18.348Z" transform="translate(10854.787 -10636.557)" fill="#4674b7"/>
    <path id="Trazado_749887" data-name="Trazado 749887" d="M835.287,558.922V735.263l31.78,18.348V577.27Z" transform="translate(10854.787 -10643.383)" fill="#a6a7aa"/>
    <path id="Trazado_749888" data-name="Trazado 749888" d="M878.891,577.27V753.611l31.78-18.348V558.922Z" transform="translate(10842.963 -10643.383)" fill="#dcdcdb"/>
    <path id="Trazado_749889" data-name="Trazado 749889" d="M833.441,722.371l-31.78-18.347-31.78,18.347,31.78,18.349Z" transform="translate(10872.523 -10682.731)" fill="#df912f"/>
    <path id="Trazado_749890" data-name="Trazado 749890" d="M769.881,729.2v81.375l31.78,18.349V747.547Z" transform="translate(10872.523 -10689.558)" fill="#a6a7aa"/>
    <path id="Trazado_749891" data-name="Trazado 749891" d="M813.485,747.546v81.375l31.78-18.349V729.2Z" transform="translate(10860.699 -10689.558)" fill="#dcdcdb"/>
    <path id="Trazado_749892" data-name="Trazado 749892" d="M900.471,291.1,881.4,306l14.064,5.055L845.152,423.544l-71.519-25.712-64.849,145,14.615,5.254,58.508-130.82,69.732,25.069,1.787.642,56.649-126.661,14.082,5.062-2.305-22.59-2.307-22.59Z" transform="translate(10889.092 -10566.715)" fill="#a6a7aa"/>
    <path id="Trazado_749893" data-name="Trazado 749893" d="M1436.469,507.521h-25.762a6.057,6.057,0,0,1,.054,2.635h25.646a5.164,5.164,0,0,1,.062-2.635" transform="translate(10698.746 -10629.444)" fill="#595a5c"/>
    <path id="Trazado_749894" data-name="Trazado 749894" d="M1498.891,483.425H1484.5a5.129,5.129,0,0,1,0,2.636h14.394a5.115,5.115,0,0,1,0-2.636" transform="translate(10678.736 -10622.91)" fill="#595a5c"/>
    <path id="Trazado_749895" data-name="Trazado 749895" d="M1467.085,488.553l-10.609,10.608a5.307,5.307,0,0,1,1.933,1.8l10.431-10.43a5.3,5.3,0,0,1-1.755-1.973" transform="translate(10686.335 -10624.3)" fill="#595a5c"/>
    <path id="Trazado_749896" data-name="Trazado 749896" d="M1526.766,499.166,1516.69,489.09a5.305,5.305,0,0,1-1.913,1.815l10.038,10.037a5.316,5.316,0,0,1,1.951-1.776" transform="translate(10670.525 -10624.446)" fill="#595a5c"/>
    <path id="Trazado_749897" data-name="Trazado 749897" d="M1588.93,527.444,1575.291,513.8a6.126,6.126,0,0,1-1.864,1.864l13.665,13.666a5.306,5.306,0,0,1,1.837-1.891" transform="translate(10654.62 -10631.149)" fill="#595a5c"/>
    <path id="Trazado_749898" data-name="Trazado 749898" d="M1571.248,510.946l-3.425-3.425h-4.845a4.481,4.481,0,0,0,0,2.636h3.753l2.653,2.652a4.52,4.52,0,0,0,1.864-1.864" transform="translate(10657.508 -10629.444)" fill="#595a5c"/>
    <path id="Trazado_749899" data-name="Trazado 749899" d="M1705.482,507.521H1678.35a6.057,6.057,0,0,1,.054,2.635h27.016a5.17,5.17,0,0,1,.062-2.635" transform="translate(10626.167 -10629.444)" fill="#595a5c"/>
    <path id="Trazado_749900" data-name="Trazado 749900" d="M1555.61,507.521h-13.977a5.134,5.134,0,0,1,0,2.635h13.977a6.03,6.03,0,0,1,0-2.635" transform="translate(10663.242 -10629.444)" fill="#595a5c"/>
    <path id="Trazado_749901" data-name="Trazado 749901" d="M1625.75,536.9h-20.255a5.137,5.137,0,0,1,0,2.636h20.255a5.14,5.14,0,0,1,0-2.636" transform="translate(10645.925 -10637.41)" fill="#595a5c"/>
    <path id="Trazado_749902" data-name="Trazado 749902" d="M1673,510.157a4.408,4.408,0,0,0-.073-2.635H1667.4l-2.951,2.951a4.513,4.513,0,0,0,1.6,2.127l2.443-2.443Z" transform="translate(10629.938 -10629.444)" fill="#595a5c"/>
    <path id="Trazado_749903" data-name="Trazado 749903" d="M1657.618,513.224l-13.9,13.9a5.306,5.306,0,0,1,1.944,1.783l13.634-13.633a6.111,6.111,0,0,1-1.675-2.053" transform="translate(10635.561 -10630.991)" fill="#595a5c"/>
    <path id="Trazado_749904" data-name="Trazado 749904" d="M1402.6,510.157h4.331a4.4,4.4,0,0,0-.074-2.635H1402.6Z" transform="translate(10700.944 -10629.444)" fill="#595a5c"/>
    <path id="Trazado_749905" data-name="Trazado 749905" d="M1537.067,549.311,1519.1,537.672a6.1,6.1,0,0,1-1.532,2.148l18.107,11.728a5.289,5.289,0,0,1,1.394-2.237" transform="translate(10669.769 -10637.621)" fill="#595a5c"/>
    <path id="Trazado_749906" data-name="Trazado 749906" d="M1351.033,522.55l-12.969-14.98a5.308,5.308,0,0,1-1.726,2.034l12.8,14.783a5.307,5.307,0,0,1,1.9-1.837" transform="translate(10718.914 -10629.457)" fill="#595a5c"/>
    <path id="Trazado_749907" data-name="Trazado 749907" d="M1308,501.934h-46.633a5.176,5.176,0,0,1-.053,2.636h46.43a5.319,5.319,0,0,1-.07-.821,5.257,5.257,0,0,1,.327-1.815" transform="translate(10739.26 -10627.93)" fill="#595a5c"/>
    <path id="Trazado_749908" data-name="Trazado 749908" d="M1466.634,533.213h-99.49a5.11,5.11,0,0,1-.223,2.636h99.906a6.037,6.037,0,0,1-.259-1.751,6.1,6.1,0,0,1,.066-.885" transform="translate(10710.621 -10636.412)" fill="#595a5c"/>
    <path id="Trazado_749909" data-name="Trazado 749909" d="M1514.553,535.582l-3.657-2.369H1505.9a4.474,4.474,0,0,0,.266,2.636h3.947l2.869,1.858a4.509,4.509,0,0,0,1.568-2.125" transform="translate(10672.955 -10636.412)" fill="#595a5c"/>
    <path id="Trazado_749910" data-name="Trazado 749910" d="M1231.836,506.553l-20.285,19.9.334.334-1.864,1.864-.352-.351-20.483,20.093a5.273,5.273,0,0,1,2.336,1.4l41.968-41.168a5.3,5.3,0,0,1-1.654-2.071" transform="translate(10758.817 -10629.182)" fill="#595a5c"/>
    <path id="Trazado_749911" data-name="Trazado 749911" d="M1212.428,527.04l-.334-.334-19.218-19.217a5.287,5.287,0,0,1-1.686,2.042l19.022,19.022.352.351Z" transform="translate(10758.273 -10629.436)" fill="#595a5c"/>
    <path id="Trazado_749912" data-name="Trazado 749912" d="M1231.281,561.361l13.9-13.9a5.309,5.309,0,0,1-1.945-1.783l-13.634,13.633a6.114,6.114,0,0,1,1.675,2.052" transform="translate(10747.856 -10639.791)" fill="#595a5c"/>
    <path id="Trazado_749913" data-name="Trazado 749913" d="M1261.408,542.545h20.255a5.14,5.14,0,0,1,0-2.636h-20.255a5.136,5.136,0,0,1,0,2.636" transform="translate(10739.232 -10638.228)" fill="#595a5c"/>
    <path id="Trazado_749914" data-name="Trazado 749914" d="M1300,547.2l13.639,13.64a6.12,6.12,0,0,1,1.864-1.864l-13.666-13.666A5.309,5.309,0,0,1,1300,547.2" transform="translate(10728.769 -10639.692)" fill="#595a5c"/>
    <path id="Trazado_749915" data-name="Trazado 749915" d="M1423.01,587.253l10.608-10.608a5.312,5.312,0,0,1-1.932-1.8l-10.431,10.43a5.3,5.3,0,0,1,1.755,1.973" transform="translate(10695.886 -10647.702)" fill="#595a5c"/>
    <path id="Trazado_749916" data-name="Trazado 749916" d="M1218.443,568.375a4.4,4.4,0,0,0,.073,2.636h5.535L1227,568.06a4.505,4.505,0,0,0-1.6-2.128l-2.443,2.443Z" transform="translate(10750.929 -10645.283)" fill="#595a5c"/>
    <path id="Trazado_749917" data-name="Trazado 749917" d="M1333.885,571.92h13.977a5.119,5.119,0,0,1,0-2.636h-13.977a6.033,6.033,0,0,1,0,2.636" transform="translate(10719.579 -10646.193)" fill="#595a5c"/>
    <path id="Trazado_749918" data-name="Trazado 749918" d="M1363.468,576.845l10.076,10.075a5.3,5.3,0,0,1,1.913-1.814l-10.038-10.037a5.312,5.312,0,0,1-1.951,1.776" transform="translate(10711.557 -10647.763)" fill="#595a5c"/>
    <path id="Trazado_749919" data-name="Trazado 749919" d="M1390.449,596.016h14.394a5.14,5.14,0,0,1,0-2.636h-14.394a5.136,5.136,0,0,1,0,2.636" transform="translate(10704.24 -10652.728)" fill="#595a5c"/>
    <path id="Trazado_749920" data-name="Trazado 749920" d="M1448.641,571.92h26.583a5.163,5.163,0,0,1-.062-2.636H1448.7a5.163,5.163,0,0,1-.062,2.636" transform="translate(10688.46 -10646.193)" fill="#595a5c"/>
    <path id="Trazado_749921" data-name="Trazado 749921" d="M1175.751,569.284h-11.693a5.163,5.163,0,0,1-.062,2.636h11.817a5.165,5.165,0,0,1-.062-2.636" transform="translate(10765.648 -10646.193)" fill="#595a5c"/>
    <path id="Trazado_749922" data-name="Trazado 749922" d="M1194.163,571.92h16.167a6.076,6.076,0,0,1-.173-1.439,6.139,6.139,0,0,1,.118-1.2h-16.05a5.169,5.169,0,0,1-.062,2.636" transform="translate(10757.469 -10646.193)" fill="#595a5c"/>
    <path id="Trazado_749923" data-name="Trazado 749923" d="M1320.3,567.508l3.425,3.426h4.845a4.476,4.476,0,0,0,0-2.636h-3.753l-2.653-2.652a4.516,4.516,0,0,0-1.864,1.863" transform="translate(10723.264 -10645.206)" fill="#595a5c"/>
    <path id="Trazado_749924" data-name="Trazado 749924" d="M1216.279,570.1a6.052,6.052,0,1,0-.173-1.438,6.089,6.089,0,0,0,.173,1.438m5.906-5.935a4.516,4.516,0,1,1-4.331,3.3,4.467,4.467,0,0,1,4.331-3.3" transform="translate(10751.519 -10644.377)" fill="#595a5c"/>
    <path id="Trazado_749925" data-name="Trazado 749925" d="M1249.937,544.417a5.3,5.3,0,1,0-1.944-1.783,5.26,5.26,0,0,0,1.944,1.783" transform="translate(10743.104 -10636.75)" fill="#df912f"/>
    <path id="Trazado_749926" data-name="Trazado 749926" d="M1289.136,541.068a5.136,5.136,0,1,0-.172-1.318,5.286,5.286,0,0,0,.172,1.318" transform="translate(10731.761 -10636.75)" fill="#a6a7aa"/>
    <path id="Trazado_749927" data-name="Trazado 749927" d="M1318.357,565.569a6.092,6.092,0,1,0,1.865-1.863,6.117,6.117,0,0,0-1.865,1.863m5.126-1.235a4.5,4.5,0,1,1-2.107.527,4.506,4.506,0,0,1,2.107-.527" transform="translate(10724.049 -10644.422)" fill="#595a5c"/>
    <path id="Trazado_749928" data-name="Trazado 749928" d="M1353,570.443a5.133,5.133,0,1,0-.172-1.318,5.284,5.284,0,0,0,.172,1.318" transform="translate(10714.442 -10644.716)" fill="#4674b7"/>
    <path id="Trazado_749929" data-name="Trazado 749929" d="M1376.989,590.41a5.274,5.274,0,1,0,1.913-1.815,5.313,5.313,0,0,0-1.913,1.815" transform="translate(10708.111 -10651.25)" fill="#a6a7aa"/>
    <path id="Trazado_749930" data-name="Trazado 749930" d="M1410.134,594.539a5.133,5.133,0,1,0-.172-1.318,5.285,5.285,0,0,0,.172,1.318" transform="translate(10698.949 -10651.25)" fill="#a6a7aa"/>
    <path id="Trazado_749931" data-name="Trazado 749931" d="M1437.185,573.614a5.3,5.3,0,0,0,7.8-4.654,5.288,5.288,0,0,0-10.576,0,5.261,5.261,0,0,0,.843,2.859,5.318,5.318,0,0,0,1.933,1.8" transform="translate(10692.319 -10644.672)" fill="#a6a7aa"/>
    <path id="Trazado_749932" data-name="Trazado 749932" d="M1160.2,567.762a5.172,5.172,0,1,0,.141,1.2,5.286,5.286,0,0,0-.141-1.2" transform="translate(10769.508 -10644.672)" fill="#a6a7aa"/>
    <path id="Trazado_749933" data-name="Trazado 749933" d="M1485.038,570.4a5.165,5.165,0,1,0-.2-1.439,5.287,5.287,0,0,0,.2,1.439" transform="translate(10678.645 -10644.672)" fill="#df912f"/>
    <path id="Trazado_749934" data-name="Trazado 749934" d="M1673.891,505.8a6.047,6.047,0,1,0,.173,1.437,6.087,6.087,0,0,0-.173-1.437m-5.9,5.934a4.466,4.466,0,0,1-2.63-.856,4.513,4.513,0,0,1-1.6-2.128,4.449,4.449,0,0,1-.268-1.513,4.495,4.495,0,1,1,4.5,4.5" transform="translate(10630.626 -10627.719)" fill="#595a5c"/>
    <path id="Trazado_749935" data-name="Trazado 749935" d="M1640.822,532.069a5.3,5.3,0,1,0,1.944,1.783,5.266,5.266,0,0,0-1.944-1.783" transform="translate(10638.452 -10635.934)" fill="#a6a7aa"/>
    <path id="Trazado_749936" data-name="Trazado 749936" d="M1601.624,535.419a5.136,5.136,0,1,0,.172,1.318,5.286,5.286,0,0,0-.172-1.318" transform="translate(10649.795 -10635.933)" fill="#4674b7"/>
    <path id="Trazado_749937" data-name="Trazado 749937" d="M1571.815,510.33a6.091,6.091,0,1,0-1.864,1.864,6.12,6.12,0,0,0,1.864-1.864m-5.126,1.235a4.5,4.5,0,1,1,2.107-.527,4.505,4.505,0,0,1-2.107.527" transform="translate(10658.097 -10627.673)" fill="#595a5c"/>
    <path id="Trazado_749938" data-name="Trazado 749938" d="M1537.762,506.044a5.13,5.13,0,1,0,.172,1.318,5.285,5.285,0,0,0-.172-1.318" transform="translate(10667.113 -10627.967)" fill="#a6a7aa"/>
    <path id="Trazado_749939" data-name="Trazado 749939" d="M1513.77,486.077a5.276,5.276,0,1,0-1.913,1.814,5.258,5.258,0,0,0,1.913-1.814" transform="translate(10673.444 -10621.433)" fill="#a6a7aa"/>
    <path id="Trazado_749940" data-name="Trazado 749940" d="M1480.626,481.948a5.137,5.137,0,1,0,.172,1.318,5.285,5.285,0,0,0-.172-1.318" transform="translate(10682.607 -10621.433)" fill="#4674b7"/>
    <path id="Trazado_749941" data-name="Trazado 749941" d="M1453.575,502.873a5.312,5.312,0,1,0,1.933,1.8,5.268,5.268,0,0,0-1.933-1.8" transform="translate(10689.237 -10628.013)" fill="#a6a7aa"/>
    <path id="Trazado_749942" data-name="Trazado 749942" d="M1720.586,502.239a5.288,5.288,0,1,0,5.288,5.288,5.286,5.286,0,0,0-5.288-5.288" transform="translate(10616.148 -10628.013)" fill="#a6a7aa"/>
    <path id="Trazado_749943" data-name="Trazado 749943" d="M1406.248,505.8a6.08,6.08,0,1,0,.173,1.437,6.088,6.088,0,0,0-.173-1.437m-5.906,5.934a4.5,4.5,0,1,1,4.257-5.934,4.4,4.4,0,0,1,.073,2.635,4.5,4.5,0,0,1-4.331,3.3" transform="translate(10703.205 -10627.719)" fill="#595a5c"/>
    <path id="Trazado_749944" data-name="Trazado 749944" d="M1186.676,563.88a5.285,5.285,0,1,0,2.336,1.4,5.282,5.282,0,0,0-2.336-1.4" transform="translate(10761.327 -10644.672)" fill="#4674b7"/>
    <path id="Trazado_749945" data-name="Trazado 749945" d="M1257.5,500.418a5.157,5.157,0,1,0,.146,1.214,5.286,5.286,0,0,0-.146-1.214" transform="translate(10743.12 -10626.414)" fill="#a6a7aa"/>
    <path id="Trazado_749946" data-name="Trazado 749946" d="M1334.967,504.75a5.288,5.288,0,1,0-1.725,2.034,5.257,5.257,0,0,0,1.725-2.034" transform="translate(10722.01 -10626.637)" fill="#a6a7aa"/>
    <path id="Trazado_749947" data-name="Trazado 749947" d="M1363.321,531.575a5.106,5.106,0,1,0,.08.886,5.285,5.285,0,0,0-.08-.886" transform="translate(10714.443 -10634.773)" fill="#a6a7aa"/>
    <path id="Trazado_749948" data-name="Trazado 749948" d="M1515.323,534.531a6.079,6.079,0,1,0-11.614-3.25,6.078,6.078,0,0,0,6.014,6.965,6.1,6.1,0,0,0,5.6-3.715m-5.6,2.133a4.515,4.515,0,1,1,2.673-.889,4.5,4.5,0,0,1-2.673.889" transform="translate(10673.544 -10634.479)" fill="#595a5c"/>
    <path id="Trazado_749949" data-name="Trazado 749949" d="M1547.37,551.62a5.288,5.288,0,1,0,5.287,5.288,5.264,5.264,0,0,0-5.287-5.288" transform="translate(10663.12 -10641.403)" fill="#a6a7aa"/>
    <path id="Trazado_749950" data-name="Trazado 749950" d="M1189.755,504.69a5.3,5.3,0,1,0-1.686,2.042,5.257,5.257,0,0,0,1.686-2.042" transform="translate(10761.396 -10626.637)" fill="#df912f"/>
    <path id="Trazado_749951" data-name="Trazado 749951" d="M1474.028,679.3a9.276,9.276,0,1,0,9.276,9.276,9.276,9.276,0,0,0-9.276-9.276" transform="translate(10684.091 -10676.027)" fill="#e6e6e6"/>
    <g id="Grupo_1020281" data-name="Grupo 1020281" transform="translate(12148.842 -9996.727)" opacity="0.5" style="mix-blend-mode: multiply;isolation: isolate">
      <g id="Grupo_1020280" data-name="Grupo 1020280">
        <g id="Grupo_1020279" data-name="Grupo 1020279" clip-path="url(#clip-path)">
          <g id="Grupo_1020278" data-name="Grupo 1020278" transform="translate(0.001 -0.001)">
            <g id="Grupo_1020277" data-name="Grupo 1020277" clip-path="url(#clip-path-2)">
              <path id="Trazado_749952" data-name="Trazado 749952" d="M1474.028,697.853a9.276,9.276,0,0,1,0-18.552Z" transform="translate(-1464.751 -679.3)" fill="#e6e6e6"/>
            </g>
          </g>
        </g>
      </g>
    </g>
    <path id="Trazado_749953" data-name="Trazado 749953" d="M656.72,784.884A9.276,9.276,0,1,0,666,794.16a9.276,9.276,0,0,0-9.275-9.276" transform="translate(10905.726 -10704.659)" fill="#e6e6e6"/>
    <g id="Grupo_1020286" data-name="Grupo 1020286" transform="translate(11553.169 -9919.774)" opacity="0.5" style="mix-blend-mode: multiply;isolation: isolate">
      <g id="Grupo_1020285" data-name="Grupo 1020285">
        <g id="Grupo_1020284" data-name="Grupo 1020284" clip-path="url(#clip-path)">
          <g id="Grupo_1020283" data-name="Grupo 1020283" transform="translate(0 -0.001)">
            <g id="Grupo_1020282" data-name="Grupo 1020282" clip-path="url(#clip-path-2)">
              <path id="Trazado_749954" data-name="Trazado 749954" d="M656.72,803.436a9.276,9.276,0,1,1,0-18.551Z" transform="translate(-647.443 -784.884)" fill="#e6e6e6"/>
            </g>
          </g>
        </g>
      </g>
    </g>
    <path id="Trazado_749955" data-name="Trazado 749955" d="M135.055,661.694a9.276,9.276,0,1,0,9.276,9.276,9.276,9.276,0,0,0-9.276-9.276" transform="translate(11047.189 -10671.252)" fill="#e6e6e6"/>
    <g id="Grupo_1020291" data-name="Grupo 1020291" transform="translate(11172.968 -10009.559)" opacity="0.5" style="mix-blend-mode: multiply;isolation: isolate">
      <g id="Grupo_1020290" data-name="Grupo 1020290">
        <g id="Grupo_1020289" data-name="Grupo 1020289" clip-path="url(#clip-path-2)">
          <g id="Grupo_1020288" data-name="Grupo 1020288">
            <g id="Grupo_1020287" data-name="Grupo 1020287" clip-path="url(#clip-path-2)">
              <path id="Trazado_749956" data-name="Trazado 749956" d="M135.055,680.245a9.276,9.276,0,1,1,0-18.551Z" transform="translate(-125.778 -661.693)" fill="#e6e6e6"/>
            </g>
          </g>
        </g>
      </g>
    </g>
    <path id="Trazado_749957" data-name="Trazado 749957" d="M254.2,105.31a9.276,9.276,0,1,0,9.276,9.276,9.276,9.276,0,0,0-9.276-9.276" transform="translate(11014.879 -10520.374)" fill="#e6e6e6"/>
    <g id="Grupo_1020296" data-name="Grupo 1020296" transform="translate(11259.803 -10415.064)" opacity="0.5" style="mix-blend-mode: multiply;isolation: isolate">
      <g id="Grupo_1020295" data-name="Grupo 1020295">
        <g id="Grupo_1020294" data-name="Grupo 1020294" clip-path="url(#clip-path)">
          <g id="Grupo_1020293" data-name="Grupo 1020293" transform="translate(0 -0.001)">
            <g id="Grupo_1020292" data-name="Grupo 1020292" clip-path="url(#clip-path-2)">
              <path id="Trazado_749958" data-name="Trazado 749958" d="M254.2,123.862a9.276,9.276,0,0,1,0-18.552Z" transform="translate(-244.924 -105.309)" fill="#e6e6e6"/>
            </g>
          </g>
        </g>
      </g>
    </g>
    <path id="Trazado_749959" data-name="Trazado 749959" d="M1695.5,793.16a23.97,23.97,0,1,0,23.97,23.97,23.97,23.97,0,0,0-23.97-23.97" transform="translate(10628.017 -10706.902)" fill="#e6e6e6"/>
    <g id="Grupo_1020301" data-name="Grupo 1020301" transform="translate(12299.547 -9913.743)" opacity="0.5" style="mix-blend-mode: multiply;isolation: isolate">
      <g id="Grupo_1020300" data-name="Grupo 1020300">
        <g id="Grupo_1020299" data-name="Grupo 1020299" clip-path="url(#clip-path-9)">
          <g id="Grupo_1020298" data-name="Grupo 1020298" transform="translate(0.002 -0.001)">
            <g id="Grupo_1020297" data-name="Grupo 1020297" clip-path="url(#clip-path-10)">
              <path id="Trazado_749960" data-name="Trazado 749960" d="M1695.5,841.1a23.97,23.97,0,0,1,0-47.94Z" transform="translate(-1671.534 -793.159)" fill="#e6e6e6"/>
            </g>
          </g>
        </g>
      </g>
    </g>
    <path id="Trazado_749961" data-name="Trazado 749961" d="M1095.937,243.647a28.882,28.882,0,1,0,28.883,28.882,28.882,28.882,0,0,0-28.883-28.882" transform="translate(10791.937 -10557.888)" fill="#e6e6e6"/>
    <g id="Grupo_1020306" data-name="Grupo 1020306" transform="translate(11858.988 -10314.242)" opacity="0.5" style="mix-blend-mode: multiply;isolation: isolate">
      <g id="Grupo_1020305" data-name="Grupo 1020305">
        <g id="Grupo_1020304" data-name="Grupo 1020304" clip-path="url(#clip-path-11)">
          <g id="Grupo_1020303" data-name="Grupo 1020303" transform="translate(0.001)">
            <g id="Grupo_1020302" data-name="Grupo 1020302" clip-path="url(#clip-path-12)">
              <path id="Trazado_749962" data-name="Trazado 749962" d="M1095.937,301.411a28.882,28.882,0,1,1,0-57.764Z" transform="translate(-1067.052 -243.646)" fill="#e6e6e6"/>
            </g>
          </g>
        </g>
      </g>
    </g>
    <path id="Trazado_749963" data-name="Trazado 749963" d="M283.82,997.236a18.665,18.665,0,1,0,18.665,18.664,18.665,18.665,0,0,0-18.665-18.664" transform="translate(11009.393 -10762.243)" fill="#e6e6e6"/>
    <g id="Grupo_1020311" data-name="Grupo 1020311" transform="translate(11274.547 -9765.009)" opacity="0.5" style="mix-blend-mode: multiply;isolation: isolate">
      <g id="Grupo_1020310" data-name="Grupo 1020310">
        <g id="Grupo_1020309" data-name="Grupo 1020309" clip-path="url(#clip-path-13)">
          <g id="Grupo_1020308" data-name="Grupo 1020308">
            <g id="Grupo_1020307" data-name="Grupo 1020307" clip-path="url(#clip-path-14)">
              <path id="Trazado_749964" data-name="Trazado 749964" d="M283.82,1034.566a18.665,18.665,0,1,1,0-37.33Z" transform="translate(-265.154 -997.235)" fill="#e6e6e6"/>
            </g>
          </g>
        </g>
      </g>
    </g>
  </g>
</svg>
