<svg xmlns="http://www.w3.org/2000/svg" width="14.387" height="14.388" viewBox="0 0 14.387 14.388">
  <g id="Grupo_1019357" data-name="Grupo 1019357" transform="translate(-812 -634)">
    <path id="Trazado_749767" data-name="Trazado 749767" d="M215.87,16.48a6.817,6.817,0,0,1,.695.036l.049-.477a7.28,7.28,0,0,0-1.984.068l.082.472A6.78,6.78,0,0,1,215.87,16.48Z" transform="translate(603.324 618)" fill="#eb6f2d"/>
    <path id="Trazado_749768" data-name="Trazado 749768" d="M19.257,61.932l-.281-.388a7.2,7.2,0,0,0-2.232,9.019l.43-.213a6.72,6.72,0,0,1,2.084-8.417Z" transform="translate(796.001 573.821)" fill="#eb6f2d"/>
    <path id="Trazado_749769" data-name="Trazado 749769" d="M263.729,469.33l.016.479a7.18,7.18,0,0,0,1.985-.349l-.149-.456A6.7,6.7,0,0,1,263.729,469.33Z" transform="translate(555.696 178.573)" fill="#eb6f2d"/>
    <path id="Trazado_749770" data-name="Trazado 749770" d="M112,248h.48v5.515H112Z" transform="translate(702.877 392.954)" fill="#eb6f2d"/>
    <path id="Trazado_749771" data-name="Trazado 749771" d="M160,248h.48v5.515H160Z" transform="translate(656.316 392.954)" fill="#eb6f2d"/>
    <path id="Trazado_749772" data-name="Trazado 749772" d="M208,248h.48v5.515H208Z" transform="translate(609.755 392.954)" fill="#eb6f2d"/>
    <path id="Trazado_749773" data-name="Trazado 749773" d="M76.813,23.426l-4.322-2.079a.72.72,0,0,0-.96.336l-1.3,2.7V22a1.2,1.2,0,0,0-1.2-1.2h-.959V16.96a.959.959,0,1,0-1.918,0V20.8H65.2A1.2,1.2,0,0,0,64,22V28.23a1.2,1.2,0,0,0,.79,1.127.719.719,0,1,0,1.326.072h2a.719.719,0,1,0,1.326-.072,1.2,1.2,0,0,0,.76-.861l3.386,1.629a.24.24,0,0,0,.32-.112l3.014-6.267a.24.24,0,0,0-.112-.32Zm-4.633-1.67a.238.238,0,0,1,.1.024l4.106,1.975-.208.432-4.106-1.975a.24.24,0,0,1-.112-.32h0a.24.24,0,0,1,.217-.136Zm-5.542-4.8a.48.48,0,0,1,.959,0V20.8h-.959Zm-.959,12.709a.24.24,0,1,1-.24-.24.24.24,0,0,1,.24.24Zm3.117.24a.24.24,0,1,1,.24-.24.24.24,0,0,1-.24.24Zm.24-.959H65.2a.72.72,0,0,1-.719-.719V22a.72.72,0,0,1,.719-.719h.959v1.2h.48v-1.2H67.6v1.2h.48v-1.2h.959a.72.72,0,0,1,.719.719v3.38l-.823,1.71a.719.719,0,0,0,.336.96l.484.233a.72.72,0,0,1-.718.671Zm4.547.639-4.106-1.975a.24.24,0,0,1-.112-.32l2.3-4.791a.716.716,0,0,0,.2.141l4.106,1.975Z" transform="translate(749.438 618)" fill="#eb6f2d"/>
    <path id="Trazado_749774" data-name="Trazado 749774" d="M306.547,277.869a1.678,1.678,0,1,0,.785,2.24A1.678,1.678,0,0,0,306.547,277.869Zm.435,1.806-.43-.207a2.331,2.331,0,0,0,.139-.827v-.083A1.2,1.2,0,0,1,306.983,279.675Zm-1.491.471-.063.049v-.08a1.851,1.851,0,0,1,.095-.611l.387.186A1.85,1.85,0,0,1,305.492,280.146Zm.238-1.074a1.849,1.849,0,0,1,.418-.455l.063-.049v.08a1.85,1.85,0,0,1-.095.611Zm.092-.89c.033,0,.065,0,.1,0l-.065.051a2.331,2.331,0,0,0-.559.625l-.429-.207A1.2,1.2,0,0,1,305.822,278.183Zm-1.165.906.43.207a2.329,2.329,0,0,0-.139.827v.084A1.2,1.2,0,0,1,304.657,279.088Zm1.063,1.488.066-.051a2.331,2.331,0,0,0,.559-.625l.43.207A1.2,1.2,0,0,1,305.72,280.576Z" transform="translate(516.496 364.142)" fill="#eb6f2d"/>
    <path id="Trazado_749775" data-name="Trazado 749775" d="M0,0H.48V2.4H0Z" transform="translate(819.981 645.593) rotate(-64.332)" fill="#eb6f2d"/>
    <path id="Trazado_749776" data-name="Trazado 749776" d="M220.366,108.5a.749.749,0,0,0-1.058,0,.269.269,0,0,1-.38,0l-.06-.06a1.683,1.683,0,0,0-2.377,0,.688.688,0,0,1-.49.2v.48a1.165,1.165,0,0,0,.829-.343,1.2,1.2,0,0,1,1.7,0l.06.06a.749.749,0,0,0,1.058,0,.269.269,0,0,1,.38,0l.442.442A4.836,4.836,0,0,0,223.7,110.7a6.7,6.7,0,0,1,.2,1.22l.478-.033a7.126,7.126,0,0,0-.745-2.729l-.429.215a6.685,6.685,0,0,1,.351.837,4.358,4.358,0,0,1-2.746-1.272Z" transform="translate(601.995 528.812)" fill="#eb6f2d"/>
    <path id="Trazado_749777" data-name="Trazado 749777" d="M288.115,17.164l3.994,2.441a.717.717,0,0,0,.884-.105l.932-.932a.24.24,0,0,0,0-.339l-.48-.48a.24.24,0,0,0-.3-.03l-.586.391-1.095-.73.567-.756a.24.24,0,0,0-.022-.313l-.24-.24a.24.24,0,0,0-.277-.045l-1.321.661-.444-.266a1.2,1.2,0,0,0-1.465.18l-.19.19a.24.24,0,0,0,.044.374Zm1.363-.333.557.334a.24.24,0,0,0,.231.009l1.2-.6-.542.722a.24.24,0,0,0,.059.343l1.439.959a.24.24,0,0,0,.266,0l.556-.371.171.171-.762.762a.239.239,0,0,1-.295.035l-3.733-2.282a.718.718,0,0,1,.852-.083Z" transform="translate(532.153 618)" fill="#eb6f2d"/>
  </g>
</svg>
