<svg xmlns="http://www.w3.org/2000/svg" width="361" height="333.221" viewBox="0 0 361 333.221">
  <g id="Grupo_1020319" data-name="Grupo 1020319" transform="translate(-180 -5472.221)">
    <path id="Trazado_622590" data-name="Trazado 622590" d="M36.151,17.708l69.577,1.61V99.272L27.717,56.862Z" transform="translate(223.001 5706.169)" fill="#8db114"/>
    <path id="Trazado_622589" data-name="Trazado 622589" d="M0,0H147.161V56.772L0,14.7Z" transform="translate(397.836 5763.045) rotate(180)" fill="#6a850f"/>
    <path id="Trazado_622588" data-name="Trazado 622588" d="M7.044,18.779H214.3V98.734L7.044,39.476Z" transform="translate(183.538 5664.312)" fill="#8db114"/>
    <path id="Trazado_749972" data-name="Trazado 749972" d="M10,0H351a10,10,0,0,1,10,10V223a10,10,0,0,1-10,10H10A10,10,0,0,1,0,223V10A10,10,0,0,1,10,0Z" transform="translate(180 5472.221)" fill="#6a850f"/>
    <path id="Trazado_749973" data-name="Trazado 749973" d="M67.371,32.586a9.662,9.662,0,0,1-4.249,2.792,17.794,17.794,0,0,1-6.086.993,12.056,12.056,0,0,1-6.151-1.531A10.21,10.21,0,0,1,46.8,30.4a15.64,15.64,0,0,1-1.475-6.847V21.713a16.61,16.61,0,0,1,1.364-7,10.088,10.088,0,0,1,3.934-4.527,11.331,11.331,0,0,1,6.021-1.568q4.806,0,7.515,2.292a9.793,9.793,0,0,1,3.21,6.67H61.953a5.387,5.387,0,0,0-1.642-3.4,5.244,5.244,0,0,0-3.5-1.076,4.936,4.936,0,0,0-4.323,2.134q-1.484,2.134-1.5,6.346v1.726q0,4.249,1.614,6.42A5.528,5.528,0,0,0,57.333,31.9q3.136,0,4.472-1.336V25.906H56.739v-4.1H67.371Zm3.321-6.81a11.906,11.906,0,0,1,1.15-5.325,8.422,8.422,0,0,1,3.312-3.618,9.663,9.663,0,0,1,5.019-1.28,9.142,9.142,0,0,1,6.633,2.486,9.979,9.979,0,0,1,2.867,6.754l.037,1.373a10.493,10.493,0,0,1-2.579,7.413,8.965,8.965,0,0,1-6.921,2.792,9.01,9.01,0,0,1-6.93-2.783,10.678,10.678,0,0,1-2.588-7.57Zm5.362.381a7.5,7.5,0,0,0,1.076,4.376,3.866,3.866,0,0,0,6.123.019,8.211,8.211,0,0,0,1.095-4.785,7.429,7.429,0,0,0-1.095-4.348,3.559,3.559,0,0,0-3.08-1.542,3.5,3.5,0,0,0-3.043,1.533A8.35,8.35,0,0,0,76.055,26.157Zm16.124-.381a11.906,11.906,0,0,1,1.15-5.325,8.422,8.422,0,0,1,3.312-3.618,9.663,9.663,0,0,1,5.019-1.28,9.142,9.142,0,0,1,6.633,2.486,9.979,9.979,0,0,1,2.867,6.754l.037,1.373a10.493,10.493,0,0,1-2.579,7.413,10,10,0,0,1-13.851.009,10.678,10.678,0,0,1-2.588-7.57Zm5.362.381a7.5,7.5,0,0,0,1.076,4.376,3.866,3.866,0,0,0,6.123.019,8.211,8.211,0,0,0,1.095-4.785,7.429,7.429,0,0,0-1.095-4.348,3.559,3.559,0,0,0-3.08-1.542,3.5,3.5,0,0,0-3.043,1.533A8.35,8.35,0,0,0,97.541,26.157Zm16.18-.344a11.766,11.766,0,0,1,2.2-7.44,7.124,7.124,0,0,1,5.928-2.82,6.248,6.248,0,0,1,5.14,2.264l.223-1.893h4.861V35.332a8.58,8.58,0,0,1-1.2,4.583,7.686,7.686,0,0,1-3.368,2.969,11.839,11.839,0,0,1-5.084,1.021,11.009,11.009,0,0,1-4.3-.881,7.64,7.64,0,0,1-3.173-2.273l2.375-3.266a6.281,6.281,0,0,0,4.861,2.245,4.6,4.6,0,0,0,3.321-1.141,4.28,4.28,0,0,0,1.188-3.238V34.274a6.2,6.2,0,0,1-4.88,2.1,7.106,7.106,0,0,1-5.854-2.83,11.763,11.763,0,0,1-2.236-7.505Zm5.362.382a7.365,7.365,0,0,0,1.095,4.3,3.479,3.479,0,0,0,3.006,1.556A3.721,3.721,0,0,0,126.69,30.2V21.721a3.712,3.712,0,0,0-3.47-1.845,3.5,3.5,0,0,0-3.034,1.584A8.3,8.3,0,0,0,119.083,26.2ZM141.85,36h-5.381V7.5h5.381Zm13.656.371a9.856,9.856,0,0,1-7.19-2.709,9.629,9.629,0,0,1-2.774-7.218v-.52a12.128,12.128,0,0,1,1.169-5.409,8.579,8.579,0,0,1,3.312-3.674,9.3,9.3,0,0,1,4.889-1.29,8.332,8.332,0,0,1,6.485,2.6q2.366,2.6,2.366,7.366v2.189H150.979a4.981,4.981,0,0,0,1.568,3.154,4.74,4.74,0,0,0,3.312,1.188A5.788,5.788,0,0,0,160.7,29.8l2.635,2.95a8.05,8.05,0,0,1-3.266,2.663A10.714,10.714,0,0,1,155.506,36.371Zm-.612-16.5a3.351,3.351,0,0,0-2.588,1.081,5.6,5.6,0,0,0-1.271,3.094h7.459v-.429a3.992,3.992,0,0,0-.965-2.768A3.457,3.457,0,0,0,154.894,19.876Zm29-10.892,6.939,19.594,6.9-19.594h7.311V36h-5.585V28.615l.557-12.747L192.727,36H188.9l-7.273-20.113.557,12.729V36h-5.566V8.984Zm34.9,27.387a9.856,9.856,0,0,1-7.19-2.709,9.629,9.629,0,0,1-2.774-7.218v-.52A12.128,12.128,0,0,1,210,20.516a8.579,8.579,0,0,1,3.312-3.674,9.3,9.3,0,0,1,4.889-1.29,8.332,8.332,0,0,1,6.485,2.6q2.366,2.6,2.366,7.366v2.189H214.269a4.981,4.981,0,0,0,1.568,3.154,4.74,4.74,0,0,0,3.312,1.188,5.788,5.788,0,0,0,4.843-2.245l2.635,2.95a8.05,8.05,0,0,1-3.266,2.663A10.714,10.714,0,0,1,218.8,36.371Zm-.612-16.5a3.351,3.351,0,0,0-2.588,1.081,5.6,5.6,0,0,0-1.271,3.094h7.459v-.429a3.992,3.992,0,0,0-.965-2.768A3.457,3.457,0,0,0,218.184,19.876Zm21.152,16.5a9.856,9.856,0,0,1-7.19-2.709,9.629,9.629,0,0,1-2.774-7.218v-.52a12.128,12.128,0,0,1,1.169-5.409,8.579,8.579,0,0,1,3.312-3.674,9.3,9.3,0,0,1,4.889-1.29,8.332,8.332,0,0,1,6.485,2.6q2.366,2.6,2.366,7.366v2.189H234.809a4.981,4.981,0,0,0,1.568,3.154,4.74,4.74,0,0,0,3.312,1.188,5.788,5.788,0,0,0,4.843-2.245l2.635,2.95a8.05,8.05,0,0,1-3.266,2.663A10.714,10.714,0,0,1,239.336,36.371Zm-.612-16.5a3.351,3.351,0,0,0-2.588,1.081,5.6,5.6,0,0,0-1.271,3.094h7.459v-.429a3.992,3.992,0,0,0-.965-2.768A3.457,3.457,0,0,0,238.724,19.876Zm18.332-8.888v4.936h3.433v3.934h-3.433v10.02a2.392,2.392,0,0,0,.427,1.6,2.143,2.143,0,0,0,1.633.482,8.551,8.551,0,0,0,1.577-.13v4.063a11.039,11.039,0,0,1-3.247.482q-5.641,0-5.752-5.7V19.857h-2.932V15.924h2.932V10.988Z" transform="translate(208 5563.221)" fill="#fff"/>
  </g>
</svg>
