<svg xmlns="http://www.w3.org/2000/svg" width="361" height="333.221" viewBox="0 0 361 333.221">
  <g id="Grupo_1020320" data-name="Grupo 1020320" transform="translate(-619.5 -5472.221)">
    <path id="Trazado_622590" data-name="Trazado 622590" d="M36.151,17.708l69.577,1.61V99.272L27.717,56.862Z" transform="translate(662.501 5706.169)" fill="#eb6f2d"/>
    <path id="Trazado_622589" data-name="Trazado 622589" d="M0,0H147.161V56.772L0,14.7Z" transform="translate(837.336 5763.045) rotate(180)" fill="#bc5824"/>
    <path id="Trazado_622588" data-name="Trazado 622588" d="M7.044,18.779H214.3V98.734L7.044,39.476Z" transform="translate(623.038 5664.312)" fill="#eb6f2d"/>
    <path id="Trazado_622591" data-name="Trazado 622591" d="M10,0H351a10,10,0,0,1,10,10V223a10,10,0,0,1-10,10H10A10,10,0,0,1,0,223V10A10,10,0,0,1,10,0Z" transform="translate(619.5 5472.221)" fill="#bc5824"/>
    <path id="Trazado_749974" data-name="Trazado 749974" d="M17.737,8.984l6.939,19.594,6.9-19.594H38.89V36H33.3V28.615l.557-12.747L26.569,36H22.747L15.474,15.887l.557,12.729V36H10.464V8.984ZM49.058,36H43.677V15.924h5.381Zm-5.7-25.271a2.641,2.641,0,0,1,.807-1.985,3.478,3.478,0,0,1,4.388,0,2.625,2.625,0,0,1,.816,1.985,2.633,2.633,0,0,1-.826,2,3.439,3.439,0,0,1-4.36,0A2.633,2.633,0,0,1,43.361,10.729ZM61.823,32.048a3.517,3.517,0,0,0,2.412-.816,2.86,2.86,0,0,0,.965-2.171h5.028A6.878,6.878,0,0,1,69.115,32.8a7.346,7.346,0,0,1-3,2.635,9.378,9.378,0,0,1-4.2.937,8.716,8.716,0,0,1-6.791-2.737,10.83,10.83,0,0,1-2.486-7.561v-.353a10.706,10.706,0,0,1,2.468-7.4,8.614,8.614,0,0,1,6.772-2.765,8.444,8.444,0,0,1,6.04,2.143,7.588,7.588,0,0,1,2.31,5.706H65.2a3.685,3.685,0,0,0-.965-2.546,3.586,3.586,0,0,0-5.279.386A7.916,7.916,0,0,0,58,25.674v.558a8.016,8.016,0,0,0,.946,4.46A3.27,3.27,0,0,0,61.823,32.048Zm22.748-11.1a14.568,14.568,0,0,0-1.93-.148q-3.043,0-3.989,2.06V36H73.29V15.924h5.065l.148,2.394a4.969,4.969,0,0,1,4.472-2.765,5.619,5.619,0,0,1,1.67.241Zm1.076,4.824a11.906,11.906,0,0,1,1.15-5.325,8.422,8.422,0,0,1,3.312-3.618,9.663,9.663,0,0,1,5.019-1.28,9.142,9.142,0,0,1,6.633,2.486,9.979,9.979,0,0,1,2.867,6.754l.037,1.373a10.493,10.493,0,0,1-2.579,7.413,10,10,0,0,1-13.851.009,10.678,10.678,0,0,1-2.588-7.57Zm5.362.381a7.5,7.5,0,0,0,1.076,4.376,3.866,3.866,0,0,0,6.123.019A8.211,8.211,0,0,0,99.3,25.767a7.429,7.429,0,0,0-1.095-4.348,3.559,3.559,0,0,0-3.08-1.542,3.5,3.5,0,0,0-3.043,1.533A8.35,8.35,0,0,0,91.01,26.157Zm27.832,4.3a1.728,1.728,0,0,0-.974-1.549,11.065,11.065,0,0,0-3.126-1.011q-7.162-1.5-7.162-6.086a5.516,5.516,0,0,1,2.217-4.462,8.944,8.944,0,0,1,5.8-1.791,9.627,9.627,0,0,1,6.114,1.8A5.672,5.672,0,0,1,124,22.028h-5.362a2.6,2.6,0,0,0-.742-1.9,3.141,3.141,0,0,0-2.319-.751,3.209,3.209,0,0,0-2.1.612,1.933,1.933,0,0,0-.742,1.559,1.652,1.652,0,0,0,.844,1.438,8.685,8.685,0,0,0,2.848.946,23.263,23.263,0,0,1,3.377.9q4.249,1.559,4.249,5.4a5.237,5.237,0,0,1-2.356,4.444,10.165,10.165,0,0,1-6.086,1.7,10.617,10.617,0,0,1-4.481-.9A7.518,7.518,0,0,1,108.062,33a5.734,5.734,0,0,1-1.113-3.386h5.084a2.8,2.8,0,0,0,1.058,2.189,4.2,4.2,0,0,0,2.635.761,3.883,3.883,0,0,0,2.329-.584A1.819,1.819,0,0,0,118.842,30.452Zm7.83-4.676a11.906,11.906,0,0,1,1.15-5.325,8.421,8.421,0,0,1,3.312-3.618,9.663,9.663,0,0,1,5.019-1.28,9.142,9.142,0,0,1,6.633,2.486,9.979,9.979,0,0,1,2.867,6.754l.037,1.373a10.493,10.493,0,0,1-2.579,7.413,10,10,0,0,1-13.851.009,10.678,10.678,0,0,1-2.588-7.57Zm5.362.381a7.5,7.5,0,0,0,1.076,4.376,3.866,3.866,0,0,0,6.123.019,8.212,8.212,0,0,0,1.095-4.785,7.429,7.429,0,0,0-1.095-4.348,3.559,3.559,0,0,0-3.08-1.542,3.5,3.5,0,0,0-3.043,1.533A8.35,8.35,0,0,0,132.034,26.157ZM150.459,36V19.857h-2.987V15.924h2.987V14.217A6.931,6.931,0,0,1,152.4,8.975a7.509,7.509,0,0,1,5.427-1.865,12.638,12.638,0,0,1,2.728.368L160.5,11.6a6.836,6.836,0,0,0-1.633-.167q-3.024,0-3.024,2.863v1.628h3.989v3.934H155.84V36Zm18.573-25.012v4.936h3.433v3.934h-3.433v10.02a2.392,2.392,0,0,0,.427,1.6,2.143,2.143,0,0,0,1.633.482,8.551,8.551,0,0,0,1.577-.13v4.063a11.039,11.039,0,0,1-3.247.482q-5.641,0-5.752-5.7V19.857h-2.932V15.924h2.932V10.988Zm35.458,2.5h-8.275V36h-5.566V13.493h-8.164V8.984H204.49ZM214.9,36.371a9.856,9.856,0,0,1-7.19-2.709,9.629,9.629,0,0,1-2.774-7.218v-.52a12.128,12.128,0,0,1,1.169-5.409,8.579,8.579,0,0,1,3.312-3.674,9.3,9.3,0,0,1,4.889-1.29,8.332,8.332,0,0,1,6.485,2.6q2.366,2.6,2.366,7.366v2.189H210.372a4.981,4.981,0,0,0,1.568,3.154,4.74,4.74,0,0,0,3.312,1.188,5.788,5.788,0,0,0,4.843-2.245l2.635,2.95a8.05,8.05,0,0,1-3.266,2.663A10.714,10.714,0,0,1,214.9,36.371Zm-.612-16.5a3.351,3.351,0,0,0-2.588,1.081,5.6,5.6,0,0,0-1.271,3.094h7.459v-.429a3.992,3.992,0,0,0-.965-2.768A3.457,3.457,0,0,0,214.287,19.876ZM237.833,36a5.955,5.955,0,0,1-.538-1.8,6.488,6.488,0,0,1-5.065,2.171,7.128,7.128,0,0,1-4.889-1.707,5.49,5.49,0,0,1-1.939-4.3,5.673,5.673,0,0,1,2.366-4.9q2.366-1.707,6.837-1.726h2.468v-1.15a3.308,3.308,0,0,0-.714-2.227,2.81,2.81,0,0,0-2.254-.835,3.2,3.2,0,0,0-2.125.649,2.206,2.206,0,0,0-.77,1.781h-5.362a5.386,5.386,0,0,1,1.076-3.229,7.114,7.114,0,0,1,3.043-2.329,11.09,11.09,0,0,1,4.416-.844,8.762,8.762,0,0,1,5.891,1.865,6.523,6.523,0,0,1,2.18,5.242v8.7a9.6,9.6,0,0,0,.8,4.323V36ZM233.4,32.271a4.618,4.618,0,0,0,2.189-.529,3.473,3.473,0,0,0,1.484-1.419V26.871h-2q-4.026,0-4.286,2.783l-.019.315a2.147,2.147,0,0,0,.705,1.651A2.739,2.739,0,0,0,233.4,32.271Zm18.2-16.347.167,2.245a7.055,7.055,0,0,1,5.771-2.616q3.878,0,5.325,3.062a6.893,6.893,0,0,1,6.03-3.062,5.988,5.988,0,0,1,4.861,1.9q1.6,1.9,1.6,5.724V36H269.97V23.168a3.838,3.838,0,0,0-.668-2.5,2.956,2.956,0,0,0-2.356-.79,3.347,3.347,0,0,0-3.34,2.306L263.624,36h-5.362V23.186a3.791,3.791,0,0,0-.687-2.529,2.985,2.985,0,0,0-2.338-.781,3.474,3.474,0,0,0-3.3,1.9V36h-5.362V15.924Zm38.742,14.528a1.728,1.728,0,0,0-.974-1.549,11.065,11.065,0,0,0-3.126-1.011q-7.162-1.5-7.162-6.086a5.516,5.516,0,0,1,2.217-4.462,8.944,8.944,0,0,1,5.8-1.791,9.627,9.627,0,0,1,6.114,1.8,5.672,5.672,0,0,1,2.292,4.676h-5.362a2.6,2.6,0,0,0-.742-1.9,3.141,3.141,0,0,0-2.319-.751,3.209,3.209,0,0,0-2.1.612,1.933,1.933,0,0,0-.742,1.559,1.652,1.652,0,0,0,.844,1.438,8.685,8.685,0,0,0,2.848.946,23.264,23.264,0,0,1,3.377.9q4.249,1.559,4.249,5.4a5.237,5.237,0,0,1-2.356,4.444,10.165,10.165,0,0,1-6.086,1.7,10.617,10.617,0,0,1-4.481-.9A7.518,7.518,0,0,1,279.563,33a5.734,5.734,0,0,1-1.113-3.386h5.084a2.8,2.8,0,0,0,1.058,2.189,4.2,4.2,0,0,0,2.635.761,3.883,3.883,0,0,0,2.329-.584A1.819,1.819,0,0,0,290.343,30.452Z" transform="translate(647.5 5563.221)" fill="#fff"/>
  </g>
</svg>
