<svg xmlns="http://www.w3.org/2000/svg" width="555" height="356" viewBox="0 0 555 356">
  <g id="Grupo_1020323" data-name="Grupo 1020323" transform="translate(-1949 3907)">
    <rect id="Rect치ngulo_356732" data-name="Rect치ngulo 356732" width="555" height="356" rx="10" transform="translate(1949 -3907)" fill="#fff"/>
    <g id="Capa_1" data-name="Capa 1" transform="translate(2110.331 -3845.168)">
      <g id="Grupo_879165" data-name="Grupo 879165">
        <rect id="Rect치ngulo_356725" data-name="Rect치ngulo 356725" width="232.337" height="232.337" rx="8.47" fill="#1eb8eb"/>
        <path id="Trazado_749679" data-name="Trazado 749679" d="M122.867,12.1Q95.46,11.217,85.736,43.058A24.924,24.924,0,0,1,95.484,40.9c6.711,0,9.65,3.772,8.866,11.316-.392,4.556-3.331,11.169-8.866,19.888s-9.65,13.079-12.442,13.079q-5.364,0-9.748-20.133c-.98-3.968-2.792-14.01-5.339-30.224C65.6,19.839,59.284,12.785,49.046,13.813Q42.507,14.4,29.5,25.668q-9.479,8.6-19.251,17.145L16.471,50.8c5.927-4.115,9.356-6.221,10.336-6.221,4.507,0,8.768,7.1,12.687,21.309,3.527,12.981,7.1,26.011,10.63,38.992,5.29,14.206,11.805,21.26,19.5,21.26q18.59,0,45.458-34.927Q141.09,57.778,141.971,38.5q1.176-25.791-19.153-26.354Z" transform="translate(39.96 47.075)" fill="#fff"/>
      </g>
    </g>
  </g>
</svg>
