<svg xmlns="http://www.w3.org/2000/svg" width="12" height="12" viewBox="0 0 12 12">
  <g id="OUTLINE" transform="translate(-15.999 -16)">
    <path id="Trazado_749746" data-name="Trazado 749746" d="M215.664,16.4a5.686,5.686,0,0,1,.579.03l.041-.4a6.072,6.072,0,0,0-1.655.057l.068.394A5.655,5.655,0,0,1,215.664,16.4Z" transform="translate(-193.665 0)" fill="#eb6f2d"/>
    <path id="Trazado_749747" data-name="Trazado 749747" d="M18.716,61.868l-.235-.324a6,6,0,0,0-1.862,7.522l.358-.178a5.6,5.6,0,0,1,1.738-7.02Z" transform="translate(0 -44.406)" fill="#eb6f2d"/>
    <path id="Trazado_749748" data-name="Trazado 749748" d="M263.729,469.276l.014.4a5.989,5.989,0,0,0,1.655-.291l-.124-.38A5.589,5.589,0,0,1,263.729,469.276Z" transform="translate(-241.537 -441.68)" fill="#eb6f2d"/>
    <path id="Trazado_749749" data-name="Trazado 749749" d="M112,248h.4v4.6H112Z" transform="translate(-93.601 -226.2)" fill="#eb6f2d"/>
    <path id="Trazado_749750" data-name="Trazado 749750" d="M160,248h.4v4.6H160Z" transform="translate(-140.401 -226.2)" fill="#eb6f2d"/>
    <path id="Trazado_749751" data-name="Trazado 749751" d="M208,248h.4v4.6H208Z" transform="translate(-187.201 -226.2)" fill="#eb6f2d"/>
    <path id="Trazado_749752" data-name="Trazado 749752" d="M74.686,22.193l-3.6-1.734a.6.6,0,0,0-.8.281L69.2,22.988V21a1,1,0,0,0-1-1h-.8V16.8a.8.8,0,1,0-1.6,0V20H65a1,1,0,0,0-1,1v5.2a1,1,0,0,0,.659.94.6.6,0,1,0,1.106.06h1.669a.6.6,0,1,0,1.106-.06,1,1,0,0,0,.634-.718L72,27.78a.2.2,0,0,0,.267-.094L74.78,22.46a.2.2,0,0,0-.094-.267ZM70.822,20.8a.2.2,0,0,1,.086.02l3.424,1.647-.173.36L70.735,21.18a.2.2,0,0,1-.094-.267h0a.2.2,0,0,1,.181-.113Zm-4.622-4a.4.4,0,1,1,.8,0V20h-.8Zm-.8,10.6a.2.2,0,1,1-.2-.2A.2.2,0,0,1,65.4,27.4Zm2.6.2a.2.2,0,1,1,.2-.2.2.2,0,0,1-.2.2Zm.2-.8H65a.6.6,0,0,1-.6-.6V21a.6.6,0,0,1,.6-.6h.8v1h.4v-1H67v1h.4v-1h.8a.6.6,0,0,1,.6.6v2.819l-.686,1.426a.6.6,0,0,0,.281.8l.4.194a.6.6,0,0,1-.6.559Zm3.792.533-3.424-1.647a.2.2,0,0,1-.094-.267l1.922-4a.6.6,0,0,0,.165.118l3.424,1.647Z" transform="translate(-46.801 -0.001)" fill="#eb6f2d"/>
    <path id="Trazado_749753" data-name="Trazado 749753" d="M306.148,277.841a1.4,1.4,0,1,0,.655,1.868A1.4,1.4,0,0,0,306.148,277.841Zm.363,1.506-.359-.172a1.941,1.941,0,0,0,.116-.69v-.069A1,1,0,0,1,306.511,279.347Zm-1.243.393-.053.041v-.067a1.543,1.543,0,0,1,.079-.509l.323.155A1.543,1.543,0,0,1,305.268,279.74Zm.2-.9a1.544,1.544,0,0,1,.349-.38l.053-.041v.067a1.545,1.545,0,0,1-.079.509Zm.076-.742c.027,0,.055,0,.082,0l-.055.042a1.946,1.946,0,0,0-.467.521l-.358-.172A1,1,0,0,1,305.543,278.1Zm-.971.755.359.173a1.942,1.942,0,0,0-.116.69v.07A1,1,0,0,1,304.571,278.858Zm.886,1.241.055-.042a1.945,1.945,0,0,0,.466-.521l.359.172A1,1,0,0,1,305.458,280.1Z" transform="translate(-280.939 -255.161)" fill="#eb6f2d"/>
    <path id="Trazado_749754" data-name="Trazado 749754" d="M0,0H.4V2H0Z" transform="translate(22.656 25.668) rotate(-64.332)" fill="#eb6f2d"/>
    <path id="Trazado_749755" data-name="Trazado 749755" d="M219.641,108.4a.625.625,0,0,0-.883,0,.225.225,0,0,1-.317,0l-.05-.05a1.4,1.4,0,0,0-1.983,0,.574.574,0,0,1-.409.169v.4a.971.971,0,0,0,.691-.286,1,1,0,0,1,1.417,0l.05.05a.625.625,0,0,0,.883,0,.224.224,0,0,1,.317,0l.369.369a4.033,4.033,0,0,0,2.7,1.186,5.589,5.589,0,0,1,.164,1.018l.4-.027a5.944,5.944,0,0,0-.621-2.276l-.357.18a5.577,5.577,0,0,1,.293.7,3.635,3.635,0,0,1-2.29-1.061Z" transform="translate(-195.001 -89.646)" fill="#eb6f2d"/>
    <path id="Trazado_749756" data-name="Trazado 749756" d="M288.1,16.97l3.331,2.036a.6.6,0,0,0,.737-.088l.777-.777a.2.2,0,0,0,0-.283l-.4-.4a.2.2,0,0,0-.252-.025l-.489.326-.913-.609.473-.631a.2.2,0,0,0-.019-.261l-.2-.2a.2.2,0,0,0-.231-.037l-1.1.551-.37-.222a1,1,0,0,0-1.222.15l-.158.158a.2.2,0,0,0,.037.312Zm1.137-.278.464.279a.2.2,0,0,0,.192.007l1-.5-.452.6a.2.2,0,0,0,.049.286l1.2.8a.2.2,0,0,0,.222,0l.464-.309.143.143-.636.636a.2.2,0,0,1-.246.029l-3.114-1.9a.6.6,0,0,1,.711-.069Z" transform="translate(-265.201 0)" fill="#eb6f2d"/>
  </g>
</svg>
