<svg xmlns="http://www.w3.org/2000/svg" width="59.893" height="59.893" viewBox="0 0 59.893 59.893">
  <g id="Outline" transform="translate(-16 -16)">
    <path id="Trazado_749788" data-name="Trazado 749788" d="M74.564,61.773l-.122-.268-1.817.826.122.268a12.82,12.82,0,0,1,1.15,5.308,5.989,5.989,0,0,1-5.99,5.989H60.919a1,1,0,0,1-1-1V66.909a1,1,0,0,1,1-1h2.995a1,1,0,0,0,1-1V63.658a.742.742,0,0,1,1.446-.235l.6,1.8a1,1,0,0,0,.947.683H71.9v-2H68.626l-.374-1.122a2.736,2.736,0,0,0-3.34-1.769V57.242l4.492-2,2.313,5.088,1.817-.826L68.3,47.991a10.32,10.32,0,0,0-9.376-6.037H57.24a11.871,11.871,0,0,0,.518-2h.167a3.993,3.993,0,0,0,0-7.986V25.982a7,7,0,0,0-6.987-6.987H50.6A5.369,5.369,0,0,0,45.784,16H42.952a10.993,10.993,0,0,0-10.98,10.98v2.995a1,1,0,0,0,1,1h1v1a3.993,3.993,0,0,0,0,7.986h.167a11.871,11.871,0,0,0,.518,2H32.97a10.276,10.276,0,0,0-5.576,1.64c-.275.177-.544.369-.8.571l1.236,1.568c.206-.162.423-.317.644-.46a8.285,8.285,0,0,1,4.5-1.322h2.606a11.973,11.973,0,0,0,20.741,0h2.606a8.319,8.319,0,0,1,7.559,4.868l2.1,4.611-3.666,1.629V51.936a1,1,0,0,0-1-1H49.939a4.986,4.986,0,0,0-3.993,2,4.987,4.987,0,0,0-3.993-2H27.978a1,1,0,0,0-1,1v3.122l-3.666-1.629,2.1-4.611a8.285,8.285,0,0,1,1.321-2.045l-1.5-1.318a10.278,10.278,0,0,0-1.639,2.537L17.328,61.773A14.735,14.735,0,0,0,16,67.907a7.985,7.985,0,0,0,7.986,7.986H67.907a7.985,7.985,0,0,0,7.986-7.987,14.814,14.814,0,0,0-1.329-6.135ZM57.925,33.968a2,2,0,0,1,0,3.993ZM33.968,37.961a2,2,0,0,1,0-3.993Zm0-8.984V27.519c.375-.029.747-.064,1.112-.106.922-.105,1.854-.259,2.77-.455a26.38,26.38,0,0,0,9.395-3.873l-1.179-1.611a24.683,24.683,0,0,1-8.634,3.531c-.853.183-1.72.325-2.58.424-.25.029-.5.054-.759.076a8.9,8.9,0,0,1,.524-1.868,39.631,39.631,0,0,0,9.2-2.607l-.4-.894L43.1,19.17a1,1,0,0,0-.094.036,38.154,38.154,0,0,1-7.074,2.184A8.97,8.97,0,0,1,42.952,18h2.832a3.377,3.377,0,0,1,3.157,2.169v5.275a22.7,22.7,0,0,1-12.189,3.536Zm2.956,1.995a10.734,10.734,0,0,1-.959.507v-.506h.787Zm19,6.989a9.982,9.982,0,0,1-19.964,0V33.646l.219-.087a12.823,12.823,0,0,0,4.324-2.87,24.664,24.664,0,0,0,9-3.251,13.62,13.62,0,0,0,6.424,6.189Zm0-11.822a21.792,21.792,0,0,0-3.439-2.983l-1.108,1.661a19.746,19.746,0,0,1,4.547,4.47v2.1a11.608,11.608,0,0,1-4.991-5.6V20.991a5,5,0,0,1,4.991,4.991ZM31.971,72.9a1,1,0,0,1-1,1H23.986A5.989,5.989,0,0,1,18,67.907a12.751,12.751,0,0,1,1.15-5.308l3.342-7.353,4.492,2v3.781a2.736,2.736,0,0,0-3.34,1.769l-.374,1.122H19.993v2h3.993a1,1,0,0,0,.947-.682l.6-1.8a.742.742,0,0,1,1.446.234v1.254a1,1,0,0,0,1,1h2.995a1,1,0,0,1,1,1Zm10.98,1H33.8a2.981,2.981,0,0,0,.172-1V66.909a3,3,0,0,0-2.995-2.995h-2V56.927H42.952ZM28.977,54.93v-2H41.953a3,3,0,0,1,2.824,2ZM46.944,73.9h-2V56.927h2Zm2.995-20.962H62.916v2h-15.8a3,3,0,0,1,2.824-2ZM58.1,73.9H48.941V56.927H62.916v6.987h-2a3,3,0,0,0-2.995,2.995V72.9A2.981,2.981,0,0,0,58.1,73.9Zm1.825-11.979H51.936v-2h7.986Zm-6.987,2h3.993v2H52.934Z" transform="translate(0)"/>
    <g id="g77" transform="translate(41.869 35.806)">
      <path id="path79" d="M0,0V1.631" transform="translate(0)" fill="none" stroke="#000" stroke-linecap="round" stroke-linejoin="round" stroke-miterlimit="10" stroke-width="2"/>
    </g>
    <g id="g81" transform="translate(50.023 35.806)">
      <path id="path83" d="M0,0V1.631" transform="translate(0)" fill="none" stroke="#000" stroke-linecap="round" stroke-linejoin="round" stroke-miterlimit="10" stroke-width="2"/>
    </g>
    <g id="g85" transform="translate(44.315 42.216)">
      <path id="path87" d="M0,0A3.4,3.4,0,0,0,1.6.418,3.405,3.405,0,0,0,3.262,0" fill="none" stroke="#000" stroke-linecap="round" stroke-linejoin="round" stroke-miterlimit="10" stroke-width="2"/>
    </g>
  </g>
</svg>
